%TF.GenerationSoftware,KiCad,Pcbnew,8.0.3*%
%TF.CreationDate,2025-07-02T10:16:16+03:00*%
%TF.ProjectId,LeafSensorPico,4c656166-5365-46e7-936f-725069636f2e,rev?*%
%TF.SameCoordinates,Original*%
%TF.FileFunction,Copper,L4,Bot*%
%TF.FilePolarity,Positive*%
%FSLAX46Y46*%
G04 Gerber Fmt 4.6, Leading zero omitted, Abs format (unit mm)*
G04 Created by KiCad (PCBNEW 8.0.3) date 2025-07-02 10:16:16*
%MOMM*%
%LPD*%
G01*
G04 APERTURE LIST*
G04 Aperture macros list*
%AMRoundRect*
0 Rectangle with rounded corners*
0 $1 Rounding radius*
0 $2 $3 $4 $5 $6 $7 $8 $9 X,Y pos of 4 corners*
0 Add a 4 corners polygon primitive as box body*
4,1,4,$2,$3,$4,$5,$6,$7,$8,$9,$2,$3,0*
0 Add four circle primitives for the rounded corners*
1,1,$1+$1,$2,$3*
1,1,$1+$1,$4,$5*
1,1,$1+$1,$6,$7*
1,1,$1+$1,$8,$9*
0 Add four rect primitives between the rounded corners*
20,1,$1+$1,$2,$3,$4,$5,0*
20,1,$1+$1,$4,$5,$6,$7,0*
20,1,$1+$1,$6,$7,$8,$9,0*
20,1,$1+$1,$8,$9,$2,$3,0*%
G04 Aperture macros list end*
%TA.AperFunction,ComponentPad*%
%ADD10C,1.700000*%
%TD*%
%TA.AperFunction,SMDPad,CuDef*%
%ADD11R,1.220000X0.910000*%
%TD*%
%TA.AperFunction,SMDPad,CuDef*%
%ADD12RoundRect,0.250000X-0.312500X-0.625000X0.312500X-0.625000X0.312500X0.625000X-0.312500X0.625000X0*%
%TD*%
%TA.AperFunction,SMDPad,CuDef*%
%ADD13C,2.500000*%
%TD*%
%TA.AperFunction,ComponentPad*%
%ADD14C,1.200000*%
%TD*%
%TA.AperFunction,SMDPad,CuDef*%
%ADD15R,0.500000X1.000000*%
%TD*%
%TA.AperFunction,SMDPad,CuDef*%
%ADD16RoundRect,0.200000X-0.200000X-0.275000X0.200000X-0.275000X0.200000X0.275000X-0.200000X0.275000X0*%
%TD*%
%TA.AperFunction,SMDPad,CuDef*%
%ADD17RoundRect,0.140000X0.140000X0.170000X-0.140000X0.170000X-0.140000X-0.170000X0.140000X-0.170000X0*%
%TD*%
%TA.AperFunction,SMDPad,CuDef*%
%ADD18R,1.150000X0.700000*%
%TD*%
%TA.AperFunction,SMDPad,CuDef*%
%ADD19O,0.200000X0.680000*%
%TD*%
%TA.AperFunction,SMDPad,CuDef*%
%ADD20R,1.400000X1.300000*%
%TD*%
%TA.AperFunction,SMDPad,CuDef*%
%ADD21RoundRect,0.225000X0.225000X0.250000X-0.225000X0.250000X-0.225000X-0.250000X0.225000X-0.250000X0*%
%TD*%
%TA.AperFunction,SMDPad,CuDef*%
%ADD22R,0.520000X0.260000*%
%TD*%
%TA.AperFunction,ViaPad*%
%ADD23C,0.600000*%
%TD*%
%TA.AperFunction,Conductor*%
%ADD24C,0.200000*%
%TD*%
%TA.AperFunction,Conductor*%
%ADD25C,0.500000*%
%TD*%
%TA.AperFunction,Conductor*%
%ADD26C,0.400000*%
%TD*%
%TA.AperFunction,Conductor*%
%ADD27C,1.000000*%
%TD*%
G04 APERTURE END LIST*
D10*
%TO.P,SW1,1,1*%
%TO.N,/GPIO4*%
X132620106Y-88977989D03*
%TO.P,SW1,2,2*%
%TO.N,GND*%
X133396563Y-86080212D03*
%TO.P,SW1,3,3*%
X131173076Y-87037345D03*
%TD*%
D11*
%TO.P,D1,1,C*%
%TO.N,+3V3*%
X134340600Y-92543200D03*
%TO.P,D1,2,A*%
%TO.N,Net-(D1-A)*%
X134340600Y-95823200D03*
%TD*%
D12*
%TO.P,R10,1*%
%TO.N,GND1*%
X138059700Y-101777800D03*
%TO.P,R10,2*%
%TO.N,GND*%
X140984700Y-101777800D03*
%TD*%
D13*
%TO.P,TP2,1,1*%
%TO.N,GND1*%
X158216616Y-91988003D03*
%TD*%
%TO.P,TP1,1,1*%
%TO.N,GND1*%
X144416616Y-105788003D03*
%TD*%
D14*
%TO.P,CN1,1,1*%
%TO.N,Net-(Q1-D)*%
X144406616Y-95238003D03*
%TD*%
D15*
%TO.P,X1,1,OSC1*%
%TO.N,Net-(U3-GPIO0{slash}ADC1_CH0{slash}XTAL_32K_P)*%
X139732200Y-87249000D03*
%TO.P,X1,2,OSC2*%
%TO.N,Net-(U3-GPIO1{slash}ADC1_CH1{slash}XTAL_32K_N)*%
X140792200Y-87249000D03*
%TD*%
D16*
%TO.P,R1,1*%
%TO.N,Net-(D1-A)*%
X135966200Y-97002600D03*
%TO.P,R1,2*%
%TO.N,GND1*%
X137616200Y-97002600D03*
%TD*%
D13*
%TO.P,TP3,1,1*%
%TO.N,GND1*%
X130616616Y-91988003D03*
%TD*%
D17*
%TO.P,C10,1*%
%TO.N,Net-(U2-REG)*%
X139649200Y-95605600D03*
%TO.P,C10,2*%
%TO.N,GND1*%
X138689200Y-95605600D03*
%TD*%
D18*
%TO.P,Q1,1,G*%
%TO.N,Net-(D1-A)*%
X136093200Y-95219600D03*
%TO.P,Q1,2,D*%
%TO.N,Net-(Q1-D)*%
X138593200Y-94269600D03*
%TO.P,Q1,3,S*%
%TO.N,+3V3*%
X136093200Y-93319600D03*
%TD*%
D19*
%TO.P,U2,1,N.C.*%
%TO.N,unconnected-(U2-N.C.-Pad1)*%
X140817600Y-99161600D03*
%TO.P,U2,2,AIN*%
%TO.N,GND1*%
X140417600Y-99161600D03*
%TO.P,U2,3,SCL*%
%TO.N,/SCL*%
X140017600Y-99161600D03*
%TO.P,U2,4,SDA*%
%TO.N,/SDA*%
X139617600Y-99161600D03*
%TO.P,U2,5,CSN*%
%TO.N,GND*%
X139217600Y-99161600D03*
%TO.P,U2,6,CSP*%
%TO.N,GND1*%
X139217600Y-96721600D03*
%TO.P,U2,7,REG*%
%TO.N,Net-(U2-REG)*%
X139617600Y-96721600D03*
%TO.P,U2,8,ALRT*%
%TO.N,/ALRT*%
X140017600Y-96721600D03*
%TO.P,U2,9,THRM*%
%TO.N,unconnected-(U2-THRM-Pad9)*%
X140417600Y-96721600D03*
%TO.P,U2,10,BATT*%
%TO.N,+3V3*%
X140817600Y-96721600D03*
D20*
%TO.P,U2,11,EP*%
%TO.N,GND1*%
X140017600Y-97941600D03*
%TD*%
D21*
%TO.P,C6,1*%
%TO.N,+3V3*%
X136385600Y-90017600D03*
%TO.P,C6,2*%
%TO.N,GND1*%
X134835600Y-90017600D03*
%TD*%
D22*
%TO.P,D2,1,C*%
%TO.N,+3V3*%
X134296400Y-91490800D03*
%TO.P,D2,2,A*%
%TO.N,GND1*%
X133216400Y-91490800D03*
%TD*%
D23*
%TO.N,/SDA*%
X153009600Y-96393000D03*
X146812000Y-96316800D03*
%TO.N,GND*%
X142189200Y-98069400D03*
%TO.N,Net-(U3-GPIO0{slash}ADC1_CH0{slash}XTAL_32K_P)*%
X139827000Y-88417400D03*
%TO.N,GND*%
X145389600Y-85674200D03*
X131572000Y-85267800D03*
X140004800Y-79781400D03*
X138404600Y-90322400D03*
X139192000Y-81506000D03*
X144830800Y-102336600D03*
X140766800Y-79781400D03*
X141300200Y-92125800D03*
X133858000Y-82753200D03*
X144018000Y-103022400D03*
X134035800Y-84759800D03*
X152120600Y-78994000D03*
X148793200Y-79806800D03*
X141960600Y-101574600D03*
X134670800Y-81356200D03*
X151104600Y-89636600D03*
X137845800Y-79730600D03*
X141274800Y-90322400D03*
X143408400Y-85725000D03*
X133324600Y-94869000D03*
X142570200Y-102311200D03*
X148031200Y-79806800D03*
X139192000Y-80706000D03*
X149631400Y-79806800D03*
X145389600Y-83743800D03*
X143230600Y-79857600D03*
X138709400Y-92151200D03*
X137388600Y-87934800D03*
X146405600Y-79832200D03*
X141732000Y-102311200D03*
X141579600Y-79806800D03*
X143408400Y-83667600D03*
X144780000Y-79806800D03*
X143992600Y-79857600D03*
X154076400Y-89941400D03*
X147218400Y-79806800D03*
X142341600Y-103200200D03*
X145592800Y-79806800D03*
X142367000Y-79832200D03*
%TO.N,Net-(U3-GPIO1{slash}ADC1_CH1{slash}XTAL_32K_N)*%
X140893800Y-88468200D03*
%TO.N,/~{ESP_RESET}*%
X155908642Y-86084042D03*
X139903200Y-85953600D03*
%TO.N,+3V3*%
X141122400Y-92964000D03*
X146761200Y-93294200D03*
X151536400Y-93319600D03*
X149123400Y-93345000D03*
X144475200Y-93268800D03*
X136601200Y-91795600D03*
X142659100Y-96583500D03*
%TO.N,/SDA*%
X144729200Y-100380800D03*
%TO.N,/SCL*%
X145821400Y-99441000D03*
%TO.N,/GPIO3*%
X139471400Y-84531200D03*
X151587200Y-81483200D03*
%TO.N,/GPIO4*%
X144068800Y-88468200D03*
%TO.N,/ALRT*%
X141757400Y-95478600D03*
%TD*%
D24*
%TO.N,GND1*%
X137542628Y-98147228D02*
X137542628Y-97076172D01*
X137542628Y-97076172D02*
X137616200Y-97002600D01*
%TO.N,/ALRT*%
X141209843Y-95529400D02*
G75*
G03*
X140366787Y-95878587I-43J-1192200D01*
G01*
X140192184Y-96053215D02*
G75*
G03*
X140017608Y-96474700I421516J-421485D01*
G01*
X141732000Y-95504000D02*
G75*
G02*
X141670678Y-95529391I-61300J61300D01*
G01*
%TO.N,Net-(U2-REG)*%
X139649200Y-95730455D02*
G75*
G02*
X139633434Y-95768634I-54000J-45D01*
G01*
X139633400Y-95768600D02*
G75*
G03*
X139617618Y-95806744I38100J-38100D01*
G01*
%TO.N,/GPIO4*%
X142062200Y-88900000D02*
G75*
G02*
X141019742Y-89331818I-1042500J1042500D01*
G01*
X137325100Y-88861900D02*
G75*
G03*
X136190661Y-88392016I-1134400J-1134400D01*
G01*
X134341128Y-88392000D02*
G75*
G03*
X133819892Y-88607892I-28J-737100D01*
G01*
X137325100Y-88861900D02*
G75*
G03*
X138459538Y-89331784I1134400J1134400D01*
G01*
X133811818Y-88615981D02*
G75*
G02*
X133310100Y-88823810I-501718J501681D01*
G01*
X143104657Y-88468200D02*
G75*
G03*
X142062212Y-88900012I43J-1474300D01*
G01*
X133017189Y-88823800D02*
G75*
G03*
X133015503Y-88824503I11J-2400D01*
G01*
%TO.N,/GPIO3*%
X143702769Y-81483200D02*
G75*
G03*
X140728709Y-82715109I31J-4206000D01*
G01*
X139703541Y-83740258D02*
G75*
G03*
X139484123Y-84239101I531459J-531442D01*
G01*
%TO.N,/SCL*%
X145803439Y-99509760D02*
G75*
G03*
X145821405Y-99466400I-43339J43360D01*
G01*
X145821400Y-99466400D02*
G75*
G03*
X145839335Y-99473814I10500J0D01*
G01*
X140150900Y-99815700D02*
G75*
G03*
X140472714Y-99948994I321800J321800D01*
G01*
X145719800Y-99593400D02*
G75*
G02*
X145474515Y-99695007I-245300J245300D01*
G01*
X143638805Y-99695000D02*
G75*
G03*
X143332198Y-99821998I-5J-433600D01*
G01*
X145854239Y-99458960D02*
G75*
G03*
X145846800Y-99440965I-7439J7460D01*
G01*
X143332200Y-99822000D02*
G75*
G02*
X143025594Y-99948998I-306600J306600D01*
G01*
X140017600Y-99493885D02*
G75*
G03*
X140150896Y-99815704I455100J-15D01*
G01*
X145839360Y-99473839D02*
X145803439Y-99509760D01*
%TO.N,/SDA*%
X144716499Y-100418899D02*
G75*
G02*
X144685839Y-100431615I-30699J30699D01*
G01*
X139747700Y-100301500D02*
G75*
G03*
X140061789Y-100431604I314100J314100D01*
G01*
X139617600Y-99987410D02*
G75*
G03*
X139747703Y-100301497I444200J10D01*
G01*
X144729200Y-100393500D02*
G75*
G02*
X144720228Y-100415189I-30700J0D01*
G01*
X144763580Y-100371819D02*
G75*
G02*
X144741900Y-100380788I-21680J21719D01*
G01*
X152971500Y-96354900D02*
G75*
G03*
X152879518Y-96316792I-92000J-92000D01*
G01*
D25*
%TO.N,Net-(D1-A)*%
X134640322Y-95679703D02*
G75*
G02*
X134355213Y-95797810I-285122J285103D01*
G01*
X134478248Y-96087848D02*
G75*
G03*
X134827610Y-96232556I349352J349348D01*
G01*
X134355213Y-95797800D02*
G75*
G03*
X134306264Y-95915928I-13J-69200D01*
G01*
X135963450Y-96771250D02*
G75*
G03*
X136143912Y-96696463I74750J74750D01*
G01*
D26*
%TO.N,+3V3*%
X135556439Y-92782839D02*
G75*
G03*
X134828700Y-92481406I-727739J-727761D01*
G01*
X136570165Y-93040200D02*
G75*
G03*
X136232910Y-93179910I35J-477000D01*
G01*
X138239500Y-93052900D02*
G75*
G03*
X138208839Y-93040184I-30700J-30700D01*
G01*
D25*
X136493400Y-90125400D02*
G75*
G02*
X136601220Y-90385652I-260300J-260300D01*
G01*
D26*
X138239500Y-93052900D02*
G75*
G03*
X138264900Y-93052900I12700J12702D01*
G01*
X134446099Y-92481400D02*
G75*
G03*
X134371500Y-92512300I1J-105500D01*
G01*
X136220200Y-93192600D02*
G75*
G02*
X135966200Y-93192600I-127000J127000D01*
G01*
D25*
X136220200Y-93192600D02*
X136220200Y-93192600D01*
D26*
X135966200Y-93192600D02*
G75*
G03*
X136220200Y-93192600I127000J127000D01*
G01*
X138295560Y-93040200D02*
G75*
G03*
X138264912Y-93052912I40J-43400D01*
G01*
X144248778Y-93179900D02*
G75*
G03*
X143911512Y-93040201I-337278J-337300D01*
G01*
X134296400Y-92467745D02*
G75*
G03*
X134318513Y-92521087I75500J45D01*
G01*
X134318500Y-92521100D02*
G75*
G03*
X134362700Y-92521100I22100J22100D01*
G01*
D24*
X142590050Y-96652550D02*
G75*
G02*
X142423348Y-96721620I-166750J166750D01*
G01*
%TO.N,/~{ESP_RESET}*%
X155866830Y-86084042D02*
G75*
G03*
X155795434Y-86113589I-30J-100958D01*
G01*
%TO.N,GND*%
X131572000Y-86356339D02*
G75*
G02*
X131372517Y-86837862I-681000J39D01*
G01*
X138887200Y-100076000D02*
G75*
G03*
X139282323Y-101029939I1349100J0D01*
G01*
X141859000Y-101676200D02*
G75*
G02*
X141613715Y-101777807I-245300J245300D01*
G01*
X134035800Y-85100387D02*
G75*
G02*
X133794985Y-85681823I-822300J-13D01*
G01*
X139052399Y-99351999D02*
G75*
G03*
X138887210Y-99750828I398801J-398801D01*
G01*
X141274225Y-101853425D02*
G75*
G03*
X141091650Y-101777765I-182625J-182575D01*
G01*
X141091650Y-101777800D02*
X141091650Y-101777800D01*
X139692733Y-101440333D02*
G75*
G03*
X140507450Y-101777830I814767J814733D01*
G01*
X139217600Y-99174200D02*
G75*
G02*
X139208687Y-99195706I-30400J0D01*
G01*
X140877750Y-101777800D02*
X141091650Y-101777800D01*
D27*
X141091650Y-101777800D02*
X140877750Y-101777800D01*
%TO.N,GND1*%
X151898350Y-103485950D02*
G75*
G03*
X151643475Y-103601037I432750J-1298150D01*
G01*
X132809161Y-100068561D02*
G75*
G03*
X135831850Y-101320643I3022739J3022661D01*
G01*
X138059700Y-102062550D02*
G75*
G03*
X137858316Y-101576486I-687400J-50D01*
G01*
X137858351Y-101576451D02*
G75*
G03*
X138059816Y-101493050I83449J83451D01*
G01*
X139681007Y-103968607D02*
G75*
G03*
X143528763Y-105562411I3847793J3847807D01*
G01*
X157974641Y-94659843D02*
G75*
G03*
X157956251Y-94926150I6217559J-563157D01*
G01*
D24*
X137542628Y-98147228D02*
G75*
G02*
X138059734Y-99395550I-1248328J-1248372D01*
G01*
D27*
X133216352Y-91490848D02*
G75*
G02*
X133216238Y-91490909I-152J148D01*
G01*
D24*
X138760200Y-95767600D02*
G75*
G02*
X138695855Y-95922948I-219700J0D01*
G01*
X137654300Y-96964500D02*
G75*
G03*
X137654300Y-97040700I38100J-38100D01*
G01*
D27*
X130616616Y-95622052D02*
G75*
G03*
X132210377Y-99469839I5441584J-48D01*
G01*
D24*
X137704197Y-96951800D02*
G75*
G03*
X137794000Y-96861997I3J89800D01*
G01*
X137857500Y-97015300D02*
G75*
G03*
X137704197Y-96951801I-153300J-153300D01*
G01*
X137794000Y-96861997D02*
G75*
G03*
X137857499Y-97015301I216800J-3D01*
G01*
X130898518Y-91988003D02*
G75*
G03*
X130616603Y-92269905I-18J-281897D01*
G01*
D27*
X133216332Y-91490800D02*
G75*
G03*
X133216441Y-91490745I-32J200D01*
G01*
X133216371Y-91490800D02*
X133216370Y-91490806D01*
X133216370Y-91490812D01*
X133216368Y-91490818D01*
X133216366Y-91490824D01*
X133216364Y-91490830D01*
X133216361Y-91490835D01*
X133216358Y-91490841D01*
X133216354Y-91490845D01*
X133216352Y-91490848D01*
X146817393Y-105562400D02*
G75*
G03*
X147612101Y-105486203I7J4182300D01*
G01*
X146818687Y-105594585D02*
G75*
G03*
X146817393Y-105562364I-1287J16085D01*
G01*
X147612100Y-105486200D02*
G75*
G02*
X146818687Y-105594590I-1373700J7097400D01*
G01*
D24*
X140217600Y-98141600D02*
G75*
G03*
X139734757Y-97941618I-482800J-482800D01*
G01*
D27*
X137831100Y-101549200D02*
G75*
G03*
X137279210Y-101320596I-551900J-551900D01*
G01*
D24*
X139009852Y-95926252D02*
G75*
G02*
X139217599Y-96427800I-501552J-501548D01*
G01*
D27*
X157383399Y-96462200D02*
G75*
G02*
X156489605Y-98244068I-79060399J38542000D01*
G01*
D24*
X134762600Y-90017600D02*
G75*
G03*
X134637989Y-90069226I0J-176200D01*
G01*
X138059700Y-99435650D02*
X138059700Y-99435650D01*
X138461150Y-98343050D02*
G75*
G03*
X138059715Y-99312236I969150J-969150D01*
G01*
X138824546Y-95740946D02*
G75*
G03*
X138760211Y-95767600I-26646J-26654D01*
G01*
X139430336Y-97941600D02*
G75*
G03*
X138461139Y-98343039I-36J-1370600D01*
G01*
D27*
X155067000Y-100920550D02*
G75*
G02*
X154882515Y-101134137I-803500J507550D01*
G01*
X138059700Y-102062550D02*
G75*
G03*
X138261033Y-102548663I687400J-50D01*
G01*
D24*
X140217600Y-98141600D02*
G75*
G02*
X140417582Y-98624442I-482800J-482800D01*
G01*
X138059700Y-101493050D02*
X138059700Y-102062550D01*
D26*
X133216447Y-91490751D02*
X133216352Y-91490848D01*
D24*
X138059700Y-100817950D02*
X138059700Y-99435650D01*
X138059700Y-99435650D02*
X138059700Y-100817950D01*
%TO.N,/SDA*%
X146812000Y-96316800D02*
X152879518Y-96316800D01*
X153009600Y-96393000D02*
X152971500Y-96354900D01*
X152738521Y-96359279D02*
X152755600Y-96342200D01*
%TO.N,+3V3*%
X142423348Y-96721600D02*
X140817600Y-96721600D01*
X142659100Y-96583500D02*
X142590050Y-96652550D01*
%TO.N,GND1*%
X139009852Y-95926252D02*
X138824546Y-95740946D01*
X138695853Y-95922946D02*
X137654300Y-96964500D01*
X139217600Y-96427800D02*
X139217600Y-96721600D01*
X138059700Y-101493050D02*
X138059700Y-100817950D01*
D27*
X155067000Y-100920550D02*
X155143200Y-100799900D01*
X137858351Y-101576451D02*
X137831100Y-101549200D01*
X155426444Y-100304963D02*
X156489604Y-98244068D01*
X157820199Y-95566201D02*
X157383399Y-96462200D01*
D24*
X138059700Y-99395550D02*
X138059700Y-99435650D01*
D27*
X157956250Y-94926150D02*
X157949900Y-95059500D01*
X157974641Y-94659843D02*
X158216616Y-91988003D01*
D24*
X137704197Y-96951800D02*
X137441205Y-96951800D01*
D27*
X135831850Y-101320600D02*
X137279210Y-101320600D01*
D24*
X130898518Y-91988003D02*
X131180421Y-91988003D01*
X137857500Y-97015300D02*
X137921000Y-97078800D01*
D27*
X144501324Y-105781182D02*
X146818687Y-105594585D01*
X148005800Y-105410000D02*
X147612100Y-105486200D01*
X133216332Y-91490800D02*
X132812242Y-91490800D01*
D24*
X140417600Y-98624442D02*
X140417600Y-99161600D01*
X137654300Y-97040700D02*
X137692400Y-97078800D01*
D27*
X152511705Y-103169479D02*
X154882527Y-101134151D01*
D26*
X133216447Y-91490751D02*
X134637981Y-90069218D01*
D27*
X130616616Y-95622052D02*
X130616616Y-92269905D01*
D24*
X137794000Y-96861997D02*
X137794000Y-96673400D01*
X134762600Y-90017600D02*
X134835600Y-90017600D01*
D27*
X133216236Y-91490896D02*
X132222814Y-91490896D01*
X143528763Y-105562400D02*
X146817393Y-105562400D01*
D24*
X139734757Y-97941600D02*
X139430336Y-97941600D01*
D27*
X151898350Y-103485950D02*
X152031700Y-103441500D01*
X139681007Y-103968607D02*
X138261048Y-102548648D01*
D24*
X138059700Y-99435650D02*
X138059700Y-99312236D01*
D27*
X132809161Y-100068561D02*
X132210408Y-99469808D01*
X144476708Y-105727911D02*
X144536800Y-105667819D01*
X131780598Y-91739401D02*
X131849594Y-91670405D01*
X151643471Y-103601031D02*
X149486605Y-104854594D01*
X131780598Y-91739401D02*
G75*
G02*
X131180421Y-91988010I-600198J600201D01*
G01*
X155426444Y-100304963D02*
G75*
G02*
X155143201Y-100799901I-5824044J3004463D01*
G01*
X152031700Y-103441500D02*
G75*
G03*
X152511705Y-103169479I-452900J1358700D01*
G01*
X131849594Y-91670405D02*
G75*
G02*
X132222812Y-91490879I448506J-454695D01*
G01*
X157820199Y-95566201D02*
G75*
G03*
X157949895Y-95059500I-1165999J568401D01*
G01*
X144476708Y-105727911D02*
G75*
G03*
X144501321Y-105781139I22092J-22089D01*
G01*
X148005800Y-105410000D02*
G75*
G03*
X149486610Y-104854602I-900500J4652700D01*
G01*
D24*
%TO.N,Net-(U3-GPIO0{slash}ADC1_CH0{slash}XTAL_32K_P)*%
X139827000Y-88417400D02*
X139827000Y-87410833D01*
X139779600Y-87296400D02*
X139732200Y-87249000D01*
X139779600Y-87296400D02*
G75*
G02*
X139826986Y-87410833I-114400J-114400D01*
G01*
%TO.N,GND*%
X138887200Y-100076000D02*
X138887200Y-99750828D01*
X139282331Y-101029931D02*
X139692733Y-101440333D01*
X140877750Y-101777800D02*
X140507450Y-101777800D01*
D27*
X142570200Y-102311200D02*
X141732000Y-102311200D01*
D24*
X141732000Y-102311200D02*
X141274225Y-101853425D01*
X139217600Y-99174200D02*
X139217600Y-99161600D01*
X134035800Y-84759800D02*
X134035800Y-85100387D01*
X141859000Y-101676200D02*
X141960600Y-101574600D01*
X133794968Y-85681806D02*
X133396563Y-86080212D01*
X131372538Y-86837883D02*
X131173076Y-87037345D01*
X131572000Y-86356339D02*
X131572000Y-85267800D01*
D27*
X141613715Y-101777800D02*
X141091650Y-101777800D01*
D24*
X139052399Y-99351999D02*
X139208690Y-99195709D01*
%TO.N,Net-(U3-GPIO1{slash}ADC1_CH1{slash}XTAL_32K_N)*%
X140893800Y-88468200D02*
X140893800Y-87422442D01*
X140843000Y-87299800D02*
X140792200Y-87249000D01*
X140843000Y-87299800D02*
G75*
G02*
X140893783Y-87422442I-122600J-122600D01*
G01*
%TO.N,/~{ESP_RESET}*%
X155866830Y-86084042D02*
X155908642Y-86084042D01*
X140131800Y-86182200D02*
X139903200Y-85953600D01*
X154789095Y-86410800D02*
X140683689Y-86410800D01*
X155795452Y-86113607D02*
X155710712Y-86198348D01*
X155710712Y-86198348D02*
G75*
G02*
X154789095Y-86410805I-927112J1916548D01*
G01*
X140131800Y-86182200D02*
G75*
G03*
X140683689Y-86410804I551900J551900D01*
G01*
D26*
%TO.N,+3V3*%
X149166760Y-93319600D02*
X151536400Y-93319600D01*
X134296400Y-92467745D02*
X134296400Y-91490800D01*
X146748500Y-93306900D02*
X146761200Y-93294200D01*
X134371500Y-92512300D02*
X134362700Y-92521100D01*
X144388478Y-93319600D02*
X144248778Y-93179900D01*
X135556439Y-92782839D02*
X135966200Y-93192600D01*
D25*
X136347200Y-93065600D02*
X136220200Y-93192600D01*
X136601200Y-90385652D02*
X136601200Y-92452389D01*
D26*
X136570165Y-93040200D02*
X138208839Y-93040200D01*
X138295560Y-93040200D02*
X143911512Y-93040200D01*
D25*
X136493400Y-90125400D02*
X136385600Y-90017600D01*
D26*
X144475200Y-93268800D02*
X144500600Y-93294200D01*
X134828700Y-92481400D02*
X134446099Y-92481400D01*
D25*
X136601200Y-91795600D02*
X136601200Y-92452389D01*
D26*
X146761200Y-93294200D02*
X146773900Y-93306900D01*
X149136100Y-93332300D02*
X149123400Y-93345000D01*
X136232900Y-93179900D02*
X136220200Y-93192600D01*
X149080039Y-93319600D02*
X146804560Y-93319600D01*
X149110700Y-93332300D02*
X149123400Y-93345000D01*
X146717839Y-93319600D02*
X144561921Y-93319600D01*
X144449800Y-93294200D02*
X144475200Y-93268800D01*
X146748500Y-93306900D02*
G75*
G02*
X146717839Y-93319616I-30700J30700D01*
G01*
X144388478Y-93319600D02*
G75*
G03*
X144449806Y-93294206I22J86700D01*
G01*
X149080039Y-93319600D02*
G75*
G02*
X149110688Y-93332312I-39J-43400D01*
G01*
X146773900Y-93306900D02*
G75*
G03*
X146804560Y-93319616I30700J30700D01*
G01*
X144561921Y-93319600D02*
G75*
G02*
X144500594Y-93294206I-21J86700D01*
G01*
D25*
X136347200Y-93065600D02*
G75*
G03*
X136601196Y-92452389I-613200J613200D01*
G01*
D26*
X149166760Y-93319600D02*
G75*
G03*
X149136112Y-93332312I40J-43400D01*
G01*
D27*
%TO.N,Net-(Q1-D)*%
X143922414Y-94753801D02*
X144406616Y-95238003D01*
X142753448Y-94269600D02*
X138593200Y-94269600D01*
X142753448Y-94269600D02*
G75*
G02*
X143922446Y-94753769I52J-1653200D01*
G01*
D25*
%TO.N,Net-(D1-A)*%
X136144000Y-96696463D02*
X136144000Y-95306321D01*
X134827610Y-96232559D02*
X135032262Y-96232559D01*
X134640322Y-95679703D02*
X134829755Y-95490271D01*
X135594900Y-95219600D02*
X136057278Y-95219600D01*
X134478248Y-96087848D02*
X134306296Y-95915896D01*
X135782900Y-96590700D02*
X135963450Y-96771250D01*
X135782900Y-96590700D02*
G75*
G03*
X135032261Y-96232566I-887000J-893400D01*
G01*
X134829755Y-95490271D02*
G75*
G02*
X135594900Y-95219601I769845J-959429D01*
G01*
D24*
%TO.N,/SDA*%
X144729200Y-100380800D02*
X144729200Y-100393500D01*
X144716499Y-100418899D02*
X144720219Y-100415180D01*
X144685839Y-100431600D02*
X140061789Y-100431600D01*
X144729200Y-100380800D02*
X144741900Y-100380800D01*
X144763580Y-100371819D02*
X144780000Y-100355400D01*
X139617600Y-99987410D02*
X139617600Y-99161600D01*
%TO.N,/SCL*%
X140017600Y-99493885D02*
X140017600Y-99161600D01*
X145474515Y-99695000D02*
X143638805Y-99695000D01*
X140472714Y-99949000D02*
X143025594Y-99949000D01*
X145803439Y-99509760D02*
X145719800Y-99593400D01*
X145839360Y-99473839D02*
X145854239Y-99458960D01*
X145821400Y-99466400D02*
X145821400Y-99441000D01*
X145821400Y-99441000D02*
X145846800Y-99441000D01*
%TO.N,/GPIO3*%
X139471400Y-84531200D02*
X139496800Y-84480400D01*
X139471400Y-84531200D02*
X139484100Y-84239100D01*
X143702769Y-81483200D02*
X151587200Y-81483200D01*
X140728699Y-82715099D02*
X139703541Y-83740258D01*
%TO.N,/GPIO4*%
X133015500Y-88824500D02*
X133014800Y-88825200D01*
X141019742Y-89331800D02*
X138459538Y-89331800D01*
X144068800Y-88468200D02*
X143104657Y-88468200D01*
X136190661Y-88392000D02*
X134341128Y-88392000D01*
X133819899Y-88607899D02*
X133811818Y-88615981D01*
X133310100Y-88823800D02*
X133017189Y-88823800D01*
%TO.N,Net-(U2-REG)*%
X139617600Y-95806744D02*
X139617600Y-96721600D01*
X139649200Y-95730455D02*
X139649200Y-95605600D01*
%TO.N,/ALRT*%
X141757400Y-95478600D02*
X141732000Y-95504000D01*
X141757400Y-95478600D02*
X141732000Y-95504000D01*
X140017600Y-96474700D02*
X140017600Y-96721600D01*
X141209843Y-95529400D02*
X141670678Y-95529400D01*
X140366799Y-95878599D02*
X140192184Y-96053215D01*
%TD*%
%TA.AperFunction,Conductor*%
%TO.N,GND*%
G36*
X144771542Y-103776353D02*
G01*
X144769557Y-103778553D01*
X144707128Y-103908186D01*
X144692814Y-103953494D01*
X144653848Y-104011489D01*
X144589713Y-104039211D01*
X144556093Y-104038753D01*
X144547803Y-104037503D01*
X144547798Y-104037503D01*
X144319577Y-104037503D01*
X144252538Y-104017818D01*
X144206783Y-103965014D01*
X144199831Y-103945704D01*
X144191127Y-103913334D01*
X144190721Y-103911465D01*
X144189558Y-103907498D01*
X144134202Y-103778553D01*
X144132801Y-103775289D01*
X144086875Y-103719769D01*
X144771542Y-103776353D01*
G37*
%TD.AperFunction*%
%TA.AperFunction,Conductor*%
G36*
X142562672Y-103593802D02*
G01*
X141907254Y-103672768D01*
X141855436Y-103668014D01*
X141278285Y-103487655D01*
X142562672Y-103593802D01*
G37*
%TD.AperFunction*%
%TA.AperFunction,Conductor*%
G36*
X144450323Y-76430727D02*
G01*
X145219383Y-76459909D01*
X145225523Y-76460296D01*
X145992126Y-76527872D01*
X145998285Y-76528570D01*
X146760567Y-76634371D01*
X146766674Y-76635376D01*
X147522694Y-76779136D01*
X147528742Y-76780443D01*
X147867593Y-76862614D01*
X148276621Y-76961802D01*
X148282606Y-76963412D01*
X149020527Y-77181929D01*
X149026424Y-77183837D01*
X149752480Y-77438950D01*
X149758220Y-77441129D01*
X150391880Y-77700035D01*
X150470644Y-77732217D01*
X150476322Y-77734704D01*
X151173311Y-78061030D01*
X151178816Y-78063778D01*
X151858643Y-78424537D01*
X151863998Y-78427553D01*
X152430804Y-78765674D01*
X152524901Y-78821807D01*
X152530144Y-78825114D01*
X153170546Y-79251922D01*
X153175616Y-79255488D01*
X153793847Y-79713733D01*
X153798730Y-79717544D01*
X154050717Y-79924611D01*
X154393318Y-80206137D01*
X154398007Y-80210191D01*
X154967414Y-80727868D01*
X154971895Y-80732151D01*
X155514736Y-81277653D01*
X155518997Y-81282155D01*
X156033887Y-81854086D01*
X156037918Y-81858795D01*
X156220895Y-82083700D01*
X156523586Y-82455749D01*
X156527377Y-82460654D01*
X156982607Y-83081134D01*
X156986148Y-83086222D01*
X157409802Y-83728675D01*
X157413084Y-83733933D01*
X157804108Y-84396763D01*
X157807123Y-84402179D01*
X158164535Y-85083724D01*
X158167275Y-85089284D01*
X158490168Y-85787807D01*
X158492628Y-85793497D01*
X158779962Y-86506671D01*
X158780220Y-86507310D01*
X158782388Y-86513104D01*
X158822898Y-86630224D01*
X159033953Y-87240412D01*
X159035832Y-87246319D01*
X159151173Y-87642927D01*
X159242854Y-87958182D01*
X159250730Y-87985262D01*
X159252310Y-87991249D01*
X159257838Y-88014542D01*
X159430016Y-88740030D01*
X159431296Y-88746095D01*
X159571360Y-89502812D01*
X159572335Y-89508933D01*
X159674408Y-90271707D01*
X159675073Y-90277825D01*
X159709626Y-90691212D01*
X159695594Y-90759659D01*
X159646785Y-90809653D01*
X159578695Y-90825322D01*
X159512942Y-90801692D01*
X159501716Y-90792440D01*
X159311095Y-90615570D01*
X159233678Y-90562788D01*
X159094320Y-90467775D01*
X159094316Y-90467773D01*
X159094313Y-90467771D01*
X159094312Y-90467770D01*
X158857941Y-90353941D01*
X158857943Y-90353941D01*
X158607239Y-90276609D01*
X158607235Y-90276608D01*
X158607231Y-90276607D01*
X158476579Y-90256914D01*
X158347803Y-90237503D01*
X158347798Y-90237503D01*
X158085434Y-90237503D01*
X158085428Y-90237503D01*
X157923863Y-90261856D01*
X157826001Y-90276607D01*
X157825998Y-90276608D01*
X157825992Y-90276609D01*
X157575289Y-90353941D01*
X157338919Y-90467770D01*
X157338913Y-90467774D01*
X157338912Y-90467775D01*
X157317192Y-90482583D01*
X157237434Y-90536960D01*
X157170955Y-90558459D01*
X157103405Y-90540604D01*
X157078118Y-90520364D01*
X157068195Y-90510024D01*
X157068186Y-90510016D01*
X156954810Y-90421449D01*
X156954809Y-90421448D01*
X156909375Y-90403429D01*
X156821071Y-90368407D01*
X156821057Y-90368403D01*
X156753115Y-90352152D01*
X156609842Y-90338938D01*
X156609839Y-90338938D01*
X156468657Y-90366620D01*
X156468648Y-90366622D01*
X156402706Y-90389683D01*
X156402692Y-90389689D01*
X156402679Y-90389695D01*
X156275026Y-90456028D01*
X156275022Y-90456031D01*
X156088790Y-90589557D01*
X156088775Y-90589568D01*
X156032347Y-90636594D01*
X156006499Y-90661533D01*
X156006497Y-90661535D01*
X155957508Y-90716206D01*
X155957506Y-90716208D01*
X155957506Y-90716209D01*
X155904603Y-90809653D01*
X155886618Y-90841420D01*
X155861392Y-90906006D01*
X155861207Y-90906471D01*
X155861199Y-90906497D01*
X155861197Y-90906506D01*
X155828460Y-91046612D01*
X155801297Y-91358992D01*
X155801157Y-91360598D01*
X155801157Y-91360599D01*
X155809137Y-91503838D01*
X155822845Y-91572153D01*
X155870740Y-91707371D01*
X155874856Y-91715219D01*
X155871850Y-91716795D01*
X155889676Y-91767233D01*
X155873647Y-91835239D01*
X155862795Y-91849302D01*
X155863718Y-91850015D01*
X155858296Y-91857029D01*
X155787412Y-91982240D01*
X155761998Y-92047309D01*
X155761996Y-92047315D01*
X155761996Y-92047317D01*
X155729259Y-92187424D01*
X155722321Y-92267211D01*
X155693417Y-92599600D01*
X155681672Y-92642516D01*
X155427532Y-93171977D01*
X155427532Y-93171978D01*
X155403686Y-93221657D01*
X153997483Y-96151244D01*
X153950727Y-96203163D01*
X153883323Y-96221562D01*
X153816672Y-96200600D01*
X153771935Y-96146930D01*
X153768652Y-96138539D01*
X153762159Y-96119984D01*
X153735389Y-96043478D01*
X153639416Y-95890738D01*
X153511862Y-95763184D01*
X153359123Y-95667211D01*
X153188854Y-95607631D01*
X153188849Y-95607630D01*
X153009604Y-95587435D01*
X153009596Y-95587435D01*
X152830350Y-95607630D01*
X152830337Y-95607633D01*
X152660081Y-95667209D01*
X152660077Y-95667210D01*
X152612201Y-95697294D01*
X152546229Y-95716300D01*
X147394412Y-95716300D01*
X147327373Y-95696615D01*
X147317097Y-95689245D01*
X147314263Y-95686985D01*
X147314262Y-95686984D01*
X147203652Y-95617483D01*
X147161523Y-95591011D01*
X146991254Y-95531431D01*
X146991249Y-95531430D01*
X146812004Y-95511235D01*
X146811996Y-95511235D01*
X146632750Y-95531430D01*
X146632745Y-95531431D01*
X146462476Y-95591011D01*
X146309737Y-95686984D01*
X146182184Y-95814537D01*
X146086211Y-95967276D01*
X146026631Y-96137545D01*
X146026630Y-96137550D01*
X146006435Y-96316796D01*
X146006435Y-96316803D01*
X146026630Y-96496049D01*
X146026631Y-96496054D01*
X146086211Y-96666323D01*
X146146800Y-96762749D01*
X146182184Y-96819062D01*
X146309738Y-96946616D01*
X146462478Y-97042589D01*
X146632745Y-97102168D01*
X146632750Y-97102169D01*
X146811996Y-97122365D01*
X146812000Y-97122365D01*
X146812004Y-97122365D01*
X146991249Y-97102169D01*
X146991252Y-97102168D01*
X146991255Y-97102168D01*
X147161522Y-97042589D01*
X147314262Y-96946616D01*
X147314267Y-96946610D01*
X147317097Y-96944355D01*
X147319275Y-96943465D01*
X147320158Y-96942911D01*
X147320255Y-96943065D01*
X147381783Y-96917945D01*
X147394412Y-96917300D01*
X152350460Y-96917300D01*
X152417499Y-96936985D01*
X152438141Y-96953619D01*
X152507338Y-97022816D01*
X152660078Y-97118789D01*
X152830339Y-97178366D01*
X152830345Y-97178368D01*
X152830350Y-97178369D01*
X153009596Y-97198565D01*
X153009600Y-97198565D01*
X153009604Y-97198565D01*
X153188849Y-97178369D01*
X153188851Y-97178368D01*
X153188855Y-97178368D01*
X153188858Y-97178366D01*
X153188862Y-97178366D01*
X153261435Y-97152972D01*
X153331214Y-97149410D01*
X153391841Y-97184138D01*
X153424069Y-97246132D01*
X153417664Y-97315707D01*
X153413299Y-97325468D01*
X152544948Y-99062169D01*
X152510282Y-99104504D01*
X146813072Y-103546395D01*
X146748099Y-103572092D01*
X146730532Y-103572445D01*
X146388495Y-103555053D01*
X146253200Y-100736400D01*
X145448229Y-100741080D01*
X145454989Y-100730322D01*
X145514568Y-100560055D01*
X145516348Y-100544263D01*
X145533719Y-100390082D01*
X145560785Y-100325668D01*
X145618380Y-100286113D01*
X145637523Y-100281495D01*
X145696380Y-100272171D01*
X145761554Y-100250992D01*
X145813760Y-100245704D01*
X145819686Y-100246371D01*
X145821399Y-100246565D01*
X145821400Y-100246565D01*
X145821404Y-100246565D01*
X146000649Y-100226369D01*
X146000652Y-100226368D01*
X146000655Y-100226368D01*
X146170922Y-100166789D01*
X146323662Y-100070816D01*
X146451216Y-99943262D01*
X146547189Y-99790522D01*
X146606768Y-99620255D01*
X146609445Y-99596499D01*
X146626965Y-99441003D01*
X146626965Y-99440996D01*
X146606769Y-99261750D01*
X146606768Y-99261745D01*
X146559238Y-99125912D01*
X146547189Y-99091478D01*
X146540973Y-99081586D01*
X146451215Y-98938737D01*
X146323662Y-98811184D01*
X146170923Y-98715211D01*
X146000654Y-98655631D01*
X146000649Y-98655630D01*
X145821404Y-98635435D01*
X145821396Y-98635435D01*
X145642150Y-98655630D01*
X145642145Y-98655631D01*
X145471876Y-98715211D01*
X145319137Y-98811184D01*
X145191584Y-98938737D01*
X145130174Y-99036472D01*
X145077839Y-99082763D01*
X145025180Y-99094500D01*
X143557440Y-99094500D01*
X143557426Y-99094501D01*
X143396657Y-99119963D01*
X143396648Y-99119965D01*
X143241855Y-99170259D01*
X143096816Y-99244160D01*
X143096807Y-99244166D01*
X142985799Y-99324818D01*
X142919993Y-99348298D01*
X142912914Y-99348500D01*
X141542100Y-99348500D01*
X141475061Y-99328815D01*
X141429306Y-99276011D01*
X141418100Y-99224500D01*
X141418100Y-98842545D01*
X141418100Y-98842543D01*
X141377177Y-98689816D01*
X141357441Y-98655632D01*
X141298124Y-98552890D01*
X141298118Y-98552882D01*
X141254418Y-98509182D01*
X141220933Y-98447859D01*
X141218099Y-98421501D01*
X141218099Y-97461699D01*
X141237784Y-97394660D01*
X141254421Y-97374015D01*
X141270021Y-97358416D01*
X141331345Y-97324933D01*
X141357699Y-97322100D01*
X142325120Y-97322100D01*
X142366074Y-97329058D01*
X142380815Y-97334216D01*
X142479845Y-97368868D01*
X142479851Y-97368868D01*
X142479853Y-97368869D01*
X142659096Y-97389065D01*
X142659100Y-97389065D01*
X142659104Y-97389065D01*
X142838349Y-97368869D01*
X142838352Y-97368868D01*
X142838355Y-97368868D01*
X143008622Y-97309289D01*
X143161362Y-97213316D01*
X143288916Y-97085762D01*
X143384889Y-96933022D01*
X143444468Y-96762755D01*
X143445665Y-96752133D01*
X143464665Y-96583503D01*
X143464665Y-96583496D01*
X143444469Y-96404250D01*
X143444468Y-96404245D01*
X143407144Y-96297580D01*
X143384889Y-96233978D01*
X143380722Y-96227347D01*
X143330193Y-96146930D01*
X143288916Y-96081238D01*
X143161362Y-95953684D01*
X143119127Y-95927146D01*
X143008623Y-95857711D01*
X142838354Y-95798131D01*
X142838350Y-95798130D01*
X142654086Y-95777369D01*
X142589672Y-95750302D01*
X142550117Y-95692707D01*
X142544750Y-95640265D01*
X142562965Y-95478602D01*
X142562965Y-95478597D01*
X142555009Y-95407986D01*
X142567063Y-95339164D01*
X142614412Y-95287784D01*
X142678223Y-95270102D01*
X142747394Y-95270100D01*
X142759541Y-95270696D01*
X142868658Y-95281440D01*
X142892500Y-95286181D01*
X142991575Y-95316231D01*
X143014023Y-95325529D01*
X143105332Y-95374331D01*
X143125540Y-95387832D01*
X143209947Y-95457099D01*
X143218946Y-95465254D01*
X143221156Y-95467463D01*
X143348107Y-95594414D01*
X143372876Y-95632422D01*
X143373479Y-95632122D01*
X143390950Y-95667209D01*
X143466943Y-95819824D01*
X143495554Y-95857711D01*
X143589853Y-95982584D01*
X143740574Y-96119983D01*
X143740576Y-96119985D01*
X143824791Y-96172128D01*
X143913979Y-96227351D01*
X144104160Y-96301027D01*
X144304640Y-96338503D01*
X144304642Y-96338503D01*
X144508590Y-96338503D01*
X144508592Y-96338503D01*
X144709072Y-96301027D01*
X144899253Y-96227351D01*
X145072657Y-96119984D01*
X145223380Y-95982582D01*
X145346289Y-95819824D01*
X145437198Y-95637253D01*
X145493013Y-95441086D01*
X145511831Y-95238003D01*
X145501440Y-95125869D01*
X145493013Y-95034920D01*
X145476574Y-94977144D01*
X145437198Y-94838753D01*
X145435520Y-94835384D01*
X145371405Y-94706622D01*
X145346289Y-94656182D01*
X145253756Y-94533648D01*
X145223378Y-94493421D01*
X145072657Y-94356022D01*
X145072655Y-94356020D01*
X144900662Y-94249527D01*
X144854026Y-94197499D01*
X144842922Y-94128517D01*
X144870875Y-94064483D01*
X144929010Y-94025727D01*
X144965939Y-94020100D01*
X146390925Y-94020100D01*
X146431879Y-94027057D01*
X146556853Y-94070788D01*
X146581945Y-94079568D01*
X146581950Y-94079569D01*
X146761196Y-94099765D01*
X146761200Y-94099765D01*
X146761204Y-94099765D01*
X146940449Y-94079569D01*
X146940452Y-94079568D01*
X146940455Y-94079568D01*
X147090520Y-94027057D01*
X147131475Y-94020100D01*
X148657483Y-94020100D01*
X148723456Y-94039107D01*
X148773875Y-94070788D01*
X148944145Y-94130368D01*
X148944150Y-94130369D01*
X149123396Y-94150565D01*
X149123400Y-94150565D01*
X149123404Y-94150565D01*
X149302649Y-94130369D01*
X149302652Y-94130368D01*
X149302655Y-94130368D01*
X149472922Y-94070789D01*
X149496675Y-94055864D01*
X149523344Y-94039107D01*
X149589317Y-94020100D01*
X151110906Y-94020100D01*
X151176877Y-94039106D01*
X151186874Y-94045387D01*
X151186875Y-94045387D01*
X151186878Y-94045389D01*
X151342276Y-94099765D01*
X151357145Y-94104968D01*
X151357150Y-94104969D01*
X151536396Y-94125165D01*
X151536400Y-94125165D01*
X151536404Y-94125165D01*
X151715649Y-94104969D01*
X151715652Y-94104968D01*
X151715655Y-94104968D01*
X151885922Y-94045389D01*
X152038662Y-93949416D01*
X152166216Y-93821862D01*
X152262189Y-93669122D01*
X152321768Y-93498855D01*
X152341965Y-93319600D01*
X152325332Y-93171978D01*
X152321769Y-93140350D01*
X152321768Y-93140345D01*
X152262188Y-92970076D01*
X152166215Y-92817337D01*
X152038662Y-92689784D01*
X151885923Y-92593811D01*
X151715654Y-92534231D01*
X151715649Y-92534230D01*
X151536404Y-92514035D01*
X151536396Y-92514035D01*
X151357150Y-92534230D01*
X151357145Y-92534231D01*
X151186874Y-92593812D01*
X151176877Y-92600094D01*
X151110906Y-92619100D01*
X149493675Y-92619100D01*
X149452720Y-92612142D01*
X149302654Y-92559631D01*
X149302649Y-92559630D01*
X149123404Y-92539435D01*
X149123396Y-92539435D01*
X148944150Y-92559630D01*
X148944145Y-92559631D01*
X148794080Y-92612142D01*
X148753125Y-92619100D01*
X147227117Y-92619100D01*
X147161144Y-92600093D01*
X147110724Y-92568411D01*
X146940454Y-92508831D01*
X146940449Y-92508830D01*
X146761204Y-92488635D01*
X146761196Y-92488635D01*
X146581950Y-92508830D01*
X146581945Y-92508831D01*
X146411675Y-92568411D01*
X146361256Y-92600093D01*
X146295283Y-92619100D01*
X144981541Y-92619100D01*
X144915569Y-92600094D01*
X144915567Y-92600093D01*
X144871910Y-92572661D01*
X144824723Y-92543011D01*
X144654454Y-92483431D01*
X144654449Y-92483430D01*
X144475204Y-92463235D01*
X144468238Y-92463235D01*
X144468238Y-92460456D01*
X144411790Y-92450561D01*
X144410452Y-92449889D01*
X144363495Y-92425964D01*
X144240059Y-92385857D01*
X144187241Y-92368696D01*
X144187239Y-92368695D01*
X144187237Y-92368695D01*
X144004192Y-92339701D01*
X143984917Y-92339701D01*
X143984885Y-92339700D01*
X143980505Y-92339700D01*
X143911530Y-92339700D01*
X143832602Y-92339698D01*
X143832601Y-92339698D01*
X143825837Y-92339698D01*
X143825801Y-92339700D01*
X141669164Y-92339700D01*
X141603192Y-92320693D01*
X141471926Y-92238212D01*
X141301654Y-92178631D01*
X141301649Y-92178630D01*
X141122404Y-92158435D01*
X141122396Y-92158435D01*
X140943150Y-92178630D01*
X140943145Y-92178631D01*
X140772873Y-92238212D01*
X140641608Y-92320693D01*
X140575636Y-92339700D01*
X138381387Y-92339700D01*
X138379997Y-92339622D01*
X138346328Y-92339653D01*
X138346290Y-92339642D01*
X138294914Y-92339684D01*
X138275870Y-92339699D01*
X138275398Y-92339700D01*
X138209468Y-92339700D01*
X138124360Y-92339624D01*
X138123008Y-92339700D01*
X138007502Y-92339700D01*
X137940463Y-92320015D01*
X137894708Y-92267211D01*
X137883626Y-92210153D01*
X137898915Y-91868717D01*
X137906139Y-91707371D01*
X137938593Y-90982558D01*
X137929826Y-90863568D01*
X137918744Y-90806510D01*
X137882336Y-90692896D01*
X137804548Y-90571857D01*
X137792939Y-90558459D01*
X137758799Y-90519059D01*
X137758795Y-90519056D01*
X137758793Y-90519053D01*
X137650059Y-90424833D01*
X137650056Y-90424831D01*
X137650054Y-90424830D01*
X137519188Y-90365064D01*
X137519183Y-90365062D01*
X137519182Y-90365062D01*
X137485662Y-90355219D01*
X137452137Y-90345375D01*
X137452133Y-90345374D01*
X137447625Y-90344726D01*
X137384072Y-90315696D01*
X137346303Y-90256914D01*
X137342812Y-90241400D01*
X137342119Y-90237030D01*
X137341340Y-90232117D01*
X137337628Y-90208690D01*
X137336099Y-90189280D01*
X137336099Y-89830986D01*
X137355784Y-89763947D01*
X137408588Y-89718192D01*
X137477746Y-89708248D01*
X137513895Y-89719263D01*
X137614454Y-89767689D01*
X137614457Y-89767690D01*
X137614459Y-89767691D01*
X137642179Y-89777390D01*
X137848204Y-89849478D01*
X138089641Y-89904580D01*
X138335730Y-89932303D01*
X138459552Y-89932300D01*
X140939228Y-89932300D01*
X140939260Y-89932301D01*
X140946841Y-89932301D01*
X140946845Y-89932302D01*
X140968379Y-89932301D01*
X140968435Y-89932317D01*
X141019759Y-89932316D01*
X141019759Y-89932317D01*
X141136269Y-89932314D01*
X141136276Y-89932314D01*
X141175704Y-89927870D01*
X141367838Y-89906217D01*
X141367847Y-89906215D01*
X141367848Y-89906215D01*
X141481431Y-89880287D01*
X141595025Y-89854358D01*
X141814976Y-89777390D01*
X141937898Y-89718192D01*
X142024922Y-89676282D01*
X142024922Y-89676281D01*
X142024928Y-89676279D01*
X142222239Y-89552298D01*
X142404429Y-89407006D01*
X142447541Y-89363891D01*
X142447544Y-89363890D01*
X142468173Y-89343261D01*
X142483384Y-89328050D01*
X142490500Y-89321473D01*
X142583665Y-89241902D01*
X142599389Y-89230477D01*
X142699676Y-89169020D01*
X142716993Y-89160196D01*
X142825653Y-89115186D01*
X142844145Y-89109177D01*
X142958495Y-89081722D01*
X142977705Y-89078678D01*
X143074502Y-89071058D01*
X143099608Y-89069082D01*
X143109339Y-89068700D01*
X143486388Y-89068700D01*
X143553427Y-89088385D01*
X143563703Y-89095755D01*
X143566536Y-89098014D01*
X143566538Y-89098016D01*
X143719278Y-89193989D01*
X143823538Y-89230471D01*
X143889545Y-89253568D01*
X143889550Y-89253569D01*
X144068796Y-89273765D01*
X144068800Y-89273765D01*
X144068804Y-89273765D01*
X144248049Y-89253569D01*
X144248052Y-89253568D01*
X144248055Y-89253568D01*
X144418322Y-89193989D01*
X144571062Y-89098016D01*
X144698616Y-88970462D01*
X144794589Y-88817722D01*
X144854168Y-88647455D01*
X144857048Y-88621897D01*
X144874365Y-88468203D01*
X144874365Y-88468196D01*
X144854169Y-88288950D01*
X144854168Y-88288945D01*
X144853408Y-88286772D01*
X144794589Y-88118678D01*
X144786992Y-88106588D01*
X144729156Y-88014542D01*
X144698616Y-87965938D01*
X144571062Y-87838384D01*
X144532874Y-87814389D01*
X144418323Y-87742411D01*
X144248054Y-87682831D01*
X144248049Y-87682830D01*
X144068804Y-87662635D01*
X144068796Y-87662635D01*
X143889550Y-87682830D01*
X143889545Y-87682831D01*
X143719276Y-87742411D01*
X143566536Y-87838385D01*
X143563703Y-87840645D01*
X143561524Y-87841534D01*
X143560642Y-87842089D01*
X143560544Y-87841934D01*
X143499017Y-87867055D01*
X143486388Y-87867700D01*
X143185170Y-87867700D01*
X143185138Y-87867698D01*
X143156015Y-87867698D01*
X143155960Y-87867682D01*
X142988122Y-87867685D01*
X142756559Y-87893783D01*
X142756543Y-87893786D01*
X142529380Y-87945640D01*
X142529367Y-87945644D01*
X142309423Y-88022609D01*
X142309414Y-88022613D01*
X142099478Y-88123716D01*
X142099477Y-88123717D01*
X141902163Y-88247701D01*
X141902156Y-88247705D01*
X141853168Y-88286772D01*
X141788481Y-88313180D01*
X141719785Y-88300423D01*
X141668892Y-88252552D01*
X141658814Y-88230778D01*
X141651874Y-88210945D01*
X141619589Y-88118678D01*
X141611992Y-88106588D01*
X141554156Y-88014542D01*
X141538554Y-87989712D01*
X141519554Y-87922477D01*
X141527365Y-87880413D01*
X141536291Y-87856483D01*
X141542700Y-87796873D01*
X141542699Y-87135299D01*
X141562383Y-87068261D01*
X141615187Y-87022506D01*
X141666699Y-87011300D01*
X154708824Y-87011300D01*
X154712201Y-87011499D01*
X154717726Y-87011484D01*
X154717731Y-87011486D01*
X154739182Y-87011430D01*
X154739193Y-87011433D01*
X154739193Y-87011431D01*
X154790645Y-87011302D01*
X154790645Y-87011303D01*
X154791637Y-87011300D01*
X154791846Y-87011300D01*
X154874417Y-87011300D01*
X154877618Y-87011085D01*
X154913002Y-87010997D01*
X155156678Y-86988472D01*
X155358961Y-86951293D01*
X155397363Y-86944235D01*
X155633112Y-86878642D01*
X155633117Y-86878640D01*
X155633115Y-86878640D01*
X155633121Y-86878639D01*
X155649926Y-86872294D01*
X155719596Y-86867031D01*
X155722602Y-86867874D01*
X155722605Y-86867862D01*
X155729390Y-86869411D01*
X155908638Y-86889607D01*
X155908642Y-86889607D01*
X155908646Y-86889607D01*
X156087891Y-86869411D01*
X156087894Y-86869410D01*
X156087897Y-86869410D01*
X156258164Y-86809831D01*
X156410904Y-86713858D01*
X156538458Y-86586304D01*
X156634431Y-86433564D01*
X156694010Y-86263297D01*
X156699768Y-86212193D01*
X156714207Y-86084045D01*
X156714207Y-86084038D01*
X156694011Y-85904792D01*
X156694010Y-85904787D01*
X156662352Y-85814313D01*
X156634431Y-85734520D01*
X156629865Y-85727254D01*
X156595224Y-85672122D01*
X156538458Y-85581780D01*
X156410904Y-85454226D01*
X156363384Y-85424367D01*
X156258165Y-85358253D01*
X156087896Y-85298673D01*
X156087891Y-85298672D01*
X155908646Y-85278477D01*
X155908638Y-85278477D01*
X155729392Y-85298672D01*
X155729387Y-85298673D01*
X155559118Y-85358253D01*
X155406379Y-85454226D01*
X155278826Y-85581779D01*
X155193189Y-85718070D01*
X155140854Y-85764361D01*
X155109243Y-85774299D01*
X154965189Y-85799111D01*
X154951401Y-85800697D01*
X154791296Y-85810087D01*
X154784036Y-85810300D01*
X140789132Y-85810300D01*
X140722093Y-85790615D01*
X140676338Y-85737811D01*
X140672090Y-85727254D01*
X140668876Y-85718070D01*
X140628989Y-85604078D01*
X140533016Y-85451338D01*
X140405462Y-85323784D01*
X140342339Y-85284121D01*
X140252721Y-85227810D01*
X140175181Y-85200678D01*
X140118404Y-85159956D01*
X140092657Y-85095003D01*
X140106113Y-85026442D01*
X140111129Y-85017684D01*
X140197189Y-84880722D01*
X140256768Y-84710455D01*
X140276965Y-84531200D01*
X140263426Y-84411041D01*
X140256769Y-84351950D01*
X140256766Y-84351937D01*
X140200673Y-84191635D01*
X140197110Y-84121856D01*
X140230031Y-84063001D01*
X141151181Y-83141852D01*
X141155549Y-83137693D01*
X141410976Y-82906188D01*
X141420361Y-82898485D01*
X141694802Y-82694945D01*
X141704895Y-82688202D01*
X141997956Y-82512547D01*
X142008658Y-82506827D01*
X142317526Y-82360742D01*
X142328731Y-82356100D01*
X142650439Y-82240990D01*
X142662042Y-82237470D01*
X142993493Y-82154444D01*
X143005384Y-82152079D01*
X143343351Y-82101944D01*
X143355453Y-82100752D01*
X143699476Y-82083849D01*
X143705561Y-82083700D01*
X151004788Y-82083700D01*
X151071827Y-82103385D01*
X151082103Y-82110755D01*
X151084936Y-82113014D01*
X151084938Y-82113016D01*
X151237678Y-82208989D01*
X151329152Y-82240997D01*
X151407945Y-82268568D01*
X151407950Y-82268569D01*
X151587196Y-82288765D01*
X151587200Y-82288765D01*
X151587204Y-82288765D01*
X151766449Y-82268569D01*
X151766452Y-82268568D01*
X151766455Y-82268568D01*
X151936722Y-82208989D01*
X152089462Y-82113016D01*
X152217016Y-81985462D01*
X152312989Y-81832722D01*
X152372568Y-81662455D01*
X152372569Y-81662449D01*
X152392765Y-81483203D01*
X152392765Y-81483196D01*
X152372569Y-81303950D01*
X152372568Y-81303945D01*
X152312988Y-81133676D01*
X152266431Y-81059582D01*
X152217016Y-80980938D01*
X152089462Y-80853384D01*
X151936723Y-80757411D01*
X151766454Y-80697831D01*
X151766449Y-80697830D01*
X151587204Y-80677635D01*
X151587196Y-80677635D01*
X151407950Y-80697830D01*
X151407945Y-80697831D01*
X151237676Y-80757411D01*
X151084936Y-80853385D01*
X151082103Y-80855645D01*
X151079924Y-80856534D01*
X151079042Y-80857089D01*
X151078944Y-80856934D01*
X151017417Y-80882055D01*
X151004788Y-80882700D01*
X143754140Y-80882700D01*
X143754095Y-80882687D01*
X143513924Y-80882687D01*
X143513913Y-80882688D01*
X143137396Y-80912323D01*
X143137380Y-80912325D01*
X142764353Y-80971408D01*
X142538695Y-81025585D01*
X142397089Y-81059583D01*
X142397084Y-81059584D01*
X142037875Y-81176300D01*
X142037870Y-81176302D01*
X141688934Y-81320837D01*
X141688925Y-81320841D01*
X141352427Y-81492298D01*
X141352396Y-81492316D01*
X141030391Y-81689642D01*
X141030369Y-81689656D01*
X140724811Y-81911658D01*
X140724809Y-81911660D01*
X140437622Y-82156941D01*
X140437608Y-82156954D01*
X140385575Y-82208988D01*
X140359984Y-82234579D01*
X140359983Y-82234580D01*
X140304081Y-82290481D01*
X140278302Y-82316260D01*
X139305057Y-83289504D01*
X139305006Y-83289555D01*
X139207791Y-83386656D01*
X139207788Y-83386659D01*
X139088216Y-83548273D01*
X139088214Y-83548276D01*
X138993861Y-83725773D01*
X138926783Y-83915290D01*
X138925572Y-83919736D01*
X138924072Y-83919327D01*
X138895051Y-83975425D01*
X138893113Y-83977407D01*
X138841586Y-84028934D01*
X138745611Y-84181676D01*
X138686031Y-84351945D01*
X138686030Y-84351950D01*
X138665835Y-84531196D01*
X138665835Y-84531203D01*
X138686030Y-84710449D01*
X138686031Y-84710454D01*
X138745611Y-84880723D01*
X138745612Y-84880724D01*
X138841584Y-85033462D01*
X138969138Y-85161016D01*
X139028614Y-85198387D01*
X139121878Y-85256989D01*
X139199417Y-85284121D01*
X139256193Y-85324843D01*
X139281941Y-85389795D01*
X139268485Y-85458357D01*
X139263457Y-85467135D01*
X139177411Y-85604076D01*
X139117831Y-85774345D01*
X139117830Y-85774350D01*
X139097635Y-85953596D01*
X139097635Y-85953603D01*
X139117830Y-86132849D01*
X139117832Y-86132857D01*
X139160941Y-86256056D01*
X139164502Y-86325835D01*
X139130660Y-86384912D01*
X139130928Y-86385180D01*
X139129943Y-86386164D01*
X139129773Y-86386462D01*
X139128929Y-86387178D01*
X139124651Y-86391457D01*
X139038406Y-86506664D01*
X139038402Y-86506671D01*
X138988108Y-86641517D01*
X138981701Y-86701116D01*
X138981700Y-86701135D01*
X138981700Y-87796870D01*
X138981701Y-87796876D01*
X138988108Y-87856483D01*
X139038402Y-87991328D01*
X139038405Y-87991334D01*
X139059859Y-88019993D01*
X139084275Y-88085457D01*
X139077633Y-88135255D01*
X139041631Y-88238145D01*
X139041631Y-88238146D01*
X139021435Y-88417396D01*
X139021435Y-88417404D01*
X139041266Y-88593417D01*
X139029211Y-88662239D01*
X138981862Y-88713618D01*
X138918046Y-88731300D01*
X138540049Y-88731300D01*
X138540033Y-88731299D01*
X138464393Y-88731299D01*
X138454668Y-88730917D01*
X138312217Y-88719710D01*
X138292997Y-88716666D01*
X138158815Y-88684454D01*
X138140308Y-88678441D01*
X138012808Y-88625630D01*
X137995471Y-88616797D01*
X137877806Y-88544693D01*
X137862064Y-88533256D01*
X137753721Y-88440723D01*
X137746571Y-88434113D01*
X137662166Y-88349708D01*
X137468569Y-88195321D01*
X137468549Y-88195307D01*
X137258869Y-88063559D01*
X137258868Y-88063558D01*
X137035743Y-87956110D01*
X137035741Y-87956109D01*
X136857623Y-87893786D01*
X136801996Y-87874322D01*
X136801994Y-87874321D01*
X136801990Y-87874320D01*
X136560567Y-87819221D01*
X136517683Y-87814390D01*
X136314469Y-87791497D01*
X136314465Y-87791497D01*
X136190646Y-87791500D01*
X134254294Y-87791500D01*
X134254168Y-87791508D01*
X134253476Y-87791508D01*
X134181024Y-87801044D01*
X134079629Y-87814389D01*
X133910251Y-87859769D01*
X133748256Y-87926865D01*
X133748252Y-87926867D01*
X133659874Y-87977890D01*
X133591973Y-87994360D01*
X133525947Y-87971507D01*
X133510195Y-87958182D01*
X133491508Y-87939495D01*
X133491501Y-87939490D01*
X133473476Y-87926869D01*
X133388955Y-87867686D01*
X133297940Y-87803956D01*
X133297936Y-87803954D01*
X133282731Y-87796864D01*
X133083769Y-87704086D01*
X133083765Y-87704085D01*
X133083761Y-87704083D01*
X132855519Y-87642927D01*
X132855509Y-87642925D01*
X132620107Y-87622330D01*
X132620102Y-87622330D01*
X132585419Y-87625364D01*
X132516919Y-87611597D01*
X132466737Y-87562981D01*
X132450804Y-87494952D01*
X132454838Y-87469743D01*
X132499451Y-87303244D01*
X132535816Y-87243583D01*
X132598663Y-87213054D01*
X132668038Y-87221349D01*
X132690349Y-87233762D01*
X132718979Y-87253809D01*
X132718983Y-87253811D01*
X132933070Y-87353641D01*
X132933079Y-87353645D01*
X133161236Y-87414779D01*
X133161247Y-87414781D01*
X133396561Y-87435369D01*
X133396565Y-87435369D01*
X133631878Y-87414781D01*
X133631885Y-87414780D01*
X133845375Y-87357575D01*
X133425438Y-86630224D01*
X133468973Y-86630224D01*
X133608860Y-86592742D01*
X133734278Y-86520331D01*
X133836682Y-86417927D01*
X133858449Y-86380224D01*
X134278386Y-87107575D01*
X134434669Y-86951293D01*
X134434672Y-86951290D01*
X134570163Y-86757790D01*
X134669992Y-86543704D01*
X134669996Y-86543695D01*
X134731130Y-86315538D01*
X134731132Y-86315527D01*
X134751720Y-86080213D01*
X134751720Y-86080210D01*
X134731132Y-85844896D01*
X134731131Y-85844888D01*
X134673926Y-85631398D01*
X133946575Y-86051335D01*
X133946575Y-86007802D01*
X133909093Y-85867915D01*
X133836682Y-85742497D01*
X133734278Y-85640093D01*
X133696574Y-85618324D01*
X134423926Y-85198387D01*
X134267645Y-85042106D01*
X134074141Y-84906611D01*
X133860055Y-84806782D01*
X133860046Y-84806778D01*
X133631889Y-84745644D01*
X133631878Y-84745642D01*
X133396565Y-84725055D01*
X133396561Y-84725055D01*
X133161247Y-84745642D01*
X133161236Y-84745644D01*
X132947750Y-84802847D01*
X133367688Y-85530200D01*
X133324153Y-85530200D01*
X133184266Y-85567682D01*
X133058848Y-85640093D01*
X132956444Y-85742497D01*
X132934676Y-85780199D01*
X132514738Y-85052846D01*
X132358453Y-85209131D01*
X132222963Y-85402632D01*
X132222962Y-85402634D01*
X132123133Y-85616719D01*
X132123130Y-85616725D01*
X132070187Y-85814313D01*
X132033822Y-85873973D01*
X131970975Y-85904502D01*
X131901599Y-85896207D01*
X131879289Y-85883795D01*
X131850653Y-85863744D01*
X131636568Y-85763915D01*
X131636559Y-85763911D01*
X131408402Y-85702777D01*
X131408391Y-85702775D01*
X131173078Y-85682188D01*
X131173074Y-85682188D01*
X130937760Y-85702775D01*
X130937749Y-85702777D01*
X130724263Y-85759980D01*
X131144201Y-86487333D01*
X131100666Y-86487333D01*
X130960779Y-86524815D01*
X130835361Y-86597226D01*
X130732957Y-86699630D01*
X130711189Y-86737332D01*
X130291251Y-86009979D01*
X130134969Y-86166262D01*
X130074145Y-86253128D01*
X130019567Y-86296753D01*
X129950069Y-86303945D01*
X129887714Y-86272423D01*
X129852301Y-86212193D01*
X129855072Y-86142378D01*
X129858786Y-86132716D01*
X130164466Y-85427206D01*
X130167065Y-85421597D01*
X130507947Y-84731582D01*
X130510795Y-84726163D01*
X130885725Y-84054061D01*
X130888873Y-84048736D01*
X131296912Y-83396226D01*
X131300306Y-83391089D01*
X131740463Y-82759758D01*
X131744085Y-82754830D01*
X132215265Y-82146253D01*
X132219118Y-82141526D01*
X132720120Y-81557257D01*
X132724235Y-81552695D01*
X133253767Y-80994239D01*
X133258119Y-80989873D01*
X133814911Y-80458564D01*
X133819450Y-80454445D01*
X134402091Y-79951630D01*
X134406880Y-79947703D01*
X135013906Y-79474644D01*
X135018853Y-79470984D01*
X135648774Y-79028842D01*
X135653927Y-79025415D01*
X136305151Y-78615309D01*
X136310432Y-78612165D01*
X136981335Y-78235116D01*
X136986787Y-78232229D01*
X137675684Y-77889185D01*
X137681264Y-77886577D01*
X138386507Y-77578359D01*
X138392186Y-77576045D01*
X139111894Y-77303477D01*
X139117716Y-77301437D01*
X139850155Y-77065174D01*
X139856060Y-77063430D01*
X140599385Y-76864066D01*
X140605378Y-76862617D01*
X141357764Y-76700643D01*
X141363818Y-76699498D01*
X142123335Y-76575330D01*
X142129406Y-76574492D01*
X142894215Y-76488430D01*
X142900326Y-76487896D01*
X143668464Y-76440162D01*
X143674604Y-76439934D01*
X144444160Y-76430648D01*
X144450323Y-76430727D01*
G37*
%TD.AperFunction*%
%TA.AperFunction,Conductor*%
G36*
X139005373Y-100196407D02*
G01*
X139048729Y-100251198D01*
X139051680Y-100259309D01*
X139093638Y-100388435D01*
X139168289Y-100534943D01*
X139168293Y-100534950D01*
X139264946Y-100667980D01*
X139264948Y-100667982D01*
X139271523Y-100674557D01*
X139271524Y-100674559D01*
X139323080Y-100726116D01*
X139323082Y-100726118D01*
X139374641Y-100777675D01*
X139374642Y-100777676D01*
X139380280Y-100783313D01*
X139380312Y-100783341D01*
X139381222Y-100784251D01*
X139514251Y-100880903D01*
X139660763Y-100955556D01*
X139742384Y-100982077D01*
X139817141Y-101006369D01*
X139817142Y-101006369D01*
X139817148Y-101006371D01*
X139817582Y-101006439D01*
X139817736Y-101006512D01*
X139821886Y-101007509D01*
X139821676Y-101008379D01*
X139880720Y-101036360D01*
X139917659Y-101095666D01*
X139922200Y-101128915D01*
X139922200Y-101527800D01*
X140251746Y-101527800D01*
X140253627Y-102027800D01*
X139922200Y-102027800D01*
X139908680Y-102041319D01*
X139847357Y-102074803D01*
X139777665Y-102069817D01*
X139729973Y-102037837D01*
X139708314Y-102014422D01*
X139708311Y-102014419D01*
X139708300Y-102014407D01*
X139688820Y-101994479D01*
X139679002Y-101984975D01*
X139677444Y-101983548D01*
X139658397Y-101966103D01*
X139622060Y-101942755D01*
X139537359Y-101888328D01*
X139537351Y-101888324D01*
X139473794Y-101859304D01*
X139335745Y-101818779D01*
X139335744Y-101818779D01*
X139246707Y-101818785D01*
X139179666Y-101799105D01*
X139133908Y-101746303D01*
X139122699Y-101694785D01*
X139122699Y-101102798D01*
X139122698Y-101102781D01*
X139112199Y-101000003D01*
X139112198Y-101000000D01*
X139097471Y-100955556D01*
X139057014Y-100833466D01*
X138964912Y-100684144D01*
X138851519Y-100570751D01*
X138818034Y-100509428D01*
X138815200Y-100483070D01*
X138815200Y-100386547D01*
X138815012Y-100380800D01*
X138814117Y-100353466D01*
X138813056Y-100337281D01*
X138810348Y-100309782D01*
X138823364Y-100241141D01*
X138871427Y-100190430D01*
X138939278Y-100173753D01*
X139005373Y-100196407D01*
G37*
%TD.AperFunction*%
%TA.AperFunction,Conductor*%
G36*
X134525761Y-94527632D02*
G01*
X134525768Y-94527632D01*
X134527109Y-94527849D01*
X134590159Y-94557957D01*
X134626922Y-94617373D01*
X134625726Y-94687233D01*
X134586951Y-94745356D01*
X134573666Y-94755053D01*
X134497985Y-94802939D01*
X134446709Y-94835383D01*
X134440442Y-94840411D01*
X134375838Y-94867016D01*
X134362836Y-94867700D01*
X133682729Y-94867700D01*
X133682723Y-94867701D01*
X133623116Y-94874108D01*
X133488271Y-94924402D01*
X133488264Y-94924406D01*
X133373055Y-95010652D01*
X133314862Y-95088388D01*
X133258928Y-95130258D01*
X133189236Y-95135242D01*
X133127914Y-95101756D01*
X133116328Y-95088385D01*
X133105163Y-95073470D01*
X133099438Y-95065134D01*
X133064566Y-95009637D01*
X133052518Y-94984619D01*
X133039790Y-94948245D01*
X133033611Y-94921175D01*
X133029296Y-94882870D01*
X133029296Y-94855122D01*
X133033611Y-94816813D01*
X133039789Y-94789752D01*
X133052516Y-94753380D01*
X133064572Y-94728352D01*
X133066471Y-94725330D01*
X133077663Y-94706635D01*
X133082956Y-94697345D01*
X133093345Y-94678159D01*
X133140229Y-94542132D01*
X133153364Y-94473508D01*
X133154624Y-94446319D01*
X133177391Y-94380264D01*
X133232256Y-94337003D01*
X133298233Y-94329643D01*
X134525761Y-94527632D01*
G37*
%TD.AperFunction*%
%TA.AperFunction,Conductor*%
G36*
X129765782Y-86783446D02*
G01*
X129815093Y-86832945D01*
X129829814Y-86901246D01*
X129829675Y-86902971D01*
X129817919Y-87037343D01*
X129817919Y-87037346D01*
X129838506Y-87272660D01*
X129838508Y-87272671D01*
X129895711Y-87486156D01*
X130623064Y-87066218D01*
X130623064Y-87109755D01*
X130660546Y-87249642D01*
X130732957Y-87375060D01*
X130835361Y-87477464D01*
X130873063Y-87499231D01*
X130145711Y-87919168D01*
X130301993Y-88075450D01*
X130495497Y-88210945D01*
X130709583Y-88310774D01*
X130709592Y-88310778D01*
X130937749Y-88371912D01*
X130937760Y-88371914D01*
X131173073Y-88392501D01*
X131207365Y-88389501D01*
X131275865Y-88403266D01*
X131326049Y-88451880D01*
X131341984Y-88519908D01*
X131337950Y-88545121D01*
X131285045Y-88742572D01*
X131285042Y-88742585D01*
X131264447Y-88977988D01*
X131264447Y-88977989D01*
X131285042Y-89213392D01*
X131285044Y-89213402D01*
X131346200Y-89441644D01*
X131346202Y-89441648D01*
X131346203Y-89441652D01*
X131350840Y-89451596D01*
X131361331Y-89520673D01*
X131332810Y-89584457D01*
X131274333Y-89622696D01*
X131255277Y-89626853D01*
X131207224Y-89633432D01*
X131207220Y-89633433D01*
X131163652Y-89643483D01*
X131163648Y-89643484D01*
X131163645Y-89643485D01*
X131076701Y-89672042D01*
X131076692Y-89672046D01*
X130954105Y-89747342D01*
X130900373Y-89792015D01*
X130803957Y-89898805D01*
X130741529Y-90028436D01*
X130720481Y-90095062D01*
X130714127Y-90133651D01*
X130683812Y-90196601D01*
X130624275Y-90233168D01*
X130591775Y-90237503D01*
X130480794Y-90237503D01*
X130480794Y-90236133D01*
X130418409Y-90222765D01*
X130368850Y-90173513D01*
X130360230Y-90154050D01*
X130318938Y-90033898D01*
X130318936Y-90033893D01*
X130246926Y-89932302D01*
X130235734Y-89916512D01*
X130235733Y-89916511D01*
X130235731Y-89916508D01*
X130187630Y-89865840D01*
X130185477Y-89864028D01*
X130183716Y-89862749D01*
X130074723Y-89776651D01*
X130074721Y-89776650D01*
X129941271Y-89722888D01*
X129941267Y-89722886D01*
X129941265Y-89722886D01*
X129873401Y-89706266D01*
X129730204Y-89692277D01*
X129730201Y-89692277D01*
X129730200Y-89692277D01*
X129292730Y-89712161D01*
X129289831Y-89712301D01*
X129289079Y-89712340D01*
X129288747Y-89712357D01*
X129288676Y-89712360D01*
X129286454Y-89712478D01*
X129145394Y-89740809D01*
X129145383Y-89740812D01*
X129070022Y-89767555D01*
X129000259Y-89771424D01*
X128939480Y-89736962D01*
X128906980Y-89675111D01*
X128906115Y-89631080D01*
X128989056Y-89113462D01*
X128990187Y-89107384D01*
X128992173Y-89098015D01*
X129149779Y-88354493D01*
X129151198Y-88348540D01*
X129348213Y-87604581D01*
X129349946Y-87598641D01*
X129353547Y-87587357D01*
X129583889Y-86865463D01*
X129585904Y-86859655D01*
X129590048Y-86848608D01*
X129632026Y-86792755D01*
X129697537Y-86768463D01*
X129765782Y-86783446D01*
G37*
%TD.AperFunction*%
%TD*%
%TA.AperFunction,Conductor*%
%TO.N,GND*%
G36*
X146388495Y-103555053D02*
G01*
X145324044Y-103500929D01*
X145208571Y-103508317D01*
X145153071Y-103518336D01*
X145042305Y-103551788D01*
X144919702Y-103627093D01*
X144919699Y-103627095D01*
X144865981Y-103671756D01*
X144771542Y-103776353D01*
X144086875Y-103719769D01*
X144041093Y-103664423D01*
X143989350Y-103617471D01*
X143926168Y-103574791D01*
X143870123Y-103536932D01*
X143870119Y-103536930D01*
X143733047Y-103493251D01*
X143733039Y-103493249D01*
X143733036Y-103493248D01*
X143733032Y-103493247D01*
X143733031Y-103493247D01*
X143678776Y-103484173D01*
X143670944Y-103481879D01*
X143520283Y-103478429D01*
X143520282Y-103478429D01*
X143472607Y-103484173D01*
X142562672Y-103593802D01*
X141278285Y-103487655D01*
X140804601Y-103339629D01*
X140746485Y-103300844D01*
X140718562Y-103236796D01*
X140729700Y-103167820D01*
X140734700Y-103160749D01*
X140734700Y-103152799D01*
X141234700Y-103152799D01*
X141347172Y-103152799D01*
X141347186Y-103152798D01*
X141449897Y-103142305D01*
X141616319Y-103087158D01*
X141616324Y-103087156D01*
X141765545Y-102995115D01*
X141889515Y-102871145D01*
X141981556Y-102721924D01*
X141981558Y-102721919D01*
X142036705Y-102555497D01*
X142036706Y-102555490D01*
X142047199Y-102452786D01*
X142047200Y-102452773D01*
X142047200Y-102027800D01*
X141234700Y-102027800D01*
X141234700Y-103152799D01*
X140734700Y-103152799D01*
X140734700Y-101651800D01*
X140754385Y-101584761D01*
X140807189Y-101539006D01*
X140858700Y-101527800D01*
X142047199Y-101527800D01*
X142047199Y-101156100D01*
X142066884Y-101089061D01*
X142119688Y-101043306D01*
X142171199Y-101032100D01*
X144225406Y-101032100D01*
X144291379Y-101051107D01*
X144379675Y-101106588D01*
X144549945Y-101166168D01*
X144549950Y-101166169D01*
X144729196Y-101186365D01*
X144729200Y-101186365D01*
X144729204Y-101186365D01*
X144908449Y-101166169D01*
X144908452Y-101166168D01*
X144908455Y-101166168D01*
X145078722Y-101106589D01*
X145231462Y-101010616D01*
X145359016Y-100883062D01*
X145448229Y-100741079D01*
X146253200Y-100736400D01*
X146388495Y-103555053D01*
G37*
%TD.AperFunction*%
%TD*%
%TA.AperFunction,Conductor*%
%TO.N,GND1*%
G36*
X158259949Y-91693629D02*
G01*
X158304296Y-91722130D01*
X159632153Y-93049987D01*
X159651302Y-93054461D01*
X159699946Y-93104616D01*
X159713961Y-93170358D01*
X159703936Y-93325701D01*
X159703392Y-93331787D01*
X159617304Y-94085460D01*
X159616461Y-94091512D01*
X159493351Y-94840031D01*
X159492211Y-94846034D01*
X159332380Y-95587578D01*
X159330946Y-95593517D01*
X159134778Y-96326290D01*
X159133053Y-96332152D01*
X158901025Y-97054378D01*
X158899013Y-97060148D01*
X158642781Y-97740610D01*
X158631220Y-97763688D01*
X156848877Y-100552533D01*
X156840451Y-100564172D01*
X154825152Y-103032912D01*
X154796911Y-103058309D01*
X149774549Y-106339249D01*
X149739804Y-106354945D01*
X146181899Y-107339523D01*
X146164471Y-107343024D01*
X145827569Y-107385869D01*
X145821490Y-107386491D01*
X145559993Y-107406723D01*
X145491635Y-107392268D01*
X145441943Y-107343151D01*
X145426695Y-107274965D01*
X145450730Y-107209360D01*
X145465356Y-107195284D01*
X145465784Y-107190723D01*
X144416616Y-106141556D01*
X143367446Y-107190723D01*
X143393834Y-107208714D01*
X143438136Y-107262742D01*
X143446196Y-107332146D01*
X143415453Y-107394889D01*
X143355670Y-107431051D01*
X143315233Y-107434859D01*
X142773478Y-107396534D01*
X142767395Y-107395953D01*
X142397664Y-107351405D01*
X142355456Y-107338397D01*
X140756934Y-106510247D01*
X140728695Y-106490163D01*
X140146846Y-105938938D01*
X139987520Y-105787998D01*
X142661709Y-105787998D01*
X142661709Y-105788007D01*
X142681308Y-106049548D01*
X142681309Y-106049553D01*
X142739674Y-106305273D01*
X142835499Y-106549429D01*
X142835498Y-106549429D01*
X142966643Y-106776576D01*
X143014490Y-106836574D01*
X144063063Y-105788003D01*
X144063063Y-105788002D01*
X144770169Y-105788002D01*
X144770169Y-105788003D01*
X145818741Y-106836575D01*
X145866587Y-106776576D01*
X145997732Y-106549429D01*
X146093557Y-106305273D01*
X146151922Y-106049553D01*
X146151923Y-106049548D01*
X146171523Y-105788007D01*
X146171523Y-105787998D01*
X146151923Y-105526457D01*
X146151922Y-105526452D01*
X146093557Y-105270732D01*
X145997732Y-105026576D01*
X145997733Y-105026576D01*
X145866588Y-104799429D01*
X145818740Y-104739430D01*
X144770169Y-105788002D01*
X144063063Y-105788002D01*
X143014490Y-104739430D01*
X142966644Y-104799428D01*
X142835499Y-105026576D01*
X142739674Y-105270732D01*
X142681309Y-105526452D01*
X142681308Y-105526457D01*
X142661709Y-105787998D01*
X139987520Y-105787998D01*
X139788784Y-105599722D01*
X139767369Y-105572885D01*
X138633200Y-103657400D01*
X138626654Y-103652137D01*
X138279984Y-103373441D01*
X138240068Y-103316096D01*
X138237493Y-103246274D01*
X138273075Y-103186143D01*
X138335518Y-103154795D01*
X138357677Y-103152799D01*
X138422172Y-103152799D01*
X138422186Y-103152798D01*
X138524897Y-103142305D01*
X138691319Y-103087158D01*
X138691324Y-103087156D01*
X138840545Y-102995115D01*
X138964515Y-102871145D01*
X139056556Y-102721924D01*
X139056558Y-102721919D01*
X139111705Y-102555497D01*
X139111706Y-102555490D01*
X139122199Y-102452786D01*
X139122199Y-102441888D01*
X139141879Y-102374847D01*
X139194680Y-102329088D01*
X139263837Y-102319140D01*
X139327395Y-102348160D01*
X139337227Y-102357678D01*
X139913296Y-102980455D01*
X139937103Y-103017871D01*
X140207999Y-103682799D01*
X140208000Y-103682800D01*
X141833600Y-104190800D01*
X143580748Y-103980300D01*
X143649659Y-103991824D01*
X143701402Y-104038776D01*
X143719546Y-104106249D01*
X143698332Y-104172820D01*
X143649381Y-104215130D01*
X143539163Y-104268208D01*
X143539155Y-104268213D01*
X143367446Y-104385280D01*
X144416616Y-105434450D01*
X144416617Y-105434450D01*
X145465784Y-104385281D01*
X145294070Y-104268209D01*
X145294066Y-104268207D01*
X145238272Y-104241338D01*
X145186413Y-104194515D01*
X145168100Y-104127088D01*
X145189148Y-104060464D01*
X145242874Y-104015796D01*
X145298370Y-104005778D01*
X146939000Y-104089200D01*
X152933400Y-99415600D01*
X154381200Y-96520000D01*
X155883252Y-93390723D01*
X157167446Y-93390723D01*
X157339162Y-93507796D01*
X157339166Y-93507798D01*
X157575470Y-93621597D01*
X157575474Y-93621598D01*
X157826110Y-93698910D01*
X157826116Y-93698912D01*
X158085464Y-93738002D01*
X158085473Y-93738003D01*
X158347759Y-93738003D01*
X158347767Y-93738002D01*
X158607115Y-93698912D01*
X158607121Y-93698910D01*
X158857759Y-93621598D01*
X159094061Y-93507801D01*
X159094063Y-93507800D01*
X159265784Y-93390723D01*
X158216616Y-92341556D01*
X157167446Y-93390723D01*
X155883252Y-93390723D01*
X156187072Y-92757765D01*
X156232859Y-92231215D01*
X156258276Y-92166136D01*
X156314845Y-92125127D01*
X156384605Y-92121212D01*
X156445408Y-92155634D01*
X156477948Y-92217463D01*
X156480045Y-92232691D01*
X156481308Y-92249550D01*
X156481309Y-92249553D01*
X156539674Y-92505273D01*
X156635499Y-92749429D01*
X156635498Y-92749429D01*
X156766643Y-92976576D01*
X156814490Y-93036574D01*
X158128934Y-91722130D01*
X158190257Y-91688645D01*
X158259949Y-91693629D01*
G37*
%TD.AperFunction*%
%TA.AperFunction,Conductor*%
G36*
X131486582Y-90122827D02*
G01*
X132943600Y-90449400D01*
X133570727Y-90407591D01*
X133638925Y-90422772D01*
X133688091Y-90472416D01*
X133702949Y-90533747D01*
X133698827Y-90743959D01*
X133677832Y-90810600D01*
X133624141Y-90855311D01*
X133561594Y-90864817D01*
X133524242Y-90860800D01*
X133346400Y-90860800D01*
X133346400Y-91496800D01*
X133326715Y-91563839D01*
X133273911Y-91609594D01*
X133222400Y-91620800D01*
X133210400Y-91620800D01*
X133143361Y-91601115D01*
X133097606Y-91548311D01*
X133086400Y-91496800D01*
X133086400Y-90860800D01*
X132908555Y-90860800D01*
X132849027Y-90867201D01*
X132849020Y-90867203D01*
X132714313Y-90917445D01*
X132714306Y-90917449D01*
X132599212Y-91003609D01*
X132599209Y-91003612D01*
X132513049Y-91118706D01*
X132513045Y-91118713D01*
X132462803Y-91253420D01*
X132462801Y-91253425D01*
X132462105Y-91259905D01*
X132435364Y-91324455D01*
X132377969Y-91364300D01*
X132308144Y-91366791D01*
X132248057Y-91331135D01*
X132223387Y-91291946D01*
X132197729Y-91226570D01*
X132066588Y-90999429D01*
X132018740Y-90939430D01*
X130970169Y-91988002D01*
X130970169Y-91988003D01*
X132018741Y-93036575D01*
X132066587Y-92976576D01*
X132197732Y-92749429D01*
X132293557Y-92505273D01*
X132351922Y-92249553D01*
X132351923Y-92249548D01*
X132368208Y-92032236D01*
X132392847Y-91966855D01*
X132448922Y-91925174D01*
X132518630Y-91920426D01*
X132579840Y-91954119D01*
X132591127Y-91967190D01*
X132599212Y-91977990D01*
X132714306Y-92064150D01*
X132714315Y-92064155D01*
X132759876Y-92081148D01*
X132815810Y-92123018D01*
X132840228Y-92188483D01*
X132825377Y-92256756D01*
X132798356Y-92290511D01*
X132638800Y-92430598D01*
X132638799Y-92430600D01*
X132613399Y-93929187D01*
X132613400Y-93929208D01*
X132656877Y-94378478D01*
X132643742Y-94447102D01*
X132638449Y-94456392D01*
X132598809Y-94519480D01*
X132539233Y-94689737D01*
X132539230Y-94689750D01*
X132519035Y-94868996D01*
X132519035Y-94869003D01*
X132539230Y-95048249D01*
X132539231Y-95048254D01*
X132598811Y-95218523D01*
X132694784Y-95371262D01*
X132727729Y-95404207D01*
X132761214Y-95465530D01*
X132763471Y-95479944D01*
X132841999Y-96291398D01*
X133629400Y-98272600D01*
X134797797Y-98882199D01*
X134797800Y-98882200D01*
X135890000Y-98882200D01*
X136702800Y-98348800D01*
X136726809Y-97871134D01*
X136749833Y-97805173D01*
X136804868Y-97762126D01*
X136874438Y-97755667D01*
X136936457Y-97787845D01*
X136938333Y-97789683D01*
X136981322Y-97832672D01*
X137126804Y-97920619D01*
X137126803Y-97920619D01*
X137289094Y-97971190D01*
X137289093Y-97971190D01*
X137359608Y-97977598D01*
X137359626Y-97977599D01*
X137366199Y-97977598D01*
X137366200Y-97977598D01*
X137366200Y-96876600D01*
X137385885Y-96809561D01*
X137438689Y-96763806D01*
X137490200Y-96752600D01*
X137742200Y-96752600D01*
X137809239Y-96772285D01*
X137854994Y-96825089D01*
X137866200Y-96876600D01*
X137866200Y-97977599D01*
X137872781Y-97977599D01*
X137943302Y-97971191D01*
X137943307Y-97971190D01*
X138105596Y-97920618D01*
X138251077Y-97832672D01*
X138371271Y-97712478D01*
X138371274Y-97712474D01*
X138418083Y-97635043D01*
X138469610Y-97587855D01*
X138538469Y-97576016D01*
X138602798Y-97603284D01*
X138642173Y-97661003D01*
X138648068Y-97704909D01*
X138608212Y-98568472D01*
X138606113Y-98586172D01*
X138520674Y-99030448D01*
X138499225Y-99079913D01*
X138455223Y-99140480D01*
X138372003Y-99303815D01*
X138372002Y-99303817D01*
X138315365Y-99478145D01*
X138315364Y-99478152D01*
X138286696Y-99659203D01*
X138286700Y-99741062D01*
X138286700Y-100163110D01*
X138286711Y-100163277D01*
X138286711Y-100203780D01*
X138308639Y-100370348D01*
X138309700Y-100386533D01*
X138309700Y-101903800D01*
X138290015Y-101970839D01*
X138237211Y-102016594D01*
X138185700Y-102027800D01*
X136997201Y-102027800D01*
X136997201Y-102287089D01*
X136977516Y-102354128D01*
X136924712Y-102399883D01*
X136855554Y-102409827D01*
X136825320Y-102401472D01*
X136245600Y-102158800D01*
X136176970Y-102158011D01*
X136110161Y-102137557D01*
X136102162Y-102131815D01*
X136060829Y-102099582D01*
X136045641Y-102085551D01*
X136036445Y-102075509D01*
X136036444Y-102075508D01*
X136005850Y-102056003D01*
X135996255Y-102049226D01*
X135967650Y-102026918D01*
X135967644Y-102026915D01*
X135955111Y-102021608D01*
X135936805Y-102011983D01*
X135925322Y-102004663D01*
X135890714Y-101993738D01*
X135879693Y-101989676D01*
X135846292Y-101975533D01*
X135832807Y-101973650D01*
X135812642Y-101969093D01*
X135799649Y-101964992D01*
X135763392Y-101963397D01*
X135751700Y-101962326D01*
X135715773Y-101957310D01*
X135702259Y-101958982D01*
X135681595Y-101959799D01*
X135667995Y-101959201D01*
X135667985Y-101959201D01*
X135632560Y-101967042D01*
X135620993Y-101969034D01*
X135584985Y-101973489D01*
X135584976Y-101973491D01*
X135572355Y-101978603D01*
X135552619Y-101984738D01*
X135539323Y-101987681D01*
X135507130Y-102004426D01*
X135496471Y-102009343D01*
X135462844Y-102022965D01*
X135462837Y-102022969D01*
X135451971Y-102031172D01*
X135434493Y-102042207D01*
X135422412Y-102048491D01*
X135422405Y-102048496D01*
X135395640Y-102073004D01*
X135386621Y-102080510D01*
X135357665Y-102102372D01*
X135351874Y-102108074D01*
X135350319Y-102106494D01*
X135302949Y-102140505D01*
X135260512Y-102147476D01*
X134051245Y-102133577D01*
X134020872Y-102129439D01*
X132830700Y-101813679D01*
X132770950Y-101777461D01*
X132765670Y-101771287D01*
X132230891Y-101102813D01*
X136997200Y-101102813D01*
X136997200Y-101527800D01*
X137809700Y-101527800D01*
X137809700Y-100402800D01*
X137697227Y-100402800D01*
X137697212Y-100402801D01*
X137594502Y-100413294D01*
X137428080Y-100468441D01*
X137428075Y-100468443D01*
X137278854Y-100560484D01*
X137154884Y-100684454D01*
X137062843Y-100833675D01*
X137062841Y-100833680D01*
X137007694Y-101000102D01*
X137007693Y-101000109D01*
X136997200Y-101102813D01*
X132230891Y-101102813D01*
X131168696Y-99775070D01*
X131162817Y-99767086D01*
X130203388Y-98348800D01*
X130013583Y-98068219D01*
X129993363Y-98015012D01*
X129768600Y-96316800D01*
X129184842Y-93626438D01*
X129184026Y-93622345D01*
X129141913Y-93390723D01*
X129567446Y-93390723D01*
X129739162Y-93507796D01*
X129739166Y-93507798D01*
X129975470Y-93621597D01*
X129975474Y-93621598D01*
X130226110Y-93698910D01*
X130226116Y-93698912D01*
X130485464Y-93738002D01*
X130485473Y-93738003D01*
X130747759Y-93738003D01*
X130747767Y-93738002D01*
X131007115Y-93698912D01*
X131007121Y-93698910D01*
X131257759Y-93621598D01*
X131494061Y-93507801D01*
X131494063Y-93507800D01*
X131665784Y-93390723D01*
X130616616Y-92341556D01*
X129567446Y-93390723D01*
X129141913Y-93390723D01*
X129104256Y-93183609D01*
X129111631Y-93114132D01*
X129155398Y-93059670D01*
X129209475Y-93041589D01*
X130263063Y-91988003D01*
X130263063Y-91988002D01*
X129214490Y-90939430D01*
X129214489Y-90939430D01*
X129214219Y-90939769D01*
X129157030Y-90979909D01*
X129087219Y-90982759D01*
X129026949Y-90947413D01*
X128995356Y-90885094D01*
X129001797Y-90817272D01*
X129205842Y-90295825D01*
X129248601Y-90240570D01*
X129314448Y-90217203D01*
X129315548Y-90217147D01*
X129753157Y-90197256D01*
X129821021Y-90213876D01*
X129869126Y-90264548D01*
X129882200Y-90333184D01*
X129856090Y-90397992D01*
X129812590Y-90432848D01*
X129739158Y-90468211D01*
X129739155Y-90468213D01*
X129567446Y-90585280D01*
X130616616Y-91634450D01*
X130616617Y-91634450D01*
X131665784Y-90585281D01*
X131494070Y-90468209D01*
X131494062Y-90468204D01*
X131272673Y-90361590D01*
X131220813Y-90314768D01*
X131202500Y-90247341D01*
X131223548Y-90180717D01*
X131277274Y-90136048D01*
X131320842Y-90125998D01*
X131453832Y-90119953D01*
X131486582Y-90122827D01*
G37*
%TD.AperFunction*%
%TD*%
%TA.AperFunction,Conductor*%
%TO.N,+3V3*%
G36*
X137376762Y-90850085D02*
G01*
X137422517Y-90902889D01*
X137433599Y-90959947D01*
X137393921Y-91846106D01*
X137363200Y-92532200D01*
X137356535Y-92702160D01*
X137334238Y-92768377D01*
X137279682Y-92812027D01*
X137210187Y-92819253D01*
X137147817Y-92787760D01*
X137116448Y-92740634D01*
X137111554Y-92727513D01*
X137111550Y-92727506D01*
X137025390Y-92612412D01*
X137025387Y-92612409D01*
X136910293Y-92526249D01*
X136910286Y-92526245D01*
X136775579Y-92476003D01*
X136775572Y-92476001D01*
X136716044Y-92469600D01*
X136343200Y-92469600D01*
X136343200Y-93445600D01*
X136323515Y-93512639D01*
X136270711Y-93558394D01*
X136219200Y-93569600D01*
X135967200Y-93569600D01*
X135900161Y-93549915D01*
X135854406Y-93497111D01*
X135843200Y-93445600D01*
X135843200Y-92469600D01*
X135574600Y-92469600D01*
X135507561Y-92449915D01*
X135461806Y-92397111D01*
X135450600Y-92345600D01*
X135450600Y-92040372D01*
X135450599Y-92040355D01*
X135444198Y-91980827D01*
X135444196Y-91980820D01*
X135393954Y-91846113D01*
X135393950Y-91846106D01*
X135307790Y-91731012D01*
X135307787Y-91731009D01*
X135192693Y-91644849D01*
X135090993Y-91606917D01*
X135049516Y-91620721D01*
X135045093Y-91620800D01*
X134590600Y-91620800D01*
X134590600Y-93498200D01*
X134894200Y-93498200D01*
X134961239Y-93517885D01*
X135006994Y-93570689D01*
X135018200Y-93622200D01*
X135018200Y-93717444D01*
X135024601Y-93776972D01*
X135024603Y-93776979D01*
X135049312Y-93843227D01*
X135054296Y-93912918D01*
X135020811Y-93974241D01*
X134959488Y-94007726D01*
X134941029Y-94010308D01*
X134633897Y-94029912D01*
X134606253Y-94028582D01*
X133227402Y-93806187D01*
X133164353Y-93776079D01*
X133127589Y-93716663D01*
X133123166Y-93681674D01*
X133127974Y-93397955D01*
X133148792Y-93331262D01*
X133202364Y-93286409D01*
X133271681Y-93277639D01*
X133334735Y-93307737D01*
X133351222Y-93325749D01*
X133373409Y-93355387D01*
X133373412Y-93355390D01*
X133488506Y-93441550D01*
X133488513Y-93441554D01*
X133623220Y-93491796D01*
X133623227Y-93491798D01*
X133682755Y-93498199D01*
X133682772Y-93498200D01*
X134090600Y-93498200D01*
X134090600Y-92018906D01*
X134102566Y-91971145D01*
X134100632Y-91970344D01*
X134128778Y-91902391D01*
X134131516Y-91896258D01*
X134150753Y-91856156D01*
X134150881Y-91855737D01*
X134156671Y-91840523D01*
X134164771Y-91822828D01*
X134164771Y-91822827D01*
X134164774Y-91822821D01*
X134165735Y-91818963D01*
X134171960Y-91800394D01*
X134173223Y-91797430D01*
X134173225Y-91797421D01*
X134174966Y-91791989D01*
X134178316Y-91782851D01*
X134178379Y-91782643D01*
X134178383Y-91782635D01*
X134186388Y-91742385D01*
X134189478Y-91730150D01*
X134194654Y-91713309D01*
X134194655Y-91713307D01*
X134197663Y-91693275D01*
X134199974Y-91681686D01*
X134209645Y-91642913D01*
X134209890Y-91638810D01*
X134212597Y-91619403D01*
X134213265Y-91616386D01*
X134213289Y-91615632D01*
X134215608Y-91595490D01*
X134216831Y-91589344D01*
X134216832Y-91589341D01*
X134216832Y-91570406D01*
X134216852Y-91569845D01*
X134216850Y-91565529D01*
X134216852Y-91565522D01*
X134216842Y-91532407D01*
X134236507Y-91465365D01*
X134253158Y-91444696D01*
X134300737Y-91397118D01*
X134362060Y-91363634D01*
X134388417Y-91360800D01*
X135056398Y-91360800D01*
X135056400Y-91360798D01*
X135056400Y-91312972D01*
X135056399Y-91312955D01*
X135049998Y-91253427D01*
X135049996Y-91253420D01*
X135014718Y-91158834D01*
X135009734Y-91089143D01*
X135043219Y-91027820D01*
X135104542Y-90994335D01*
X135118292Y-90992144D01*
X135208308Y-90982949D01*
X135369297Y-90929603D01*
X135447715Y-90881233D01*
X135510171Y-90862800D01*
X135700150Y-90858758D01*
X135767592Y-90877012D01*
X135767884Y-90877192D01*
X135852107Y-90929142D01*
X135852118Y-90929147D01*
X136012993Y-90982455D01*
X136112283Y-90992599D01*
X136135600Y-90992598D01*
X136135600Y-90849493D01*
X136635600Y-90838855D01*
X136635600Y-90992599D01*
X136658908Y-90992599D01*
X136658922Y-90992598D01*
X136758207Y-90982455D01*
X136919081Y-90929147D01*
X136919092Y-90929142D01*
X137049246Y-90848862D01*
X137114343Y-90830400D01*
X137309723Y-90830400D01*
X137376762Y-90850085D01*
G37*
%TD.AperFunction*%
%TD*%
M02*
