%TF.GenerationSoftware,KiCad,Pcbnew,8.0.3*%
%TF.CreationDate,2025-07-02T10:16:16+03:00*%
%TF.ProjectId,LeafSensorPico,4c656166-5365-46e7-936f-725069636f2e,rev?*%
%TF.SameCoordinates,Original*%
%TF.FileFunction,Copper,L1,Top*%
%TF.FilePolarity,Positive*%
%FSLAX46Y46*%
G04 Gerber Fmt 4.6, Leading zero omitted, Abs format (unit mm)*
G04 Created by KiCad (PCBNEW 8.0.3) date 2025-07-02 10:16:16*
%MOMM*%
%LPD*%
G01*
G04 APERTURE LIST*
G04 Aperture macros list*
%AMRoundRect*
0 Rectangle with rounded corners*
0 $1 Rounding radius*
0 $2 $3 $4 $5 $6 $7 $8 $9 X,Y pos of 4 corners*
0 Add a 4 corners polygon primitive as box body*
4,1,4,$2,$3,$4,$5,$6,$7,$8,$9,$2,$3,0*
0 Add four circle primitives for the rounded corners*
1,1,$1+$1,$2,$3*
1,1,$1+$1,$4,$5*
1,1,$1+$1,$6,$7*
1,1,$1+$1,$8,$9*
0 Add four rect primitives between the rounded corners*
20,1,$1+$1,$2,$3,$4,$5,0*
20,1,$1+$1,$4,$5,$6,$7,0*
20,1,$1+$1,$6,$7,$8,$9,0*
20,1,$1+$1,$8,$9,$2,$3,0*%
%AMRotRect*
0 Rectangle, with rotation*
0 The origin of the aperture is its center*
0 $1 length*
0 $2 width*
0 $3 Rotation angle, in degrees counterclockwise*
0 Add horizontal line*
21,1,$1,$2,0,0,$3*%
%AMFreePoly0*
4,1,6,0.725000,-0.725000,-0.725000,-0.725000,-0.725000,0.125000,-0.125000,0.725000,0.725000,0.725000,0.725000,-0.725000,0.725000,-0.725000,$1*%
G04 Aperture macros list end*
%TA.AperFunction,SMDPad,CuDef*%
%ADD10R,1.500000X3.000000*%
%TD*%
%TA.AperFunction,SMDPad,CuDef*%
%ADD11RoundRect,0.135000X-0.135000X-0.185000X0.135000X-0.185000X0.135000X0.185000X-0.135000X0.185000X0*%
%TD*%
%TA.AperFunction,ComponentPad*%
%ADD12C,1.700000*%
%TD*%
%TA.AperFunction,SMDPad,CuDef*%
%ADD13RoundRect,0.135000X0.185000X-0.135000X0.185000X0.135000X-0.185000X0.135000X-0.185000X-0.135000X0*%
%TD*%
%TA.AperFunction,SMDPad,CuDef*%
%ADD14RoundRect,0.225000X0.225000X0.250000X-0.225000X0.250000X-0.225000X-0.250000X0.225000X-0.250000X0*%
%TD*%
%TA.AperFunction,SMDPad,CuDef*%
%ADD15RoundRect,0.225000X-0.250000X0.225000X-0.250000X-0.225000X0.250000X-0.225000X0.250000X0.225000X0*%
%TD*%
%TA.AperFunction,SMDPad,CuDef*%
%ADD16RoundRect,0.140000X-0.170000X0.140000X-0.170000X-0.140000X0.170000X-0.140000X0.170000X0.140000X0*%
%TD*%
%TA.AperFunction,SMDPad,CuDef*%
%ADD17RoundRect,0.140000X0.140000X0.170000X-0.140000X0.170000X-0.140000X-0.170000X0.140000X-0.170000X0*%
%TD*%
%TA.AperFunction,SMDPad,CuDef*%
%ADD18RoundRect,0.135000X-0.226274X-0.035355X-0.035355X-0.226274X0.226274X0.035355X0.035355X0.226274X0*%
%TD*%
%TA.AperFunction,SMDPad,CuDef*%
%ADD19R,0.500000X1.000000*%
%TD*%
%TA.AperFunction,SMDPad,CuDef*%
%ADD20R,0.900000X1.600000*%
%TD*%
%TA.AperFunction,SMDPad,CuDef*%
%ADD21R,1.510000X2.380000*%
%TD*%
%TA.AperFunction,SMDPad,CuDef*%
%ADD22RotRect,0.800000X0.700000X315.000000*%
%TD*%
%TA.AperFunction,SMDPad,CuDef*%
%ADD23R,0.800000X0.400000*%
%TD*%
%TA.AperFunction,SMDPad,CuDef*%
%ADD24R,0.400000X0.800000*%
%TD*%
%TA.AperFunction,SMDPad,CuDef*%
%ADD25FreePoly0,0.000000*%
%TD*%
%TA.AperFunction,SMDPad,CuDef*%
%ADD26R,1.450000X1.450000*%
%TD*%
%TA.AperFunction,SMDPad,CuDef*%
%ADD27R,0.700000X0.700000*%
%TD*%
%TA.AperFunction,SMDPad,CuDef*%
%ADD28R,0.740000X2.400000*%
%TD*%
%TA.AperFunction,ComponentPad*%
%ADD29C,1.200000*%
%TD*%
%TA.AperFunction,ViaPad*%
%ADD30C,0.600000*%
%TD*%
%TA.AperFunction,Conductor*%
%ADD31C,0.200000*%
%TD*%
%TA.AperFunction,Conductor*%
%ADD32C,0.400000*%
%TD*%
%TA.AperFunction,Conductor*%
%ADD33C,0.500000*%
%TD*%
G04 APERTURE END LIST*
D10*
%TO.P,P2,1,pad*%
%TO.N,/SDA*%
X153314400Y-98729800D03*
%TD*%
%TO.P,P1,1,pad*%
%TO.N,/SCL*%
X150465600Y-98790600D03*
%TD*%
D11*
%TO.P,R7,1*%
%TO.N,+3V3*%
X135708200Y-84328000D03*
%TO.P,R7,2*%
%TO.N,/GPIO2_strap*%
X136728200Y-84328000D03*
%TD*%
D12*
%TO.P,SW1,1,1*%
%TO.N,/GPIO4*%
X132620106Y-88977989D03*
%TO.P,SW1,2,2*%
%TO.N,GND*%
X133396563Y-86080212D03*
%TO.P,SW1,3,3*%
X131173076Y-87037345D03*
%TD*%
D13*
%TO.P,R4,1*%
%TO.N,+3V3*%
X145262600Y-92102400D03*
%TO.P,R4,2*%
%TO.N,/SDA*%
X145262600Y-91082400D03*
%TD*%
%TO.P,R6,1*%
%TO.N,+3V3*%
X148234400Y-92127800D03*
%TO.P,R6,2*%
%TO.N,/GPIO8_strap*%
X148234400Y-91107800D03*
%TD*%
%TO.P,R8,1*%
%TO.N,+3V3*%
X149428200Y-92102400D03*
%TO.P,R8,2*%
%TO.N,/GPIO9_strap*%
X149428200Y-91082400D03*
%TD*%
D14*
%TO.P,C5,1*%
%TO.N,+3V3*%
X136550400Y-82753200D03*
%TO.P,C5,2*%
%TO.N,GND*%
X135000400Y-82753200D03*
%TD*%
D15*
%TO.P,C8,2*%
%TO.N,GND*%
X140563600Y-98832000D03*
%TO.P,C8,1*%
%TO.N,+3V3*%
X140563600Y-97282000D03*
%TD*%
D16*
%TO.P,C1,1*%
%TO.N,Net-(U3-GPIO0{slash}ADC1_CH0{slash}XTAL_32K_P)*%
X139395200Y-91165800D03*
%TO.P,C1,2*%
%TO.N,GND*%
X139395200Y-92125800D03*
%TD*%
D17*
%TO.P,C4,1*%
%TO.N,+3V3*%
X136344600Y-81330800D03*
%TO.P,C4,2*%
%TO.N,GND*%
X135384600Y-81330800D03*
%TD*%
D13*
%TO.P,R5,1*%
%TO.N,+3V3*%
X146710400Y-92127800D03*
%TO.P,R5,2*%
%TO.N,/SCL*%
X146710400Y-91107800D03*
%TD*%
D18*
%TO.P,R9,1*%
%TO.N,/GPIO3*%
X151958152Y-80457152D03*
%TO.P,R9,2*%
%TO.N,Net-(LED1-A)*%
X152679400Y-81178400D03*
%TD*%
D19*
%TO.P,CN3,1,1*%
%TO.N,GND*%
X143397200Y-98006500D03*
%TO.P,CN3,2,2*%
%TO.N,+3V3*%
X144197200Y-98006500D03*
%TO.P,CN3,3,3*%
%TO.N,/SDA*%
X144997200Y-98006500D03*
%TO.P,CN3,4,4*%
%TO.N,/SCL*%
X145797200Y-98006500D03*
D20*
%TO.P,CN3,5,5*%
%TO.N,unconnected-(CN3-Pad5)*%
X147047200Y-99926500D03*
%TO.P,CN3,6,6*%
%TO.N,unconnected-(CN3-Pad6)*%
X142147200Y-99926500D03*
%TD*%
D15*
%TO.P,C3,1*%
%TO.N,/~{ESP_RESET}*%
X136652000Y-86931200D03*
%TO.P,C3,2*%
%TO.N,GND*%
X136652000Y-88481200D03*
%TD*%
D11*
%TO.P,R2,1*%
%TO.N,+3V3*%
X135839200Y-85623400D03*
%TO.P,R2,2*%
%TO.N,/~{ESP_RESET}*%
X136859200Y-85623400D03*
%TD*%
D13*
%TO.P,R11,1*%
%TO.N,+3V3*%
X142773400Y-92129800D03*
%TO.P,R11,2*%
%TO.N,/ALRT*%
X142773400Y-91109800D03*
%TD*%
%TO.P,R3,1*%
%TO.N,+3V3*%
X143891000Y-92127800D03*
%TO.P,R3,2*%
%TO.N,/GPIO4*%
X143891000Y-91107800D03*
%TD*%
D16*
%TO.P,C2,1*%
%TO.N,Net-(U3-GPIO1{slash}ADC1_CH1{slash}XTAL_32K_N)*%
X140563600Y-91140400D03*
%TO.P,C2,2*%
%TO.N,GND*%
X140563600Y-92100400D03*
%TD*%
D21*
%TO.P,C9,1*%
%TO.N,+3V3*%
X136048200Y-94869000D03*
%TO.P,C9,2*%
%TO.N,GND*%
X132328200Y-94869000D03*
%TD*%
D22*
%TO.P,LED1,1,K*%
%TO.N,GND*%
X152600408Y-79397608D03*
%TO.P,LED1,2,A*%
%TO.N,Net-(LED1-A)*%
X153873200Y-80670400D03*
%TD*%
D23*
%TO.P,U3,1,GND*%
%TO.N,GND*%
X138467200Y-80706000D03*
%TO.P,U3,2,GND*%
X138467200Y-81506000D03*
%TO.P,U3,3,3V3*%
%TO.N,+3V3*%
X138467200Y-82306000D03*
%TO.P,U3,4,NC*%
%TO.N,unconnected-(U3-NC-Pad4)*%
X138467200Y-83106000D03*
%TO.P,U3,5,GPIO2/ADC1_CH2*%
%TO.N,/GPIO2_strap*%
X138467200Y-83906000D03*
%TO.P,U3,6,GPIO3/ADC1_CH3*%
%TO.N,/GPIO3*%
X138467200Y-84706000D03*
%TO.P,U3,7,NC*%
%TO.N,unconnected-(U3-NC-Pad7)*%
X138467200Y-85506000D03*
%TO.P,U3,8,EN/CHIP_PU*%
%TO.N,/~{ESP_RESET}*%
X138467200Y-86306000D03*
%TO.P,U3,9,NC*%
%TO.N,unconnected-(U3-NC-Pad9)*%
X138467200Y-87106000D03*
%TO.P,U3,10,NC*%
%TO.N,unconnected-(U3-NC-Pad10)*%
X138467200Y-87906000D03*
%TO.P,U3,11,GND*%
%TO.N,GND*%
X138467200Y-88706000D03*
D24*
%TO.P,U3,12,GPIO0/ADC1_CH0/XTAL_32K_P*%
%TO.N,Net-(U3-GPIO0{slash}ADC1_CH0{slash}XTAL_32K_P)*%
X139567200Y-89606000D03*
%TO.P,U3,13,GPIO1/ADC1_CH1/XTAL_32K_N*%
%TO.N,Net-(U3-GPIO1{slash}ADC1_CH1{slash}XTAL_32K_N)*%
X140367200Y-89606000D03*
%TO.P,U3,14,GND*%
%TO.N,GND*%
X141167200Y-89606000D03*
%TO.P,U3,15,NC*%
%TO.N,unconnected-(U3-NC-Pad15)*%
X141967200Y-89606000D03*
%TO.P,U3,16,GPIO10*%
%TO.N,/ALRT*%
X142767200Y-89606000D03*
%TO.P,U3,17,NC*%
%TO.N,unconnected-(U3-NC-Pad17)*%
X143567200Y-89606000D03*
%TO.P,U3,18,GPIO4/ADC1_CH4*%
%TO.N,/GPIO4*%
X144367200Y-89606000D03*
%TO.P,U3,19,GPIO5/ADC2_CH0*%
%TO.N,unconnected-(U3-GPIO5{slash}ADC2_CH0-Pad19)*%
X145167200Y-89606000D03*
%TO.P,U3,20,GPIO6*%
%TO.N,/SDA*%
X145967200Y-89606000D03*
%TO.P,U3,21,GPIO7*%
%TO.N,/SCL*%
X146767200Y-89606000D03*
%TO.P,U3,22,GPIO8*%
%TO.N,/GPIO8_strap*%
X147567200Y-89606000D03*
%TO.P,U3,23,GPIO9*%
%TO.N,/GPIO9_strap*%
X148367200Y-89606000D03*
%TO.P,U3,24,NC*%
%TO.N,unconnected-(U3-NC-Pad24)*%
X149167200Y-89606000D03*
D23*
%TO.P,U3,25,NC*%
%TO.N,unconnected-(U3-NC-Pad25)*%
X150267200Y-88706000D03*
%TO.P,U3,26,GPIO18/USB_D-*%
%TO.N,unconnected-(U3-GPIO18{slash}USB_D--Pad26)*%
X150267200Y-87906000D03*
%TO.P,U3,27,GPIO19/USB_D+*%
%TO.N,unconnected-(U3-GPIO19{slash}USB_D+-Pad27)*%
X150267200Y-87106000D03*
%TO.P,U3,28,NC*%
%TO.N,unconnected-(U3-NC-Pad28)*%
X150267200Y-86306000D03*
%TO.P,U3,29,NC*%
%TO.N,unconnected-(U3-NC-Pad29)*%
X150267200Y-85506000D03*
%TO.P,U3,30,GPIO20/U0RXD*%
%TO.N,/ESP_RXD*%
X150267200Y-84706000D03*
%TO.P,U3,31,GPIO21/U0TXD*%
%TO.N,/ESP_TXD*%
X150267200Y-83906000D03*
%TO.P,U3,32,NC*%
%TO.N,unconnected-(U3-NC-Pad32)*%
X150267200Y-83106000D03*
%TO.P,U3,33,NC*%
%TO.N,unconnected-(U3-NC-Pad33)*%
X150267200Y-82306000D03*
%TO.P,U3,34,NC*%
%TO.N,unconnected-(U3-NC-Pad34)*%
X150267200Y-81506000D03*
%TO.P,U3,35,NC*%
%TO.N,unconnected-(U3-NC-Pad35)*%
X150267200Y-80706000D03*
D24*
%TO.P,U3,36,GND*%
%TO.N,GND*%
X149167200Y-79806000D03*
%TO.P,U3,37,GND*%
X148367200Y-79806000D03*
%TO.P,U3,38,GND*%
X147567200Y-79806000D03*
%TO.P,U3,39,GND*%
X146767200Y-79806000D03*
%TO.P,U3,40,GND*%
X145967200Y-79806000D03*
%TO.P,U3,41,GND*%
X145167200Y-79806000D03*
%TO.P,U3,42,GND*%
X144367200Y-79806000D03*
%TO.P,U3,43,GND*%
X143567200Y-79806000D03*
%TO.P,U3,44,GND*%
X142767200Y-79806000D03*
%TO.P,U3,45,GND*%
X141967200Y-79806000D03*
%TO.P,U3,46,GND*%
X141167200Y-79806000D03*
%TO.P,U3,47,GND*%
X140367200Y-79806000D03*
%TO.P,U3,48,GND*%
X139567200Y-79806000D03*
D25*
%TO.P,U3,49,GND*%
X142392200Y-82731000D03*
D26*
X142392200Y-84706000D03*
X142392200Y-86681000D03*
X144367200Y-82731000D03*
X144367200Y-84706000D03*
X144367200Y-86681000D03*
X146342200Y-82731000D03*
X146342200Y-84706000D03*
X146342200Y-86681000D03*
D27*
%TO.P,U3,50,GND*%
X150317200Y-79756000D03*
%TO.P,U3,51,GND*%
X150317200Y-89656000D03*
%TO.P,U3,52,GND*%
X138417200Y-89656000D03*
%TO.P,U3,53,GND*%
X138417200Y-79756000D03*
%TD*%
D28*
%TO.P,J1,1,Pin_1*%
%TO.N,/~{ESP_RESET}*%
X155397200Y-84353400D03*
%TO.P,J1,2,Pin_2*%
%TO.N,+3V3*%
X155397200Y-88253400D03*
%TO.P,J1,3,Pin_3*%
%TO.N,/ESP_TXD*%
X154127200Y-84353400D03*
%TO.P,J1,4,Pin_4*%
%TO.N,GND*%
X154127200Y-88253400D03*
%TO.P,J1,5,Pin_5*%
%TO.N,/ESP_RXD*%
X152857200Y-84353400D03*
%TO.P,J1,6,Pin_6*%
%TO.N,/GPIO9_strap*%
X152857200Y-88253400D03*
%TD*%
D29*
%TO.P,CN1,1,1*%
%TO.N,Net-(Q1-D)*%
X144406616Y-95238003D03*
%TD*%
D30*
%TO.N,/SDA*%
X153009600Y-96393000D03*
X146812000Y-96316800D03*
%TO.N,GND*%
X142189200Y-98069400D03*
%TO.N,Net-(U3-GPIO0{slash}ADC1_CH0{slash}XTAL_32K_P)*%
X139827000Y-88417400D03*
%TO.N,GND*%
X145389600Y-85674200D03*
X131572000Y-85267800D03*
X140004800Y-79781400D03*
X138404600Y-90322400D03*
X139192000Y-81506000D03*
X144830800Y-102336600D03*
X140766800Y-79781400D03*
X141300200Y-92125800D03*
X133858000Y-82753200D03*
X144018000Y-103022400D03*
X134035800Y-84759800D03*
X152120600Y-78994000D03*
X148793200Y-79806800D03*
X141960600Y-101574600D03*
X134670800Y-81356200D03*
X151104600Y-89636600D03*
X137845800Y-79730600D03*
X141274800Y-90322400D03*
X143408400Y-85725000D03*
X133324600Y-94869000D03*
X142570200Y-102311200D03*
X148031200Y-79806800D03*
X139192000Y-80706000D03*
X149631400Y-79806800D03*
X145389600Y-83743800D03*
X143230600Y-79857600D03*
X138709400Y-92151200D03*
X137388600Y-87934800D03*
X146405600Y-79832200D03*
X141732000Y-102311200D03*
X141579600Y-79806800D03*
X143408400Y-83667600D03*
X144780000Y-79806800D03*
X143992600Y-79857600D03*
X154076400Y-89941400D03*
X147218400Y-79806800D03*
X142341600Y-103200200D03*
X145592800Y-79806800D03*
X142367000Y-79832200D03*
%TO.N,Net-(U3-GPIO1{slash}ADC1_CH1{slash}XTAL_32K_N)*%
X140893800Y-88468200D03*
%TO.N,/~{ESP_RESET}*%
X155908642Y-86084042D03*
X139903200Y-85953600D03*
%TO.N,+3V3*%
X141122400Y-92964000D03*
X146761200Y-93294200D03*
X151536400Y-93319600D03*
X149123400Y-93345000D03*
X144475200Y-93268800D03*
X136601200Y-91795600D03*
X142659100Y-96583500D03*
%TO.N,/SDA*%
X144729200Y-100380800D03*
%TO.N,/SCL*%
X145821400Y-99441000D03*
%TO.N,/GPIO3*%
X139471400Y-84531200D03*
X151587200Y-81483200D03*
%TO.N,/GPIO4*%
X144068800Y-88468200D03*
%TO.N,/ALRT*%
X141757400Y-95478600D03*
%TD*%
D31*
%TO.N,/ALRT*%
X142770300Y-91106700D02*
G75*
G02*
X142769015Y-91109838I-1300J-1300D01*
G01*
X142767200Y-91099215D02*
G75*
G03*
X142770305Y-91106695I10600J15D01*
G01*
X141884400Y-92862400D02*
G75*
G03*
X141757402Y-93169005I306600J-306600D01*
G01*
X142011400Y-92555794D02*
G75*
G02*
X141884402Y-92862402I-433600J-6D01*
G01*
X142201899Y-91300299D02*
G75*
G03*
X142011402Y-91760207I459901J-459901D01*
G01*
X142582900Y-91109800D02*
G75*
G03*
X142257698Y-91244505I0J-459900D01*
G01*
%TO.N,/GPIO4*%
X144218000Y-88579300D02*
G75*
G02*
X144367202Y-88876421I-221200J-297100D01*
G01*
X144367200Y-89411421D02*
X144367200Y-89800578D01*
%TO.N,/GPIO3*%
X151958152Y-80936666D02*
G75*
G02*
X151798097Y-81323145I-546552J-34D01*
G01*
X151612600Y-81483200D02*
G75*
G03*
X151655956Y-81465235I0J61300D01*
G01*
X151620039Y-81501160D02*
G75*
G03*
X151612600Y-81483165I-7439J7460D01*
G01*
X139384000Y-84618600D02*
G75*
G02*
X139172997Y-84705999I-211000J211000D01*
G01*
X151587200Y-81508600D02*
G75*
G03*
X151605135Y-81516014I10500J0D01*
G01*
X138615450Y-84706000D02*
X138318950Y-84706000D01*
X151655960Y-81465239D02*
X151620039Y-81501160D01*
%TO.N,/SCL*%
X147257776Y-91250776D02*
G75*
G03*
X146912600Y-91107813I-345176J-345224D01*
G01*
X147173650Y-97656950D02*
G75*
G02*
X146329761Y-98006455I-843850J843950D01*
G01*
X149498305Y-97823305D02*
G75*
G03*
X148252800Y-97307397I-1245505J-1245495D01*
G01*
X145809300Y-98018600D02*
G75*
G02*
X145821395Y-98047811I-29200J-29200D01*
G01*
X145814311Y-98006500D02*
G75*
G03*
X145809280Y-98018620I-11J-7100D01*
G01*
X147319000Y-91312000D02*
G75*
G02*
X147523207Y-91804982I-493000J-493000D01*
G01*
X147173650Y-97656950D02*
G75*
G03*
X147523155Y-96813061I-843950J843850D01*
G01*
X148017538Y-97307400D02*
G75*
G03*
X147173639Y-97656939I-38J-1193400D01*
G01*
X147523200Y-96813061D02*
G75*
G03*
X148017538Y-97307400I494300J-39D01*
G01*
%TO.N,/SDA*%
X153009600Y-98643078D02*
G75*
G03*
X153034994Y-98704406I86700J-22D01*
G01*
X146799300Y-96329500D02*
G75*
G02*
X146768639Y-96342216I-30700J30700D01*
G01*
X145204417Y-97213182D02*
G75*
G03*
X144997239Y-97713450I500283J-500218D01*
G01*
X145603695Y-91171495D02*
G75*
G03*
X145388600Y-91082403I-215095J-215105D01*
G01*
X145795000Y-91362800D02*
G75*
G02*
X146075381Y-92039745I-676900J-676900D01*
G01*
X145823952Y-96593647D02*
G75*
G03*
X146075398Y-95986600I-607052J607047D01*
G01*
X146431000Y-96342200D02*
G75*
G03*
X145823951Y-96593646I0J-858500D01*
G01*
X146075400Y-95986600D02*
G75*
G03*
X146431000Y-96342200I355600J0D01*
G01*
X144997200Y-99923295D02*
G75*
G02*
X144863201Y-100246801I-457500J-5D01*
G01*
X144997200Y-97713450D02*
X144997200Y-98299550D01*
D32*
%TO.N,+3V3*%
X143242978Y-94501021D02*
G75*
G03*
X142875012Y-95389400I888422J-888379D01*
G01*
D31*
X144183800Y-97993100D02*
G75*
G03*
X144197319Y-97987550I5600J5600D01*
G01*
D32*
X135605713Y-86593486D02*
G75*
G03*
X135432836Y-87010936I417487J-417414D01*
G01*
X135778627Y-86176036D02*
G75*
G02*
X135605688Y-86593461I-590327J36D01*
G01*
X142875000Y-96138700D02*
G75*
G02*
X142713141Y-96529454I-552600J0D01*
G01*
D33*
X136601200Y-92826969D02*
G75*
G02*
X136324709Y-93494509I-944000J-31D01*
G01*
D31*
X144069500Y-97206500D02*
G75*
G03*
X143761204Y-97078798I-308300J-308300D01*
G01*
D32*
X135778627Y-85288313D02*
X135778627Y-85288313D01*
X135432800Y-88556416D02*
G75*
G03*
X136017005Y-89966795I1994600J16D01*
G01*
D31*
X142906750Y-96831150D02*
G75*
G03*
X143504629Y-97078788I597850J597850D01*
G01*
D32*
X142417800Y-96824800D02*
G75*
G02*
X141314021Y-97282009I-1103800J1103800D01*
G01*
D31*
X144069500Y-97206500D02*
G75*
G02*
X144197202Y-97514795I-308300J-308300D01*
G01*
D32*
X142776814Y-92127800D02*
G75*
G03*
X142774396Y-92128796I-14J-3400D01*
G01*
X136161167Y-90110967D02*
G75*
G02*
X136601190Y-91173300I-1062367J-1062333D01*
G01*
X135778627Y-85519995D02*
G75*
G03*
X135808917Y-85593109I103373J-5D01*
G01*
D33*
X136324700Y-93494500D02*
G75*
G03*
X136048212Y-94162030I667500J-667500D01*
G01*
D31*
X141122400Y-92951300D02*
G75*
G03*
X141113372Y-92947533I-5300J0D01*
G01*
D32*
X142875000Y-95680900D02*
X142875000Y-96138700D01*
X135778627Y-85288313D02*
X135778627Y-84739286D01*
X135778627Y-84739286D02*
X135778627Y-85288313D01*
D31*
%TO.N,/~{ESP_RESET}*%
X137472630Y-85783630D02*
G75*
G03*
X137085800Y-85623411I-386830J-386870D01*
G01*
X136755600Y-85727000D02*
G75*
G03*
X136652005Y-85977112I250100J-250100D01*
G01*
X137005712Y-85623400D02*
G75*
G03*
X136755596Y-85726996I-12J-353700D01*
G01*
X155652921Y-84609121D02*
G75*
G02*
X155908665Y-85226486I-617321J-617379D01*
G01*
X137828052Y-86139052D02*
G75*
G03*
X138231100Y-86305999I403048J403052D01*
G01*
%TO.N,Net-(U3-GPIO1{slash}ADC1_CH1{slash}XTAL_32K_N)*%
X140367200Y-89606000D02*
X140367200Y-90242600D01*
%TO.N,GND*%
X141731716Y-98526883D02*
G75*
G02*
X140995100Y-98832009I-736616J736583D01*
G01*
X142296577Y-98006500D02*
G75*
G03*
X142220657Y-98037957I23J-107400D01*
G01*
X152223740Y-79020940D02*
G75*
G03*
X152158700Y-78994005I-65040J-65060D01*
G01*
X134775484Y-81460884D02*
G75*
G03*
X134998356Y-81553228I222916J222884D01*
G01*
X136909445Y-88413954D02*
G75*
G02*
X136747100Y-88481197I-162345J162354D01*
G01*
X138436071Y-90268675D02*
G75*
G02*
X138420357Y-90306686I-53771J-25D01*
G01*
X143397200Y-97994250D02*
G75*
G02*
X143384950Y-98006500I-12300J50D01*
G01*
X146342200Y-84709300D02*
X146342200Y-84712300D01*
X142392200Y-84703200D02*
X142392200Y-84706000D01*
X141166400Y-79805200D02*
X141167200Y-79806000D01*
X144370000Y-86681000D02*
X144367200Y-86681000D01*
%TO.N,Net-(LED1-A)*%
X153607666Y-80935933D02*
G75*
G02*
X153022300Y-81178409I-585366J585333D01*
G01*
%TO.N,/SDA*%
X153009600Y-98643078D02*
X153009600Y-96393000D01*
X153035000Y-98704400D02*
X153060400Y-98729800D01*
X146812000Y-96316800D02*
X146799300Y-96329500D01*
X146768639Y-96342200D02*
X146431000Y-96342200D01*
%TO.N,/SCL*%
X148252800Y-97307400D02*
X148017538Y-97307400D01*
X149498305Y-97823305D02*
X150465600Y-98790600D01*
%TO.N,+3V3*%
X142659100Y-96583500D02*
X142906750Y-96831150D01*
X144197200Y-97987549D02*
X144197200Y-97514795D01*
X143761204Y-97078800D02*
X143504629Y-97078800D01*
%TO.N,GND*%
X142296577Y-98006500D02*
X143384950Y-98006500D01*
X142220650Y-98037950D02*
X142189200Y-98069400D01*
X141731716Y-98526883D02*
X142189200Y-98069400D01*
X140995100Y-98832000D02*
X140563600Y-98832000D01*
D32*
%TO.N,+3V3*%
X142713143Y-96529456D02*
X142417800Y-96824800D01*
X141314021Y-97282000D02*
X140563600Y-97282000D01*
D31*
%TO.N,Net-(LED1-A)*%
X153022300Y-81178400D02*
X152679400Y-81178400D01*
X153607666Y-80935933D02*
X153873200Y-80670400D01*
%TO.N,Net-(U3-GPIO0{slash}ADC1_CH0{slash}XTAL_32K_P)*%
X139567200Y-89606000D02*
X139567200Y-88860906D01*
X139567200Y-89606000D02*
X139567200Y-90872177D01*
X139481200Y-91079800D02*
X139395200Y-91165800D01*
X139827000Y-88417400D02*
X139801600Y-88442800D01*
X139827000Y-88417400D02*
X139697100Y-88547300D01*
X139567200Y-88860906D02*
G75*
G02*
X139697098Y-88547298I443500J6D01*
G01*
X139481200Y-91079800D02*
G75*
G03*
X139567191Y-90872177I-207600J207600D01*
G01*
%TO.N,GND*%
X143230600Y-79857600D02*
X143479113Y-79857600D01*
X142722473Y-79832200D02*
X142367000Y-79832200D01*
X146767200Y-79806000D02*
X146450326Y-79806000D01*
X142432000Y-82731000D02*
X142392200Y-82731000D01*
X145410883Y-83662316D02*
X146342200Y-82731000D01*
X150230478Y-79806800D02*
X149631400Y-79806800D01*
X145408762Y-85747562D02*
X146342200Y-86681000D01*
X139351839Y-92151200D02*
X138709400Y-92151200D01*
X142367000Y-79832200D02*
X142011926Y-79832200D01*
X148031200Y-79806800D02*
X148365834Y-79806800D01*
X147218400Y-79806800D02*
X147218000Y-79806400D01*
X138467200Y-89570644D02*
X138467200Y-88706000D01*
X142422300Y-86681000D02*
X142392200Y-86681000D01*
X138420335Y-90306664D02*
X138404600Y-90322400D01*
X144367200Y-84733100D02*
X144367200Y-84736100D01*
X141579600Y-79806800D02*
X141168565Y-79806800D01*
D33*
X133324600Y-94869000D02*
X132328200Y-94869000D01*
D31*
X146342200Y-84709300D02*
X146342200Y-84701200D01*
X145592800Y-79806800D02*
X145168565Y-79806800D01*
X139192000Y-81506000D02*
X138467200Y-81506000D01*
X141167200Y-90138715D02*
X141167200Y-89606000D01*
X144367200Y-84678900D02*
X144367200Y-84666200D01*
X138436071Y-89638686D02*
X138436071Y-90268675D01*
X145389600Y-83743800D02*
X144448683Y-84684716D01*
X146418700Y-79819100D02*
X146405600Y-79832200D01*
X146342200Y-84712300D02*
X146342200Y-84713800D01*
X143142513Y-79806000D02*
X142785726Y-79806000D01*
X142400048Y-84675951D02*
X143408400Y-83667600D01*
X139382500Y-92138500D02*
X139395200Y-92125800D01*
X143408400Y-85725000D02*
X144345916Y-84787483D01*
X140576300Y-92113100D02*
X140563600Y-92100400D01*
X143397200Y-97994250D02*
X143397200Y-97982000D01*
X147565834Y-79806800D02*
X147218400Y-79806800D01*
X138404500Y-79743300D02*
X138417200Y-79756000D01*
X139579500Y-79793700D02*
X139567200Y-79806000D01*
X143408400Y-85725000D02*
X144363410Y-86680010D01*
X152223740Y-79020940D02*
X152600408Y-79397608D01*
D33*
X154101800Y-89916000D02*
X154076400Y-89941400D01*
D31*
X145389600Y-83743800D02*
X145389600Y-83713700D01*
X148368565Y-79806800D02*
X148793200Y-79806800D01*
X149165834Y-79806800D02*
X148793200Y-79806800D01*
X142392200Y-84707400D02*
X142392200Y-84706000D01*
X141167200Y-79806000D02*
X141167600Y-79806400D01*
X144368565Y-79806800D02*
X144780000Y-79806800D01*
X133858000Y-82753200D02*
X135000400Y-82753200D01*
X143603686Y-79806000D02*
X143904513Y-79806000D01*
D33*
X154127200Y-89854678D02*
X154127200Y-88253400D01*
D31*
X146011926Y-79832200D02*
X146405600Y-79832200D01*
X144339057Y-84598257D02*
X143408400Y-83667600D01*
X144375048Y-82738848D02*
X145376605Y-83740405D01*
X145165834Y-79806800D02*
X144780000Y-79806800D01*
X144397300Y-84706000D02*
X144394300Y-84706000D01*
X150291800Y-79781400D02*
X150317200Y-79756000D01*
X147217034Y-79806000D02*
X146767200Y-79806000D01*
X135257600Y-81457800D02*
X135384600Y-81330800D01*
X145389600Y-85701300D02*
X145389600Y-85674200D01*
X141166400Y-79805200D02*
X141154900Y-79793700D01*
X145384800Y-83743800D02*
X145389600Y-83743800D01*
X146336684Y-84727115D02*
X145389600Y-85674200D01*
X140384594Y-79806000D02*
X140724805Y-79806000D01*
X142499942Y-82759142D02*
X143408400Y-83667600D01*
X149631400Y-79806800D02*
X149168565Y-79806800D01*
X144370000Y-86681000D02*
X144375000Y-86681000D01*
X145592800Y-79806800D02*
X145593200Y-79806400D01*
X134670800Y-81356200D02*
X134775484Y-81460884D01*
X141125205Y-79781400D02*
X140766800Y-79781400D01*
X144341400Y-79831800D02*
X144366800Y-79806400D01*
X136909445Y-88413954D02*
X137388600Y-87934800D01*
X140004800Y-79781400D02*
X139609194Y-79781400D01*
X142393189Y-84709789D02*
X143408400Y-85725000D01*
X143992600Y-79857600D02*
X144279113Y-79857600D01*
X134998356Y-81553201D02*
X135128911Y-81553201D01*
X139192000Y-80706000D02*
X138467200Y-80706000D01*
D33*
X138373839Y-79730600D02*
X137845800Y-79730600D01*
D31*
X144367200Y-84733100D02*
X144367200Y-84678900D01*
X145389600Y-83743800D02*
X146338805Y-84693005D01*
X144367200Y-86681000D02*
X144365800Y-86681000D01*
X152120600Y-78994000D02*
X152158700Y-78994000D01*
X144388315Y-86675484D02*
X145389600Y-85674200D01*
X141580965Y-79806000D02*
X141948673Y-79806000D01*
X143992600Y-79857600D02*
X143966800Y-79831800D01*
X140004800Y-79781400D02*
X140325205Y-79781400D01*
X141221000Y-90268600D02*
X141274800Y-90322400D01*
X141579600Y-79806800D02*
X141580000Y-79806400D01*
X141300200Y-92125800D02*
X140606960Y-92125800D01*
X143408400Y-83667600D02*
X144337151Y-82738848D01*
X144440562Y-84725162D02*
X145389600Y-85674200D01*
X142392200Y-84703200D02*
X142392200Y-84694900D01*
X145594165Y-79806000D02*
X145948673Y-79806000D01*
X143204800Y-79831800D02*
X143230600Y-79857600D01*
X148031200Y-79806800D02*
X147568565Y-79806800D01*
X140754500Y-79793700D02*
X140766800Y-79781400D01*
X151071482Y-89656000D02*
X150317200Y-89656000D01*
X151094900Y-89646300D02*
X151104600Y-89636600D01*
X136747100Y-88481200D02*
X136652000Y-88481200D01*
X142473683Y-86659716D02*
X143408400Y-85725000D01*
X147566800Y-79806400D02*
G75*
G02*
X147565834Y-79806814I-1000J1000D01*
G01*
X144339057Y-84598257D02*
G75*
G02*
X144367196Y-84666200I-67957J-67943D01*
G01*
X141980300Y-79819100D02*
G75*
G03*
X141948673Y-79806011I-31600J-31600D01*
G01*
X144368565Y-79806800D02*
G75*
G02*
X144367610Y-79806390I35J1400D01*
G01*
X139579500Y-79793700D02*
G75*
G02*
X139609194Y-79781398I29700J-29700D01*
G01*
X145384800Y-83743800D02*
G75*
G02*
X145376603Y-83740407I0J11600D01*
G01*
X143541400Y-79831800D02*
G75*
G02*
X143603686Y-79805994I62300J-62300D01*
G01*
X138442200Y-89631000D02*
G75*
G03*
X138467218Y-89570644I-60400J60400D01*
G01*
X142785726Y-79806000D02*
G75*
G03*
X142754092Y-79819092I-26J-44700D01*
G01*
X141221000Y-90268600D02*
G75*
G02*
X141167194Y-90138715I129900J129900D01*
G01*
X141125205Y-79781400D02*
G75*
G02*
X141154898Y-79793702I-5J-42000D01*
G01*
X141980300Y-79819100D02*
G75*
G03*
X142011926Y-79832189I31600J31600D01*
G01*
X140354900Y-79793700D02*
G75*
G03*
X140325205Y-79781398I-29700J-29700D01*
G01*
X145980300Y-79819100D02*
G75*
G03*
X145948673Y-79806011I-31600J-31600D01*
G01*
X141580000Y-79806400D02*
G75*
G02*
X141580965Y-79805986I1000J-1000D01*
G01*
X150230478Y-79806800D02*
G75*
G03*
X150291806Y-79781406I22J86700D01*
G01*
X143204800Y-79831800D02*
G75*
G03*
X143142513Y-79805994I-62300J-62300D01*
G01*
X144356100Y-82731000D02*
G75*
G03*
X144337151Y-82738848I0J-26800D01*
G01*
X149167600Y-79806400D02*
G75*
G03*
X149168565Y-79806814I1000J1000D01*
G01*
X138436071Y-89638686D02*
G75*
G02*
X138442187Y-89630980I14229J-5014D01*
G01*
X141168565Y-79806800D02*
G75*
G02*
X141167610Y-79806390I35J1400D01*
G01*
X151071482Y-89656000D02*
G75*
G03*
X151094905Y-89646305I18J33100D01*
G01*
X148366800Y-79806400D02*
G75*
G02*
X148367600Y-79806400I400J-399D01*
G01*
X147566800Y-79806400D02*
G75*
G02*
X147567600Y-79806400I400J-399D01*
G01*
X145167600Y-79806400D02*
G75*
G03*
X145166800Y-79806400I-400J-399D01*
G01*
X146418700Y-79819100D02*
G75*
G02*
X146450326Y-79806011I31600J-31600D01*
G01*
X142392200Y-84707400D02*
G75*
G03*
X142393185Y-84709793I3400J0D01*
G01*
X145167600Y-79806400D02*
G75*
G03*
X145168565Y-79806814I1000J1000D01*
G01*
X149166800Y-79806400D02*
G75*
G02*
X149165834Y-79806814I-1000J1000D01*
G01*
X139351839Y-92151200D02*
G75*
G03*
X139382488Y-92138488I-39J43400D01*
G01*
X142473683Y-86659716D02*
G75*
G02*
X142422300Y-86680990I-51383J51416D01*
G01*
X142754100Y-79819100D02*
G75*
G02*
X142722473Y-79832189I-31600J31600D01*
G01*
X148366800Y-79806400D02*
G75*
G02*
X148365834Y-79806814I-1000J1000D01*
G01*
X143966800Y-79831800D02*
G75*
G03*
X143904513Y-79805994I-62300J-62300D01*
G01*
X144345916Y-84787483D02*
G75*
G03*
X144367190Y-84736100I-51416J51383D01*
G01*
X144397300Y-84706000D02*
G75*
G03*
X144448690Y-84684723I0J72700D01*
G01*
X145593200Y-79806400D02*
G75*
G02*
X145594165Y-79805986I1000J-1000D01*
G01*
X135128911Y-81553201D02*
G75*
G03*
X135257612Y-81457811I-205811J412201D01*
G01*
X147217034Y-79806000D02*
G75*
G02*
X147217990Y-79806410I-34J-1400D01*
G01*
D33*
X154101800Y-89916000D02*
G75*
G03*
X154127191Y-89854678I-61300J61300D01*
G01*
D31*
X140576300Y-92113100D02*
G75*
G03*
X140606960Y-92125816I30700J30700D01*
G01*
X144394300Y-84706000D02*
G75*
G02*
X144367200Y-84678900I0J27100D01*
G01*
X147567600Y-79806400D02*
G75*
G03*
X147568565Y-79806814I1000J1000D01*
G01*
X144367200Y-84733100D02*
G75*
G02*
X144394300Y-84706000I27100J0D01*
G01*
X144341400Y-79831800D02*
G75*
G02*
X144279113Y-79857606I-62300J62300D01*
G01*
X145980300Y-79819100D02*
G75*
G03*
X146011926Y-79832189I31600J31600D01*
G01*
X145410883Y-83662316D02*
G75*
G03*
X145389609Y-83713700I51417J-51384D01*
G01*
X140754500Y-79793700D02*
G75*
G02*
X140724805Y-79806002I-29700J29700D01*
G01*
X138404500Y-79743300D02*
G75*
G03*
X138373839Y-79730584I-30700J-30700D01*
G01*
X144367600Y-79806400D02*
G75*
G03*
X144366800Y-79806400I-400J-399D01*
G01*
X142432000Y-82731000D02*
G75*
G02*
X142499945Y-82759139I0J-96100D01*
G01*
X144394300Y-84706000D02*
X144394300Y-84706000D01*
X142392200Y-84694900D02*
G75*
G02*
X142400048Y-84675951I26800J0D01*
G01*
X144375048Y-82738848D02*
G75*
G03*
X144356100Y-82731001I-18948J-18952D01*
G01*
X144363410Y-86680010D02*
G75*
G03*
X144365800Y-86680994I2390J2410D01*
G01*
X143541400Y-79831800D02*
G75*
G02*
X143479113Y-79857606I-62300J62300D01*
G01*
X149167600Y-79806400D02*
G75*
G03*
X149166800Y-79806400I-400J-399D01*
G01*
X145408762Y-85747562D02*
G75*
G02*
X145389593Y-85701300I46238J46262D01*
G01*
X144440562Y-84725162D02*
G75*
G03*
X144394300Y-84705993I-46262J-46238D01*
G01*
X145165834Y-79806800D02*
G75*
G03*
X145166790Y-79806390I-34J1400D01*
G01*
X146342200Y-84701200D02*
G75*
G03*
X146338807Y-84693003I-11600J0D01*
G01*
X148367600Y-79806400D02*
G75*
G03*
X148368565Y-79806814I1000J1000D01*
G01*
X144388315Y-86675484D02*
G75*
G02*
X144375000Y-86681008I-13315J13284D01*
G01*
X146336684Y-84727115D02*
G75*
G03*
X146342208Y-84713800I-13284J13315D01*
G01*
X140384594Y-79806000D02*
G75*
G02*
X140354902Y-79793698I6J42000D01*
G01*
%TO.N,Net-(U3-GPIO1{slash}ADC1_CH1{slash}XTAL_32K_N)*%
X140902780Y-88433819D02*
X140919200Y-88417400D01*
X140893800Y-88455500D02*
X140893800Y-88468200D01*
X140367200Y-90242600D02*
X140367200Y-90805124D01*
X140881100Y-88468200D02*
X140893800Y-88468200D01*
X140367200Y-89606000D02*
X140367200Y-89287700D01*
X140592272Y-88744327D02*
X140859419Y-88477180D01*
X140465400Y-91042200D02*
X140563600Y-91140400D01*
X140902780Y-88433819D02*
G75*
G03*
X140893811Y-88455500I21720J-21681D01*
G01*
X140592272Y-88744327D02*
G75*
G03*
X140367186Y-89287700I543328J-543373D01*
G01*
X140859419Y-88477180D02*
G75*
G02*
X140881100Y-88468211I21681J-21720D01*
G01*
X140465400Y-91042200D02*
G75*
G02*
X140367190Y-90805124I237100J237100D01*
G01*
%TO.N,/~{ESP_RESET}*%
X139868819Y-85962580D02*
X139886779Y-85944619D01*
X138231100Y-86306000D02*
X138467200Y-86306000D01*
X155652921Y-84609121D02*
X155397200Y-84353400D01*
X136652000Y-85977112D02*
X136652000Y-86931200D01*
X139903200Y-85940900D02*
X139903200Y-85953600D01*
X139276215Y-86306000D02*
X138469462Y-86306000D01*
X139890500Y-85953600D02*
X139903200Y-85953600D01*
X137472630Y-85783630D02*
X137828052Y-86139052D01*
X137085800Y-85623400D02*
X137005712Y-85623400D01*
X139868819Y-85962580D02*
X139701600Y-86129800D01*
X155908642Y-86084042D02*
X155908642Y-85226486D01*
X139894219Y-85937180D02*
X139886779Y-85944619D01*
X139701600Y-86129800D02*
G75*
G02*
X139276215Y-86306006I-425400J425400D01*
G01*
X139868819Y-85962580D02*
G75*
G02*
X139890500Y-85953611I21681J-21720D01*
G01*
X139894219Y-85937180D02*
G75*
G02*
X139903133Y-85940900I3681J-3720D01*
G01*
X138465600Y-86307600D02*
G75*
G02*
X138461737Y-86309215I-3900J3900D01*
G01*
X139890500Y-85953600D02*
G75*
G02*
X139886732Y-85944573I0J5300D01*
G01*
X138465600Y-86307600D02*
G75*
G02*
X138469462Y-86305985I3900J-3900D01*
G01*
D32*
%TO.N,+3V3*%
X146735800Y-92153200D02*
X146710400Y-92127800D01*
X138446800Y-82326400D02*
X138467200Y-82306000D01*
X149007363Y-92900763D02*
X148234400Y-92127800D01*
X135808913Y-85593113D02*
X135839200Y-85623400D01*
D33*
X136601200Y-92826969D02*
X136601200Y-91795600D01*
D31*
X136048200Y-94162030D02*
X136048200Y-94869000D01*
D32*
X135778627Y-84058372D02*
X135778627Y-84739286D01*
X143242978Y-94501021D02*
X144475200Y-93268800D01*
X136361814Y-83475185D02*
X135778627Y-84058372D01*
X135432800Y-87010936D02*
X135432800Y-88556416D01*
X143891000Y-92127800D02*
X142776814Y-92127800D01*
X136447500Y-81433700D02*
X136344600Y-81330800D01*
X151904700Y-93319600D02*
X151536400Y-93319600D01*
X149123400Y-93180900D02*
X149123400Y-93345000D01*
X142774400Y-92128800D02*
X142773400Y-92129800D01*
X144475200Y-93079300D02*
X144475200Y-93268800D01*
X136601200Y-91795600D02*
X136601200Y-91173300D01*
X143891000Y-92127800D02*
X144278341Y-92515141D01*
X146761200Y-93294200D02*
X146761200Y-92214521D01*
X135778627Y-85288313D02*
X135778627Y-85519995D01*
X135778627Y-86176036D02*
X135778627Y-85288313D01*
X136738985Y-82564614D02*
X136753599Y-82549999D01*
X142875000Y-95389400D02*
X142875000Y-95680900D01*
X144475200Y-92990400D02*
X144475200Y-93268800D01*
X136550400Y-82486500D02*
X136550400Y-83019900D01*
X151536400Y-93319600D02*
X152050600Y-93319600D01*
X136017000Y-89966800D02*
X136161167Y-90110967D01*
X144609196Y-92755803D02*
X145262600Y-92102400D01*
D31*
X141122400Y-92964000D02*
X141122400Y-92951300D01*
X141113419Y-92947580D02*
X141071600Y-92989400D01*
D32*
X136550400Y-82486500D02*
X136550400Y-81682122D01*
X149123400Y-92622726D02*
X149123400Y-93345000D01*
X149275800Y-92254800D02*
X149428200Y-92102400D01*
X155397200Y-89224400D02*
X155397200Y-88253400D01*
X137244168Y-82346800D02*
X138397550Y-82346800D01*
D31*
X144183800Y-97993100D02*
X144170400Y-97979700D01*
D32*
X152533427Y-93059172D02*
X154710599Y-90882000D01*
X136550400Y-82486500D02*
G75*
G03*
X136739021Y-82564650I110500J0D01*
G01*
X138397550Y-82346800D02*
G75*
G03*
X138446785Y-82326385I-50J69700D01*
G01*
X144475200Y-93079300D02*
G75*
G02*
X144609195Y-92755802I457500J0D01*
G01*
X146735800Y-92153200D02*
G75*
G02*
X146761191Y-92214521I-61300J-61300D01*
G01*
X136550400Y-83019900D02*
G75*
G02*
X136738979Y-82564608I643900J0D01*
G01*
X152533427Y-93059172D02*
G75*
G02*
X151904700Y-93319586I-628727J628772D01*
G01*
X137244168Y-82346800D02*
G75*
G03*
X136753609Y-82550009I32J-693800D01*
G01*
X136550400Y-83019900D02*
G75*
G02*
X136361821Y-83475192I-643900J0D01*
G01*
X149007363Y-92900763D02*
G75*
G02*
X149123392Y-93180900I-280163J-280137D01*
G01*
X144475200Y-92990400D02*
G75*
G03*
X144278337Y-92515145I-672100J0D01*
G01*
X136447500Y-81433700D02*
G75*
G02*
X136550391Y-81682122I-248400J-248400D01*
G01*
X155397200Y-89224400D02*
G75*
G02*
X154710599Y-90882000I-2344200J0D01*
G01*
X149123400Y-92622726D02*
G75*
G02*
X149275792Y-92254792I520300J26D01*
G01*
D31*
%TO.N,/ESP_RXD*%
X151462752Y-84709000D02*
X150272321Y-84709000D01*
X150268700Y-84707500D02*
X150267200Y-84706000D01*
X152321247Y-84353400D02*
X152857200Y-84353400D01*
X150272321Y-84709000D02*
G75*
G02*
X150268694Y-84707506I-21J5100D01*
G01*
X151892000Y-84531200D02*
G75*
G02*
X152321247Y-84353420I429200J-429200D01*
G01*
X151462752Y-84709000D02*
G75*
G03*
X151892035Y-84531235I48J607100D01*
G01*
%TO.N,/GPIO9_strap*%
X148367200Y-90058535D02*
X148367200Y-89606000D01*
X152296322Y-90400677D02*
X152235900Y-90461100D01*
X152857200Y-89046600D02*
X152857200Y-88253400D01*
X149392986Y-90947586D02*
X149087743Y-90642343D01*
X148504000Y-90388800D02*
X148524056Y-90408856D01*
X150735949Y-91082400D02*
X149478000Y-91082400D01*
X148504000Y-90388800D02*
G75*
G02*
X148367185Y-90058535I330300J330300D01*
G01*
X148805900Y-90525600D02*
G75*
G02*
X149087746Y-90642340I0J-398600D01*
G01*
X152296322Y-90400677D02*
G75*
G03*
X152857186Y-89046600I-1354122J1354077D01*
G01*
X149392986Y-90947586D02*
G75*
G02*
X149428208Y-91032600I-84986J-85014D01*
G01*
X152235900Y-90461100D02*
G75*
G02*
X150735949Y-91082420I-1500000J1500000D01*
G01*
X149428200Y-91032600D02*
G75*
G03*
X149478000Y-91082400I49800J0D01*
G01*
X148805900Y-90525600D02*
G75*
G02*
X148524053Y-90408859I0J398600D01*
G01*
%TO.N,/ESP_TXD*%
X151294197Y-83757402D02*
X151264800Y-83786800D01*
X154127200Y-83186805D02*
X154127200Y-84353400D01*
X153693594Y-82753200D02*
X152031700Y-82753200D01*
X152010019Y-82787580D02*
X151473802Y-83323797D01*
X150977025Y-83906000D02*
X150267200Y-83906000D01*
X154000200Y-82880200D02*
G75*
G02*
X154127198Y-83186805I-306600J-306600D01*
G01*
X151384000Y-83540600D02*
G75*
G02*
X151473804Y-83323799I306600J0D01*
G01*
X151384000Y-83540600D02*
G75*
G02*
X151294196Y-83757401I-306600J0D01*
G01*
X151264800Y-83786800D02*
G75*
G02*
X150977025Y-83906011I-287800J287800D01*
G01*
X154000200Y-82880200D02*
G75*
G03*
X153693594Y-82753202I-306600J-306600D01*
G01*
X152019000Y-82765900D02*
G75*
G02*
X152010028Y-82787589I-30700J0D01*
G01*
X152019000Y-82765900D02*
G75*
G02*
X152031700Y-82753200I12700J0D01*
G01*
%TO.N,/SDA*%
X146075400Y-92039745D02*
X146075400Y-95986600D01*
X145388600Y-91082400D02*
X145262600Y-91082400D01*
X145603695Y-91171495D02*
X145795000Y-91362800D01*
X145364200Y-90956400D02*
X145364200Y-91082400D01*
X145204417Y-97213182D02*
X145823952Y-96593647D01*
X145747501Y-90447097D02*
X145453295Y-90741304D01*
X144997200Y-98299550D02*
X144997200Y-99923295D01*
X145967200Y-89916700D02*
X145967200Y-89606000D01*
X144729200Y-100380800D02*
X144863200Y-100246800D01*
X145967200Y-89916700D02*
G75*
G02*
X145747503Y-90447099I-750100J0D01*
G01*
X145364200Y-90956400D02*
G75*
G02*
X145453294Y-90741303I304200J0D01*
G01*
%TO.N,/SCL*%
X145821400Y-98047811D02*
X145821400Y-99441000D01*
X146767200Y-91010836D02*
X146767200Y-89606000D01*
X146912600Y-91107800D02*
X146710400Y-91107800D01*
X147257776Y-91250776D02*
X147319000Y-91312000D01*
X146329761Y-98006500D02*
X145814311Y-98006500D01*
X146750563Y-91107800D02*
X146925300Y-91107800D01*
X147523200Y-91804982D02*
X147523200Y-96813061D01*
X146767200Y-91010836D02*
G75*
G02*
X146738789Y-91079389I-97000J36D01*
G01*
X146738800Y-91079400D02*
G75*
G03*
X146750563Y-91107888I11800J-11800D01*
G01*
%TO.N,/GPIO8_strap*%
X148234400Y-91032600D02*
X148234400Y-91107800D01*
X147809101Y-90532101D02*
X148181225Y-90904225D01*
X147567200Y-89948100D02*
X147567200Y-89606000D01*
X148181225Y-90904225D02*
G75*
G02*
X148234385Y-91032600I-128425J-128375D01*
G01*
X147567200Y-89948100D02*
G75*
G03*
X147809102Y-90532100I825900J0D01*
G01*
%TO.N,/GPIO2_strap*%
X137020300Y-84328000D02*
X136728200Y-84328000D01*
X138032799Y-83906000D02*
X138467200Y-83906000D01*
X137523400Y-84117000D02*
X137518945Y-84121454D01*
X137523400Y-84117000D02*
G75*
G02*
X138032799Y-83906000I509400J-509400D01*
G01*
X137518945Y-84121454D02*
G75*
G02*
X137020300Y-84327997I-498645J498654D01*
G01*
%TO.N,/GPIO3*%
X151620039Y-81501160D02*
X151605160Y-81516039D01*
X138318950Y-84706000D02*
X138170700Y-84706000D01*
X151587200Y-81483200D02*
X151587200Y-81508600D01*
X151798075Y-81323123D02*
X151655960Y-81465239D01*
X138615450Y-84706000D02*
X139172997Y-84706000D01*
X139471400Y-84531200D02*
X139384000Y-84618600D01*
X151958152Y-80936666D02*
X151958152Y-80457152D01*
X151587200Y-81483200D02*
X151612600Y-81483200D01*
%TO.N,/GPIO4*%
X143967200Y-90892900D02*
X143967200Y-91107800D01*
X144068800Y-88468200D02*
X144218000Y-88579300D01*
X144068800Y-88468200D02*
X144170400Y-88493600D01*
X144367200Y-89800578D02*
X144367200Y-89995157D01*
X144367200Y-89411421D02*
X144367200Y-88876421D01*
X144167200Y-90478000D02*
X144119157Y-90526042D01*
X143638000Y-91107800D02*
X143891000Y-91107800D01*
X144167200Y-90478000D02*
G75*
G03*
X144367153Y-89995157I-482900J482800D01*
G01*
X143967200Y-90892900D02*
G75*
G02*
X144119161Y-90526046I518800J0D01*
G01*
%TO.N,/ALRT*%
X142011400Y-92555794D02*
X142011400Y-91760207D01*
X142201899Y-91300299D02*
X142257696Y-91244503D01*
X142767200Y-91099215D02*
X142767200Y-89606000D01*
X142769015Y-91109800D02*
X142582900Y-91109800D01*
X141757400Y-93169005D02*
X141757400Y-95478600D01*
%TD*%
%TA.AperFunction,Conductor*%
%TO.N,GND*%
G36*
X155056647Y-80821427D02*
G01*
X155077500Y-80838273D01*
X155192490Y-80953827D01*
X155514736Y-81277653D01*
X155518997Y-81282155D01*
X156033887Y-81854086D01*
X156037918Y-81858795D01*
X156070972Y-81899423D01*
X156522876Y-82454877D01*
X156523586Y-82455749D01*
X156527377Y-82460654D01*
X156982607Y-83081134D01*
X156986148Y-83086222D01*
X157409802Y-83728675D01*
X157413084Y-83733933D01*
X157804108Y-84396763D01*
X157807123Y-84402179D01*
X158164535Y-85083724D01*
X158167275Y-85089284D01*
X158490168Y-85787807D01*
X158492628Y-85793497D01*
X158520496Y-85862666D01*
X158701527Y-86311993D01*
X158780220Y-86507310D01*
X158782388Y-86513104D01*
X158845598Y-86695852D01*
X159033953Y-87240412D01*
X159035832Y-87246319D01*
X159250730Y-87985262D01*
X159252312Y-87991256D01*
X159430016Y-88740030D01*
X159431296Y-88746095D01*
X159571360Y-89502812D01*
X159572335Y-89508933D01*
X159674408Y-90271707D01*
X159675073Y-90277825D01*
X159738257Y-91033744D01*
X159738616Y-91039844D01*
X159764485Y-91797983D01*
X159764543Y-91804093D01*
X159753036Y-92562583D01*
X159752793Y-92568688D01*
X159703936Y-93325701D01*
X159703392Y-93331787D01*
X159617304Y-94085460D01*
X159616461Y-94091512D01*
X159493351Y-94840031D01*
X159492211Y-94846034D01*
X159332380Y-95587578D01*
X159330946Y-95593517D01*
X159134778Y-96326290D01*
X159133053Y-96332152D01*
X158901025Y-97054379D01*
X158899013Y-97060149D01*
X158631694Y-97770055D01*
X158629401Y-97775718D01*
X158327426Y-98471618D01*
X158324856Y-98477161D01*
X157988989Y-99157299D01*
X157986150Y-99162710D01*
X157617156Y-99825531D01*
X157614053Y-99830794D01*
X157212885Y-100474588D01*
X157209527Y-100479693D01*
X156777112Y-101102973D01*
X156773506Y-101107906D01*
X156310925Y-101709114D01*
X156307081Y-101713863D01*
X155815445Y-102291553D01*
X155811372Y-102296107D01*
X155291868Y-102848886D01*
X155287575Y-102853234D01*
X154741484Y-103379739D01*
X154736982Y-103383871D01*
X154165597Y-103882855D01*
X154160897Y-103886759D01*
X153565648Y-104356973D01*
X153560762Y-104360641D01*
X152943054Y-104800975D01*
X152938008Y-104804387D01*
X152353289Y-105179190D01*
X152299373Y-105213750D01*
X152294150Y-105216919D01*
X151636113Y-105594332D01*
X151630739Y-105597241D01*
X150954911Y-105941778D01*
X150949401Y-105944418D01*
X150257417Y-106255249D01*
X150251783Y-106257614D01*
X149545349Y-106533970D01*
X149539606Y-106536055D01*
X148820412Y-106777279D01*
X148814573Y-106779079D01*
X148084357Y-106984585D01*
X148078436Y-106986095D01*
X147338980Y-107155381D01*
X147332992Y-107156597D01*
X146586114Y-107289250D01*
X146580074Y-107290170D01*
X145827569Y-107385869D01*
X145821490Y-107386491D01*
X145065158Y-107445007D01*
X145059056Y-107445328D01*
X144300773Y-107466516D01*
X144294663Y-107466536D01*
X143536258Y-107450345D01*
X143530155Y-107450064D01*
X142773477Y-107396534D01*
X142767396Y-107395953D01*
X142686920Y-107386257D01*
X142014260Y-107305211D01*
X142008214Y-107304331D01*
X141260465Y-107176601D01*
X141254469Y-107175424D01*
X140513924Y-107011015D01*
X140507993Y-107009544D01*
X139776443Y-106808854D01*
X139770593Y-106807093D01*
X139682691Y-106778253D01*
X139465546Y-106707009D01*
X139049806Y-106570607D01*
X139044049Y-106568559D01*
X138335818Y-106296865D01*
X138330169Y-106294537D01*
X137782109Y-106052683D01*
X137636153Y-105988273D01*
X137630630Y-105985672D01*
X136980159Y-105659442D01*
X136929058Y-105611792D01*
X136911831Y-105544080D01*
X136933947Y-105477802D01*
X136946272Y-105462753D01*
X137994623Y-104370097D01*
X138009378Y-104356989D01*
X138022158Y-104347342D01*
X138043003Y-104320610D01*
X138051298Y-104311028D01*
X138074772Y-104286563D01*
X138082486Y-104272539D01*
X138093349Y-104256049D01*
X138103198Y-104243422D01*
X138116418Y-104212195D01*
X138121948Y-104200797D01*
X138138289Y-104171095D01*
X138142110Y-104155553D01*
X138148340Y-104136805D01*
X138154581Y-104122067D01*
X138159268Y-104088488D01*
X138161661Y-104076040D01*
X138169756Y-104043124D01*
X138169425Y-104027126D01*
X138170590Y-104007409D01*
X138172804Y-103991552D01*
X138172804Y-103991549D01*
X138168640Y-103957891D01*
X138167731Y-103945268D01*
X138167030Y-103911367D01*
X138162566Y-103895988D01*
X138158590Y-103876649D01*
X138156625Y-103860761D01*
X138143898Y-103829343D01*
X138139743Y-103817361D01*
X138130295Y-103784806D01*
X138122007Y-103771113D01*
X138113162Y-103753465D01*
X138107148Y-103738618D01*
X138086715Y-103711555D01*
X138079604Y-103701057D01*
X138062058Y-103672068D01*
X138062056Y-103672067D01*
X138062056Y-103672066D01*
X138050498Y-103660976D01*
X138037393Y-103646226D01*
X138027742Y-103633443D01*
X138027740Y-103633442D01*
X138027740Y-103633441D01*
X138001014Y-103612600D01*
X137991418Y-103604293D01*
X137966963Y-103580829D01*
X137966962Y-103580828D01*
X137966955Y-103580824D01*
X137952927Y-103573106D01*
X137936444Y-103562245D01*
X136060834Y-102099586D01*
X136045641Y-102085551D01*
X136043742Y-102083478D01*
X136036444Y-102075508D01*
X136005850Y-102056003D01*
X135996255Y-102049226D01*
X135967650Y-102026918D01*
X135967644Y-102026915D01*
X135955111Y-102021608D01*
X135936805Y-102011983D01*
X135925322Y-102004663D01*
X135890714Y-101993738D01*
X135879693Y-101989676D01*
X135846292Y-101975533D01*
X135832807Y-101973650D01*
X135812642Y-101969093D01*
X135799649Y-101964992D01*
X135763392Y-101963397D01*
X135751700Y-101962326D01*
X135715773Y-101957310D01*
X135702259Y-101958982D01*
X135681595Y-101959799D01*
X135667995Y-101959201D01*
X135667985Y-101959201D01*
X135632560Y-101967042D01*
X135620993Y-101969034D01*
X135584985Y-101973489D01*
X135584976Y-101973491D01*
X135572355Y-101978603D01*
X135552619Y-101984738D01*
X135539323Y-101987681D01*
X135507130Y-102004426D01*
X135496471Y-102009343D01*
X135462844Y-102022965D01*
X135462837Y-102022969D01*
X135451971Y-102031172D01*
X135434493Y-102042207D01*
X135422412Y-102048491D01*
X135422405Y-102048496D01*
X135395640Y-102073004D01*
X135386621Y-102080510D01*
X135357665Y-102102372D01*
X135349294Y-102113107D01*
X135335257Y-102128300D01*
X133946796Y-103399743D01*
X133884060Y-103430501D01*
X133814655Y-103422458D01*
X133780382Y-103400712D01*
X133700097Y-103328893D01*
X133616458Y-103254073D01*
X133611943Y-103249827D01*
X133064706Y-102708692D01*
X133060452Y-102704268D01*
X132540948Y-102136472D01*
X132536911Y-102131832D01*
X132046430Y-101538780D01*
X132042600Y-101533906D01*
X131706944Y-101084046D01*
X131582386Y-100917108D01*
X131578811Y-100912059D01*
X131497641Y-100791099D01*
X131193909Y-100338473D01*
X131149990Y-100273024D01*
X131146666Y-100267792D01*
X130750326Y-99608145D01*
X130747267Y-99602753D01*
X130732845Y-99575782D01*
X130481279Y-99105322D01*
X139588601Y-99105322D01*
X139598744Y-99204607D01*
X139652052Y-99365481D01*
X139652057Y-99365492D01*
X139741024Y-99509728D01*
X139741027Y-99509732D01*
X139860867Y-99629572D01*
X139860871Y-99629575D01*
X140005107Y-99718542D01*
X140005118Y-99718547D01*
X140165993Y-99771855D01*
X140265283Y-99781999D01*
X140313599Y-99781998D01*
X140313600Y-99781998D01*
X140313600Y-99082000D01*
X139588601Y-99082000D01*
X139588601Y-99105322D01*
X130481279Y-99105322D01*
X130384369Y-98924087D01*
X130381612Y-98918606D01*
X130053076Y-98222642D01*
X130050576Y-98216982D01*
X130030795Y-98169003D01*
X129757244Y-97505499D01*
X129755043Y-97499757D01*
X129497625Y-96774487D01*
X129495700Y-96768601D01*
X129489620Y-96748305D01*
X129297458Y-96106844D01*
X131073200Y-96106844D01*
X131079601Y-96166372D01*
X131079603Y-96166379D01*
X131129845Y-96301086D01*
X131129849Y-96301093D01*
X131216009Y-96416187D01*
X131216012Y-96416190D01*
X131331106Y-96502350D01*
X131331113Y-96502354D01*
X131465820Y-96552596D01*
X131465827Y-96552598D01*
X131525355Y-96558999D01*
X131525372Y-96559000D01*
X132078200Y-96559000D01*
X132578200Y-96559000D01*
X133131028Y-96559000D01*
X133131044Y-96558999D01*
X133190572Y-96552598D01*
X133190579Y-96552596D01*
X133325286Y-96502354D01*
X133325293Y-96502350D01*
X133440387Y-96416190D01*
X133440390Y-96416187D01*
X133526550Y-96301093D01*
X133526554Y-96301086D01*
X133576796Y-96166379D01*
X133576798Y-96166372D01*
X133583199Y-96106844D01*
X133583200Y-96106827D01*
X133583200Y-95119000D01*
X132578200Y-95119000D01*
X132578200Y-96559000D01*
X132078200Y-96559000D01*
X132078200Y-95119000D01*
X131073200Y-95119000D01*
X131073200Y-96106844D01*
X129297458Y-96106844D01*
X129274847Y-96031367D01*
X129273229Y-96025427D01*
X129089494Y-95278077D01*
X129088178Y-95272081D01*
X128942025Y-94516500D01*
X128941000Y-94510387D01*
X128832789Y-93748461D01*
X128832071Y-93742304D01*
X128827707Y-93694521D01*
X128821919Y-93631155D01*
X131073200Y-93631155D01*
X131073200Y-94619000D01*
X132078200Y-94619000D01*
X132578200Y-94619000D01*
X133583200Y-94619000D01*
X133583200Y-93631172D01*
X133583199Y-93631155D01*
X133576798Y-93571627D01*
X133576796Y-93571620D01*
X133526554Y-93436913D01*
X133526550Y-93436906D01*
X133440390Y-93321812D01*
X133440387Y-93321809D01*
X133325293Y-93235649D01*
X133325286Y-93235645D01*
X133190579Y-93185403D01*
X133190572Y-93185401D01*
X133131044Y-93179000D01*
X132578200Y-93179000D01*
X132578200Y-94619000D01*
X132078200Y-94619000D01*
X132078200Y-93179000D01*
X131525355Y-93179000D01*
X131465827Y-93185401D01*
X131465820Y-93185403D01*
X131331113Y-93235645D01*
X131331106Y-93235649D01*
X131216012Y-93321809D01*
X131216009Y-93321812D01*
X131129849Y-93436906D01*
X131129845Y-93436913D01*
X131079603Y-93571620D01*
X131079601Y-93571627D01*
X131073200Y-93631155D01*
X128821919Y-93631155D01*
X128762071Y-92975909D01*
X128761663Y-92969737D01*
X128730049Y-92200811D01*
X128729950Y-92194657D01*
X128736803Y-91425082D01*
X128737013Y-91418903D01*
X128737727Y-91406793D01*
X128782315Y-90650637D01*
X128782827Y-90644543D01*
X128866470Y-89879459D01*
X128867297Y-89873331D01*
X128870570Y-89852910D01*
X128989056Y-89113462D01*
X128990187Y-89107384D01*
X128992067Y-89098517D01*
X129149779Y-88354493D01*
X129151198Y-88348540D01*
X129348213Y-87604581D01*
X129349946Y-87598641D01*
X129349987Y-87598514D01*
X129583889Y-86865463D01*
X129585904Y-86859655D01*
X129590048Y-86848608D01*
X129632026Y-86792755D01*
X129697537Y-86768463D01*
X129765782Y-86783446D01*
X129815093Y-86832945D01*
X129829814Y-86901246D01*
X129829675Y-86902971D01*
X129817919Y-87037343D01*
X129817919Y-87037346D01*
X129838506Y-87272660D01*
X129838508Y-87272671D01*
X129895711Y-87486156D01*
X130623064Y-87066218D01*
X130623064Y-87109755D01*
X130660546Y-87249642D01*
X130732957Y-87375060D01*
X130835361Y-87477464D01*
X130873063Y-87499231D01*
X130145711Y-87919168D01*
X130301993Y-88075450D01*
X130495497Y-88210945D01*
X130709583Y-88310774D01*
X130709592Y-88310778D01*
X130937749Y-88371912D01*
X130937760Y-88371914D01*
X131173073Y-88392501D01*
X131207365Y-88389501D01*
X131275865Y-88403266D01*
X131326049Y-88451880D01*
X131341984Y-88519908D01*
X131337950Y-88545121D01*
X131285045Y-88742572D01*
X131285042Y-88742585D01*
X131264447Y-88977988D01*
X131264447Y-88977989D01*
X131285042Y-89213392D01*
X131285044Y-89213402D01*
X131346200Y-89441644D01*
X131346202Y-89441648D01*
X131346203Y-89441652D01*
X131401802Y-89560884D01*
X131446071Y-89655819D01*
X131446073Y-89655823D01*
X131495076Y-89725806D01*
X131581611Y-89849390D01*
X131748705Y-90016484D01*
X131802061Y-90053844D01*
X131942271Y-90152021D01*
X131942273Y-90152022D01*
X131942276Y-90152024D01*
X132156443Y-90251892D01*
X132384698Y-90313052D01*
X132566740Y-90328979D01*
X132620105Y-90333648D01*
X132620106Y-90333648D01*
X132620107Y-90333648D01*
X132673403Y-90328985D01*
X132855514Y-90313052D01*
X133083769Y-90251892D01*
X133297936Y-90152024D01*
X133491507Y-90016484D01*
X133658601Y-89849390D01*
X133794141Y-89655819D01*
X133894009Y-89441652D01*
X133955169Y-89213397D01*
X133975765Y-88977989D01*
X133955169Y-88742581D01*
X133894009Y-88514326D01*
X133794141Y-88300160D01*
X133786289Y-88288945D01*
X133658600Y-88106586D01*
X133491508Y-87939495D01*
X133491501Y-87939490D01*
X133297940Y-87803956D01*
X133297936Y-87803954D01*
X133270362Y-87791096D01*
X133083769Y-87704086D01*
X133083765Y-87704085D01*
X133083761Y-87704083D01*
X132855519Y-87642927D01*
X132855509Y-87642925D01*
X132620107Y-87622330D01*
X132620102Y-87622330D01*
X132585419Y-87625364D01*
X132516919Y-87611597D01*
X132466737Y-87562981D01*
X132450804Y-87494952D01*
X132454838Y-87469743D01*
X132499451Y-87303244D01*
X132535816Y-87243583D01*
X132598663Y-87213054D01*
X132668038Y-87221349D01*
X132690349Y-87233762D01*
X132718979Y-87253809D01*
X132718983Y-87253811D01*
X132933070Y-87353641D01*
X132933079Y-87353645D01*
X133161236Y-87414779D01*
X133161247Y-87414781D01*
X133396561Y-87435369D01*
X133396565Y-87435369D01*
X133631878Y-87414781D01*
X133631885Y-87414780D01*
X133845375Y-87357575D01*
X133425438Y-86630224D01*
X133468973Y-86630224D01*
X133608860Y-86592742D01*
X133734278Y-86520331D01*
X133836682Y-86417927D01*
X133858449Y-86380224D01*
X134278386Y-87107575D01*
X134434669Y-86951293D01*
X134434672Y-86951290D01*
X134506719Y-86848397D01*
X134561296Y-86804773D01*
X134630795Y-86797580D01*
X134693149Y-86829102D01*
X134728563Y-86889332D01*
X134732293Y-86919509D01*
X134732296Y-86945837D01*
X134732300Y-87005527D01*
X134732300Y-88505053D01*
X134732294Y-88505073D01*
X134732294Y-88707777D01*
X134732295Y-88707778D01*
X134766187Y-89008567D01*
X134833547Y-89303682D01*
X134833549Y-89303691D01*
X134933524Y-89589401D01*
X134933527Y-89589408D01*
X135064867Y-89862135D01*
X135225916Y-90118442D01*
X135331920Y-90251366D01*
X135414649Y-90355105D01*
X135469760Y-90410216D01*
X135469789Y-90410247D01*
X135662378Y-90602835D01*
X135668988Y-90609986D01*
X135741207Y-90694546D01*
X135752644Y-90710287D01*
X135808192Y-90800935D01*
X135817025Y-90818272D01*
X135857708Y-90916492D01*
X135863721Y-90934997D01*
X135888538Y-91038368D01*
X135891582Y-91057586D01*
X135900318Y-91168582D01*
X135900700Y-91178311D01*
X135900700Y-91370107D01*
X135881694Y-91436078D01*
X135875409Y-91446079D01*
X135815833Y-91616337D01*
X135815830Y-91616350D01*
X135795635Y-91795596D01*
X135795635Y-91795603D01*
X135815830Y-91974849D01*
X135815831Y-91974854D01*
X135843742Y-92054617D01*
X135850700Y-92095572D01*
X135850700Y-92741961D01*
X135850697Y-92742023D01*
X135850699Y-92818864D01*
X135849639Y-92835047D01*
X135846238Y-92860889D01*
X135837861Y-92892158D01*
X135831025Y-92908663D01*
X135814835Y-92936704D01*
X135799079Y-92957236D01*
X135788388Y-92969427D01*
X135715474Y-93042340D01*
X135648219Y-93129988D01*
X135591790Y-93171190D01*
X135549844Y-93178500D01*
X135245330Y-93178500D01*
X135245323Y-93178501D01*
X135185716Y-93184908D01*
X135050871Y-93235202D01*
X135050864Y-93235206D01*
X134935655Y-93321452D01*
X134935652Y-93321455D01*
X134849406Y-93436664D01*
X134849402Y-93436671D01*
X134799108Y-93571517D01*
X134793016Y-93628184D01*
X134792701Y-93631123D01*
X134792700Y-93631135D01*
X134792700Y-96106870D01*
X134792701Y-96106876D01*
X134799108Y-96166483D01*
X134849402Y-96301328D01*
X134849406Y-96301335D01*
X134935652Y-96416544D01*
X134935655Y-96416547D01*
X135050864Y-96502793D01*
X135050871Y-96502797D01*
X135185717Y-96553091D01*
X135185716Y-96553091D01*
X135192644Y-96553835D01*
X135245327Y-96559500D01*
X136851072Y-96559499D01*
X136910683Y-96553091D01*
X137045531Y-96502796D01*
X137160746Y-96416546D01*
X137246996Y-96301331D01*
X137297291Y-96166483D01*
X137303700Y-96106873D01*
X137303699Y-93631128D01*
X137297291Y-93571517D01*
X137260150Y-93471938D01*
X137255167Y-93402250D01*
X137261772Y-93381156D01*
X137265227Y-93372817D01*
X137322715Y-93158249D01*
X137351704Y-92938012D01*
X137351700Y-92826944D01*
X137351700Y-92816058D01*
X137351700Y-92375800D01*
X138590696Y-92375800D01*
X138633168Y-92521995D01*
X138715478Y-92661174D01*
X138715485Y-92661183D01*
X138829816Y-92775514D01*
X138829825Y-92775521D01*
X138969004Y-92857831D01*
X139124289Y-92902945D01*
X139145200Y-92904589D01*
X139145200Y-92375800D01*
X138590696Y-92375800D01*
X137351700Y-92375800D01*
X137351700Y-92095572D01*
X137358658Y-92054617D01*
X137362058Y-92044900D01*
X137386568Y-91974855D01*
X137386569Y-91974849D01*
X137406765Y-91795603D01*
X137406765Y-91795596D01*
X137386569Y-91616350D01*
X137386566Y-91616337D01*
X137326990Y-91446079D01*
X137320706Y-91436078D01*
X137301700Y-91370107D01*
X137301700Y-91098404D01*
X137301689Y-91098176D01*
X137301689Y-91049588D01*
X137301688Y-91049584D01*
X137300424Y-91038368D01*
X137284768Y-90899407D01*
X137273990Y-90803742D01*
X137273987Y-90803725D01*
X137273350Y-90800935D01*
X137218933Y-90562513D01*
X137137218Y-90328979D01*
X137029869Y-90106062D01*
X136997059Y-90053844D01*
X137567200Y-90053844D01*
X137573601Y-90113372D01*
X137573603Y-90113379D01*
X137623845Y-90248086D01*
X137623849Y-90248093D01*
X137710009Y-90363187D01*
X137710012Y-90363190D01*
X137825106Y-90449350D01*
X137825113Y-90449354D01*
X137959820Y-90499596D01*
X137959827Y-90499598D01*
X138019355Y-90505999D01*
X138019372Y-90506000D01*
X138167200Y-90506000D01*
X138167200Y-89906000D01*
X137567200Y-89906000D01*
X137567200Y-90053844D01*
X136997059Y-90053844D01*
X136898237Y-89896565D01*
X136860617Y-89849390D01*
X136743982Y-89703129D01*
X136743979Y-89703126D01*
X136710269Y-89669415D01*
X136710243Y-89669386D01*
X136683737Y-89642880D01*
X136650252Y-89581557D01*
X136655236Y-89511865D01*
X136697108Y-89455932D01*
X136762572Y-89431515D01*
X136771418Y-89431199D01*
X136950308Y-89431199D01*
X136950322Y-89431198D01*
X137049607Y-89421055D01*
X137210481Y-89367747D01*
X137210492Y-89367742D01*
X137354728Y-89278775D01*
X137354732Y-89278772D01*
X137355519Y-89277986D01*
X137356191Y-89277618D01*
X137360395Y-89274295D01*
X137360963Y-89275013D01*
X137416842Y-89244501D01*
X137486534Y-89249485D01*
X137542467Y-89291357D01*
X137566884Y-89356821D01*
X137567200Y-89365667D01*
X137567200Y-89406000D01*
X138167200Y-89406000D01*
X138167200Y-88887000D01*
X138186885Y-88819961D01*
X138239689Y-88774206D01*
X138260527Y-88769672D01*
X138267200Y-88763000D01*
X138267200Y-88730499D01*
X138286885Y-88663460D01*
X138339689Y-88617705D01*
X138391197Y-88606499D01*
X138543201Y-88606499D01*
X138610239Y-88626184D01*
X138655994Y-88678988D01*
X138667200Y-88730499D01*
X138667200Y-90506000D01*
X138675399Y-90514199D01*
X138708884Y-90575522D01*
X138703900Y-90645214D01*
X138694450Y-90665001D01*
X138632705Y-90769406D01*
X138632704Y-90769409D01*
X138587557Y-90924802D01*
X138587556Y-90924808D01*
X138584700Y-90961102D01*
X138584700Y-91370497D01*
X138587556Y-91406791D01*
X138587557Y-91406797D01*
X138632704Y-91562190D01*
X138632707Y-91562197D01*
X138645110Y-91583170D01*
X138662293Y-91650894D01*
X138645112Y-91709408D01*
X138633168Y-91729604D01*
X138590696Y-91875800D01*
X138896848Y-91875800D01*
X138959966Y-91893067D01*
X138968805Y-91898294D01*
X138968808Y-91898294D01*
X138968810Y-91898296D01*
X139124202Y-91943442D01*
X139124205Y-91943442D01*
X139124207Y-91943443D01*
X139160510Y-91946300D01*
X139160518Y-91946300D01*
X139629882Y-91946300D01*
X139629890Y-91946300D01*
X139666193Y-91943443D01*
X139666195Y-91943442D01*
X139666197Y-91943442D01*
X139707175Y-91931536D01*
X139821595Y-91898294D01*
X139873381Y-91867667D01*
X139936501Y-91850400D01*
X140065248Y-91850400D01*
X140128366Y-91867667D01*
X140137205Y-91872894D01*
X140137208Y-91872894D01*
X140137210Y-91872896D01*
X140292602Y-91918042D01*
X140292605Y-91918042D01*
X140292607Y-91918043D01*
X140328910Y-91920900D01*
X140328918Y-91920900D01*
X140689600Y-91920900D01*
X140756639Y-91940585D01*
X140802394Y-91993389D01*
X140813600Y-92044900D01*
X140813600Y-92144091D01*
X140793915Y-92211130D01*
X140755571Y-92249085D01*
X140624577Y-92331394D01*
X140558607Y-92350400D01*
X140239122Y-92350400D01*
X140197796Y-92372966D01*
X140171438Y-92375800D01*
X139645200Y-92375800D01*
X139645200Y-92904589D01*
X139666110Y-92902945D01*
X139821393Y-92857832D01*
X139937752Y-92789017D01*
X140005476Y-92771834D01*
X140063995Y-92789017D01*
X140137404Y-92832431D01*
X140228209Y-92858812D01*
X140287095Y-92896418D01*
X140316302Y-92959891D01*
X140316835Y-92964006D01*
X140337030Y-93143249D01*
X140337031Y-93143254D01*
X140396611Y-93313523D01*
X140473986Y-93436664D01*
X140492584Y-93466262D01*
X140620138Y-93593816D01*
X140710480Y-93650582D01*
X140739986Y-93669122D01*
X140772878Y-93689789D01*
X140922957Y-93742304D01*
X140943145Y-93749368D01*
X140943149Y-93749369D01*
X141032257Y-93759408D01*
X141046783Y-93761045D01*
X141111197Y-93788111D01*
X141150752Y-93845705D01*
X141156900Y-93884265D01*
X141156900Y-94896187D01*
X141137215Y-94963226D01*
X141129850Y-94973496D01*
X141127586Y-94976334D01*
X141031611Y-95129076D01*
X140972031Y-95299345D01*
X140972030Y-95299350D01*
X140951835Y-95478596D01*
X140951835Y-95478603D01*
X140972030Y-95657849D01*
X140972031Y-95657854D01*
X141031611Y-95828123D01*
X141070955Y-95890738D01*
X141127584Y-95980862D01*
X141255138Y-96108416D01*
X141407878Y-96204389D01*
X141473500Y-96227351D01*
X141578145Y-96263968D01*
X141578150Y-96263969D01*
X141624584Y-96269201D01*
X141688998Y-96296267D01*
X141728554Y-96353862D01*
X141730691Y-96423699D01*
X141694733Y-96483605D01*
X141658154Y-96506982D01*
X141588932Y-96535655D01*
X141570427Y-96541668D01*
X141458111Y-96568633D01*
X141438895Y-96571677D01*
X141417453Y-96573365D01*
X141349075Y-96559002D01*
X141320040Y-96537428D01*
X141266644Y-96484032D01*
X141266640Y-96484029D01*
X141122305Y-96395001D01*
X141122299Y-96394998D01*
X141122297Y-96394997D01*
X141122294Y-96394996D01*
X140961309Y-96341651D01*
X140861946Y-96331500D01*
X140265262Y-96331500D01*
X140265244Y-96331501D01*
X140165892Y-96341650D01*
X140165889Y-96341651D01*
X140004905Y-96394996D01*
X140004894Y-96395001D01*
X139860559Y-96484029D01*
X139860555Y-96484032D01*
X139740632Y-96603955D01*
X139740629Y-96603959D01*
X139651601Y-96748294D01*
X139651596Y-96748305D01*
X139598251Y-96909290D01*
X139588100Y-97008647D01*
X139588100Y-97555337D01*
X139588101Y-97555355D01*
X139598250Y-97654707D01*
X139598251Y-97654710D01*
X139651596Y-97815694D01*
X139651601Y-97815705D01*
X139740629Y-97960040D01*
X139740632Y-97960044D01*
X139750260Y-97969672D01*
X139783745Y-98030995D01*
X139778761Y-98100687D01*
X139750263Y-98145031D01*
X139741028Y-98154265D01*
X139741024Y-98154271D01*
X139652057Y-98298507D01*
X139652052Y-98298518D01*
X139598744Y-98459393D01*
X139588600Y-98558677D01*
X139588600Y-98582000D01*
X140689600Y-98582000D01*
X140756639Y-98601685D01*
X140802394Y-98654489D01*
X140813600Y-98706000D01*
X140813600Y-99781999D01*
X140861908Y-99781999D01*
X140861922Y-99781998D01*
X140961205Y-99771856D01*
X141033695Y-99747835D01*
X141103524Y-99745433D01*
X141163566Y-99781164D01*
X141194759Y-99843685D01*
X141196700Y-99865541D01*
X141196700Y-100774370D01*
X141196701Y-100774376D01*
X141203108Y-100833983D01*
X141253402Y-100968828D01*
X141253406Y-100968835D01*
X141339652Y-101084044D01*
X141339655Y-101084047D01*
X141454864Y-101170293D01*
X141454871Y-101170297D01*
X141589717Y-101220591D01*
X141589716Y-101220591D01*
X141596644Y-101221335D01*
X141649327Y-101227000D01*
X142645072Y-101226999D01*
X142704683Y-101220591D01*
X142839531Y-101170296D01*
X142954746Y-101084046D01*
X143040996Y-100968831D01*
X143091291Y-100833983D01*
X143097700Y-100774373D01*
X143097699Y-99107361D01*
X143117384Y-99040323D01*
X143134019Y-99019680D01*
X143147200Y-99006499D01*
X143147200Y-98256500D01*
X142647200Y-98256500D01*
X142647200Y-98502000D01*
X142627515Y-98569039D01*
X142574711Y-98614794D01*
X142523200Y-98626000D01*
X141657453Y-98626000D01*
X141590414Y-98606315D01*
X141544659Y-98553511D01*
X141534095Y-98514600D01*
X141528456Y-98459393D01*
X141475147Y-98298518D01*
X141475142Y-98298507D01*
X141393330Y-98165870D01*
X141374889Y-98098478D01*
X141395811Y-98031814D01*
X141449453Y-97987045D01*
X141484981Y-97977553D01*
X141693437Y-97954064D01*
X141870031Y-97913755D01*
X141941064Y-97897543D01*
X141941064Y-97897542D01*
X141941071Y-97897541D01*
X142180819Y-97813647D01*
X142409667Y-97703438D01*
X142457229Y-97673552D01*
X142524463Y-97654552D01*
X142591299Y-97674919D01*
X142636513Y-97728186D01*
X142641261Y-97750561D01*
X142647200Y-97756500D01*
X143322700Y-97756500D01*
X143389739Y-97776185D01*
X143435494Y-97828989D01*
X143446700Y-97880500D01*
X143446700Y-98554370D01*
X143446701Y-98554376D01*
X143453108Y-98613983D01*
X143503402Y-98748828D01*
X143503403Y-98748829D01*
X143503404Y-98748831D01*
X143589654Y-98864046D01*
X143597508Y-98869925D01*
X143639380Y-98925856D01*
X143647200Y-98969194D01*
X143647200Y-99006500D01*
X143695028Y-99006500D01*
X143695044Y-99006499D01*
X143754575Y-99000098D01*
X143762126Y-98998314D01*
X143762515Y-98999962D01*
X143822824Y-98995640D01*
X143839587Y-99000560D01*
X143839711Y-99000588D01*
X143839717Y-99000591D01*
X143899327Y-99007000D01*
X144272700Y-99006999D01*
X144339739Y-99026683D01*
X144385494Y-99079487D01*
X144396700Y-99130999D01*
X144396700Y-99575782D01*
X144377015Y-99642821D01*
X144338673Y-99680775D01*
X144226939Y-99750982D01*
X144099384Y-99878537D01*
X144003411Y-100031276D01*
X143943831Y-100201545D01*
X143943830Y-100201550D01*
X143923635Y-100380796D01*
X143923635Y-100380803D01*
X143943830Y-100560049D01*
X143943831Y-100560054D01*
X144003411Y-100730323D01*
X144099384Y-100883062D01*
X144226938Y-101010616D01*
X144317280Y-101067382D01*
X144343802Y-101084047D01*
X144379678Y-101106589D01*
X144518972Y-101155330D01*
X144549945Y-101166168D01*
X144549950Y-101166169D01*
X144729196Y-101186365D01*
X144729200Y-101186365D01*
X144729204Y-101186365D01*
X144908449Y-101166169D01*
X144908452Y-101166168D01*
X144908455Y-101166168D01*
X145078722Y-101106589D01*
X145231462Y-101010616D01*
X145359016Y-100883062D01*
X145454989Y-100730322D01*
X145514568Y-100560055D01*
X145517625Y-100532928D01*
X145523207Y-100483379D01*
X145534765Y-100380800D01*
X145533169Y-100366641D01*
X145545221Y-100297824D01*
X145592568Y-100246442D01*
X145660177Y-100228815D01*
X145670267Y-100229536D01*
X145732247Y-100236519D01*
X145821397Y-100246565D01*
X145821400Y-100246565D01*
X145821403Y-100246565D01*
X145932707Y-100234023D01*
X145958816Y-100231082D01*
X146027638Y-100243136D01*
X146079018Y-100290485D01*
X146096700Y-100354302D01*
X146096700Y-100774370D01*
X146096701Y-100774376D01*
X146103108Y-100833983D01*
X146153402Y-100968828D01*
X146153406Y-100968835D01*
X146239652Y-101084044D01*
X146239655Y-101084047D01*
X146354864Y-101170293D01*
X146354871Y-101170297D01*
X146489717Y-101220591D01*
X146489716Y-101220591D01*
X146496644Y-101221335D01*
X146549327Y-101227000D01*
X147545072Y-101226999D01*
X147604683Y-101220591D01*
X147739531Y-101170296D01*
X147854746Y-101084046D01*
X147940996Y-100968831D01*
X147991291Y-100833983D01*
X147997700Y-100774373D01*
X147997699Y-99078628D01*
X147991291Y-99019017D01*
X147986622Y-99006500D01*
X147940997Y-98884171D01*
X147940993Y-98884164D01*
X147854747Y-98768955D01*
X147854744Y-98768952D01*
X147739535Y-98682706D01*
X147739528Y-98682702D01*
X147604682Y-98632408D01*
X147604683Y-98632408D01*
X147545083Y-98626001D01*
X147545081Y-98626000D01*
X147545073Y-98626000D01*
X147545065Y-98626000D01*
X147240268Y-98626000D01*
X147173229Y-98606315D01*
X147127474Y-98553511D01*
X147117530Y-98484353D01*
X147146555Y-98420797D01*
X147178274Y-98394610D01*
X147328525Y-98307872D01*
X147328524Y-98307872D01*
X147328527Y-98307871D01*
X147515097Y-98164727D01*
X147540585Y-98139241D01*
X147540692Y-98139148D01*
X147541670Y-98138171D01*
X147543922Y-98136162D01*
X147544792Y-98135214D01*
X147548513Y-98131326D01*
X147561987Y-98117852D01*
X147562385Y-98117634D01*
X147594241Y-98085670D01*
X147603399Y-98077355D01*
X147678680Y-98015574D01*
X147698880Y-98002077D01*
X147779854Y-97958798D01*
X147802305Y-97949499D01*
X147890162Y-97922849D01*
X147914000Y-97918108D01*
X148011620Y-97908496D01*
X148023765Y-97907900D01*
X148090433Y-97907902D01*
X148090437Y-97907900D01*
X148098017Y-97907901D01*
X148098050Y-97907900D01*
X148179886Y-97907900D01*
X148247925Y-97907900D01*
X148257653Y-97908281D01*
X148424682Y-97921427D01*
X148443891Y-97924470D01*
X148602057Y-97962442D01*
X148620545Y-97968449D01*
X148770828Y-98030699D01*
X148788162Y-98039532D01*
X148926840Y-98124514D01*
X148942582Y-98135951D01*
X149070010Y-98244785D01*
X149077159Y-98251394D01*
X149178781Y-98353016D01*
X149212266Y-98414339D01*
X149215100Y-98440697D01*
X149215100Y-100338470D01*
X149215101Y-100338476D01*
X149221508Y-100398083D01*
X149271802Y-100532928D01*
X149271806Y-100532935D01*
X149358052Y-100648144D01*
X149358055Y-100648147D01*
X149473264Y-100734393D01*
X149473271Y-100734397D01*
X149608117Y-100784691D01*
X149608116Y-100784691D01*
X149615044Y-100785435D01*
X149667727Y-100791100D01*
X151263472Y-100791099D01*
X151323083Y-100784691D01*
X151457931Y-100734396D01*
X151573146Y-100648146D01*
X151659396Y-100532931D01*
X151709691Y-100398083D01*
X151716100Y-100338473D01*
X151716099Y-97242728D01*
X151709691Y-97183117D01*
X151709250Y-97181935D01*
X152063900Y-97181935D01*
X152063900Y-100277670D01*
X152063901Y-100277676D01*
X152070308Y-100337283D01*
X152120602Y-100472128D01*
X152120606Y-100472135D01*
X152206852Y-100587344D01*
X152206855Y-100587347D01*
X152322064Y-100673593D01*
X152322071Y-100673597D01*
X152456917Y-100723891D01*
X152456916Y-100723891D01*
X152463844Y-100724635D01*
X152516527Y-100730300D01*
X154112272Y-100730299D01*
X154171883Y-100723891D01*
X154306731Y-100673596D01*
X154421946Y-100587346D01*
X154508196Y-100472131D01*
X154558491Y-100337283D01*
X154564900Y-100277673D01*
X154564899Y-97181928D01*
X154558491Y-97122317D01*
X154528754Y-97042589D01*
X154508197Y-96987471D01*
X154508193Y-96987464D01*
X154421947Y-96872255D01*
X154421944Y-96872252D01*
X154306735Y-96786006D01*
X154306728Y-96786002D01*
X154171882Y-96735708D01*
X154171883Y-96735708D01*
X154112283Y-96729301D01*
X154112281Y-96729300D01*
X154112273Y-96729300D01*
X154112265Y-96729300D01*
X153914614Y-96729300D01*
X153847575Y-96709615D01*
X153801820Y-96656811D01*
X153791876Y-96587653D01*
X153793725Y-96577697D01*
X153794963Y-96572267D01*
X153794968Y-96572255D01*
X153811706Y-96423699D01*
X153815165Y-96393003D01*
X153815165Y-96392996D01*
X153794969Y-96213750D01*
X153794968Y-96213745D01*
X153770311Y-96143280D01*
X153735389Y-96043478D01*
X153725934Y-96028431D01*
X153674604Y-95946739D01*
X153639416Y-95890738D01*
X153511862Y-95763184D01*
X153359123Y-95667211D01*
X153188854Y-95607631D01*
X153188849Y-95607630D01*
X153009604Y-95587435D01*
X153009596Y-95587435D01*
X152830350Y-95607630D01*
X152830345Y-95607631D01*
X152660076Y-95667211D01*
X152507337Y-95763184D01*
X152379784Y-95890737D01*
X152283811Y-96043476D01*
X152224231Y-96213745D01*
X152224230Y-96213750D01*
X152204035Y-96392996D01*
X152204035Y-96393003D01*
X152224230Y-96572249D01*
X152224232Y-96572257D01*
X152273797Y-96713906D01*
X152277358Y-96783685D01*
X152242629Y-96844312D01*
X152231070Y-96854124D01*
X152206857Y-96872250D01*
X152206851Y-96872257D01*
X152120606Y-96987464D01*
X152120602Y-96987471D01*
X152070308Y-97122317D01*
X152063901Y-97181916D01*
X152063901Y-97181923D01*
X152063900Y-97181935D01*
X151709250Y-97181935D01*
X151659397Y-97048271D01*
X151659393Y-97048264D01*
X151573147Y-96933055D01*
X151573144Y-96933052D01*
X151457935Y-96846806D01*
X151457928Y-96846802D01*
X151323082Y-96796508D01*
X151323083Y-96796508D01*
X151263483Y-96790101D01*
X151263481Y-96790100D01*
X151263473Y-96790100D01*
X151263464Y-96790100D01*
X149667729Y-96790100D01*
X149667723Y-96790101D01*
X149608116Y-96796508D01*
X149473271Y-96846802D01*
X149473269Y-96846804D01*
X149380532Y-96916227D01*
X149315068Y-96940644D01*
X149252420Y-96928680D01*
X149158089Y-96883252D01*
X149158086Y-96883251D01*
X149158082Y-96883249D01*
X148907702Y-96795637D01*
X148907690Y-96795633D01*
X148708089Y-96750075D01*
X148649058Y-96736602D01*
X148649055Y-96736601D01*
X148649043Y-96736599D01*
X148385448Y-96706900D01*
X148385442Y-96706900D01*
X148331857Y-96706900D01*
X148247700Y-96706900D01*
X148180661Y-96687215D01*
X148134906Y-96634411D01*
X148123700Y-96582900D01*
X148123700Y-93641542D01*
X148143385Y-93574503D01*
X148196189Y-93528748D01*
X148265347Y-93518804D01*
X148328903Y-93547829D01*
X148364742Y-93600588D01*
X148397610Y-93694521D01*
X148444755Y-93769551D01*
X148493584Y-93847262D01*
X148621138Y-93974816D01*
X148657203Y-93997477D01*
X148733452Y-94045388D01*
X148773878Y-94070789D01*
X148856687Y-94099765D01*
X148944145Y-94130368D01*
X148944150Y-94130369D01*
X149123396Y-94150565D01*
X149123400Y-94150565D01*
X149123404Y-94150565D01*
X149302649Y-94130369D01*
X149302652Y-94130368D01*
X149302655Y-94130368D01*
X149472922Y-94070789D01*
X149625662Y-93974816D01*
X149753216Y-93847262D01*
X149849189Y-93694522D01*
X149908768Y-93524255D01*
X149909382Y-93518804D01*
X149928965Y-93345003D01*
X149928965Y-93344996D01*
X149908769Y-93165750D01*
X149908766Y-93165737D01*
X149849190Y-92995479D01*
X149843975Y-92987180D01*
X149824973Y-92919944D01*
X149845339Y-92853108D01*
X149885846Y-92814474D01*
X150005798Y-92743535D01*
X150119335Y-92629998D01*
X150201069Y-92491793D01*
X150235591Y-92372966D01*
X150245864Y-92337608D01*
X150245865Y-92337602D01*
X150248699Y-92301588D01*
X150248700Y-92301581D01*
X150248699Y-91903220D01*
X150245865Y-91867196D01*
X150238398Y-91841494D01*
X150238597Y-91771627D01*
X150276538Y-91712956D01*
X150340176Y-91684112D01*
X150357474Y-91682900D01*
X150663045Y-91682900D01*
X150663049Y-91682901D01*
X150684579Y-91682900D01*
X150684648Y-91682920D01*
X150735963Y-91682919D01*
X150735963Y-91682920D01*
X150888804Y-91682917D01*
X150888816Y-91682917D01*
X150959604Y-91674939D01*
X151192589Y-91648684D01*
X151490623Y-91580654D01*
X151779166Y-91479684D01*
X152054590Y-91347044D01*
X152313432Y-91184400D01*
X152552437Y-90993799D01*
X152594407Y-90951826D01*
X152594411Y-90951824D01*
X152604618Y-90941616D01*
X152604620Y-90941616D01*
X152624197Y-90922037D01*
X152624203Y-90922034D01*
X152660518Y-90885718D01*
X152684617Y-90861617D01*
X152684661Y-90861593D01*
X152720956Y-90825297D01*
X152720957Y-90825298D01*
X152820844Y-90725407D01*
X152996995Y-90504515D01*
X153147307Y-90265289D01*
X153269889Y-90010738D01*
X153269891Y-90010731D01*
X153271183Y-90008049D01*
X153318005Y-89956189D01*
X153339563Y-89945670D01*
X153449583Y-89904635D01*
X153519274Y-89899652D01*
X153536249Y-89904636D01*
X153649823Y-89946997D01*
X153649827Y-89946998D01*
X153709355Y-89953399D01*
X153709372Y-89953400D01*
X153877200Y-89953400D01*
X153877200Y-86553400D01*
X153709355Y-86553400D01*
X153649827Y-86559801D01*
X153649820Y-86559803D01*
X153536247Y-86602163D01*
X153466555Y-86607147D01*
X153449581Y-86602163D01*
X153334682Y-86559308D01*
X153334683Y-86559308D01*
X153275083Y-86552901D01*
X153275081Y-86552900D01*
X153275073Y-86552900D01*
X153275064Y-86552900D01*
X152439329Y-86552900D01*
X152439323Y-86552901D01*
X152379716Y-86559308D01*
X152244871Y-86609602D01*
X152244864Y-86609606D01*
X152129655Y-86695852D01*
X152129652Y-86695855D01*
X152043406Y-86811064D01*
X152043402Y-86811071D01*
X151993108Y-86945917D01*
X151986701Y-87005516D01*
X151986700Y-87005527D01*
X151986700Y-89501270D01*
X151986701Y-89501276D01*
X151993109Y-89560884D01*
X152036491Y-89677200D01*
X152041475Y-89746891D01*
X152023412Y-89789421D01*
X151989590Y-89840041D01*
X151979716Y-89852910D01*
X151874517Y-89972870D01*
X151868984Y-89978779D01*
X151862839Y-89984925D01*
X151862837Y-89984927D01*
X151841325Y-90006439D01*
X151814145Y-90033617D01*
X151808226Y-90039161D01*
X151667831Y-90162285D01*
X151654963Y-90172159D01*
X151503079Y-90273646D01*
X151489033Y-90281756D01*
X151325196Y-90362553D01*
X151310213Y-90368759D01*
X151277390Y-90379902D01*
X151207581Y-90382813D01*
X151147280Y-90347521D01*
X151115632Y-90285230D01*
X151121346Y-90219150D01*
X151160797Y-90113376D01*
X151160798Y-90113372D01*
X151167199Y-90053844D01*
X151167200Y-90053827D01*
X151167200Y-89906000D01*
X150191200Y-89906000D01*
X150124161Y-89886315D01*
X150078406Y-89833511D01*
X150067200Y-89782000D01*
X150067200Y-89530499D01*
X150086885Y-89463460D01*
X150139689Y-89417705D01*
X150191200Y-89406499D01*
X150715071Y-89406499D01*
X150715072Y-89406499D01*
X150715072Y-89406498D01*
X150718396Y-89406321D01*
X150718401Y-89406426D01*
X150726363Y-89406000D01*
X151167200Y-89406000D01*
X151167200Y-89258172D01*
X151167199Y-89258155D01*
X151160798Y-89198627D01*
X151142679Y-89150048D01*
X151137695Y-89080356D01*
X151142676Y-89063391D01*
X151161291Y-89013483D01*
X151167700Y-88953873D01*
X151167699Y-88458128D01*
X151161291Y-88398517D01*
X151142947Y-88349334D01*
X151137962Y-88279643D01*
X151142947Y-88262665D01*
X151161289Y-88213488D01*
X151161288Y-88213488D01*
X151161291Y-88213483D01*
X151167700Y-88153873D01*
X151167699Y-87658128D01*
X151161291Y-87598517D01*
X151142947Y-87549334D01*
X151137962Y-87479643D01*
X151142947Y-87462665D01*
X151153128Y-87435369D01*
X151161291Y-87413483D01*
X151167700Y-87353873D01*
X151167699Y-86858128D01*
X151161291Y-86798517D01*
X151151225Y-86771528D01*
X151142947Y-86749334D01*
X151137962Y-86679643D01*
X151142947Y-86662665D01*
X151161289Y-86613488D01*
X151161288Y-86613488D01*
X151161291Y-86613483D01*
X151167700Y-86553873D01*
X151167699Y-86058128D01*
X151161291Y-85998517D01*
X151160797Y-85997193D01*
X151142947Y-85949334D01*
X151137962Y-85879643D01*
X151142947Y-85862665D01*
X151161291Y-85813483D01*
X151167700Y-85753873D01*
X151167699Y-85433499D01*
X151187383Y-85366461D01*
X151240187Y-85320706D01*
X151291699Y-85309500D01*
X151549816Y-85309500D01*
X151550437Y-85309458D01*
X151557722Y-85309458D01*
X151557735Y-85309459D01*
X151557735Y-85309458D01*
X151557736Y-85309459D01*
X151745463Y-85279743D01*
X151824393Y-85254104D01*
X151894233Y-85252115D01*
X151954062Y-85288200D01*
X151984886Y-85350904D01*
X151986700Y-85372038D01*
X151986700Y-85601269D01*
X151986701Y-85601276D01*
X151993108Y-85660883D01*
X152043402Y-85795728D01*
X152043406Y-85795735D01*
X152129652Y-85910944D01*
X152129655Y-85910947D01*
X152244864Y-85997193D01*
X152244871Y-85997197D01*
X152379717Y-86047491D01*
X152379716Y-86047491D01*
X152386644Y-86048235D01*
X152439327Y-86053900D01*
X153275072Y-86053899D01*
X153334683Y-86047491D01*
X153448867Y-86004902D01*
X153518558Y-85999919D01*
X153535530Y-86004902D01*
X153549142Y-86009979D01*
X153649717Y-86047491D01*
X153649716Y-86047491D01*
X153656644Y-86048235D01*
X153709327Y-86053900D01*
X154545072Y-86053899D01*
X154604683Y-86047491D01*
X154718867Y-86004902D01*
X154788558Y-85999919D01*
X154805530Y-86004902D01*
X154819142Y-86009979D01*
X154919716Y-86047491D01*
X154979317Y-86053899D01*
X154979318Y-86053899D01*
X154979327Y-86053900D01*
X154988860Y-86053899D01*
X155055898Y-86073578D01*
X155101657Y-86126379D01*
X155112087Y-86164015D01*
X155123272Y-86263292D01*
X155123274Y-86263299D01*
X155166890Y-86387946D01*
X155170451Y-86457724D01*
X155135722Y-86518352D01*
X155073729Y-86550579D01*
X155049850Y-86552900D01*
X154979330Y-86552900D01*
X154979323Y-86552901D01*
X154919716Y-86559308D01*
X154804818Y-86602163D01*
X154735126Y-86607147D01*
X154718152Y-86602163D01*
X154604579Y-86559803D01*
X154604572Y-86559801D01*
X154545044Y-86553400D01*
X154377200Y-86553400D01*
X154377200Y-89953400D01*
X154401949Y-89978149D01*
X154435434Y-90039472D01*
X154430450Y-90109164D01*
X154417371Y-90134720D01*
X154361551Y-90218262D01*
X154351676Y-90231131D01*
X154217951Y-90383614D01*
X154212404Y-90389536D01*
X152043867Y-92558074D01*
X152031670Y-92568770D01*
X152015955Y-92580828D01*
X151950786Y-92606021D01*
X151892777Y-92595299D01*
X151892494Y-92596110D01*
X151887263Y-92594279D01*
X151886664Y-92594169D01*
X151885912Y-92593806D01*
X151715662Y-92534233D01*
X151715649Y-92534230D01*
X151536404Y-92514035D01*
X151536396Y-92514035D01*
X151357150Y-92534230D01*
X151357145Y-92534231D01*
X151186876Y-92593811D01*
X151034137Y-92689784D01*
X150906584Y-92817337D01*
X150810611Y-92970076D01*
X150751031Y-93140345D01*
X150751030Y-93140350D01*
X150730835Y-93319596D01*
X150730835Y-93319603D01*
X150751030Y-93498849D01*
X150751031Y-93498854D01*
X150810611Y-93669123D01*
X150874664Y-93771062D01*
X150906584Y-93821862D01*
X151034138Y-93949416D01*
X151074562Y-93974816D01*
X151186874Y-94045387D01*
X151186878Y-94045389D01*
X151342276Y-94099765D01*
X151357145Y-94104968D01*
X151357150Y-94104969D01*
X151536396Y-94125165D01*
X151536400Y-94125165D01*
X151536404Y-94125165D01*
X151715649Y-94104969D01*
X151715652Y-94104968D01*
X151715655Y-94104968D01*
X151885922Y-94045389D01*
X151886888Y-94044781D01*
X151895923Y-94039106D01*
X151961894Y-94020100D01*
X152119595Y-94020100D01*
X152254923Y-93993181D01*
X152254923Y-93993180D01*
X152254928Y-93993180D01*
X152254933Y-93993177D01*
X152254936Y-93993177D01*
X152321663Y-93965537D01*
X152337008Y-93960327D01*
X152416762Y-93938959D01*
X152609279Y-93859220D01*
X152789742Y-93755035D01*
X152955063Y-93628188D01*
X152974576Y-93608675D01*
X152974605Y-93608650D01*
X152979967Y-93603287D01*
X152979970Y-93603286D01*
X153034629Y-93548627D01*
X153084549Y-93498710D01*
X153084550Y-93498707D01*
X153090645Y-93492613D01*
X153090665Y-93492589D01*
X155205927Y-91377329D01*
X155311694Y-91271562D01*
X155501475Y-91040314D01*
X155667676Y-90791577D01*
X155808695Y-90527747D01*
X155923176Y-90251366D01*
X156010016Y-89965094D01*
X156016699Y-89931491D01*
X156049082Y-89869581D01*
X156063992Y-89856425D01*
X156124746Y-89810946D01*
X156210996Y-89695731D01*
X156261291Y-89560883D01*
X156267700Y-89501273D01*
X156267699Y-87005528D01*
X156261291Y-86945917D01*
X156261261Y-86945837D01*
X156254863Y-86928682D01*
X156249879Y-86858990D01*
X156283364Y-86797667D01*
X156305071Y-86780357D01*
X156410904Y-86713858D01*
X156538458Y-86586304D01*
X156634431Y-86433564D01*
X156694010Y-86263297D01*
X156702760Y-86185638D01*
X156714207Y-86084045D01*
X156714207Y-86084038D01*
X156694011Y-85904792D01*
X156694010Y-85904787D01*
X156655851Y-85795735D01*
X156634431Y-85734520D01*
X156538458Y-85581780D01*
X156538456Y-85581778D01*
X156538455Y-85581776D01*
X156536192Y-85578938D01*
X156535301Y-85576757D01*
X156534753Y-85575884D01*
X156534906Y-85575787D01*
X156509786Y-85514251D01*
X156509142Y-85501629D01*
X156509142Y-85299394D01*
X156509143Y-85299390D01*
X156509142Y-85277860D01*
X156509164Y-85277784D01*
X156509163Y-85226476D01*
X156509164Y-85226476D01*
X156509162Y-85129890D01*
X156483944Y-84938371D01*
X156433943Y-84751782D01*
X156360013Y-84573316D01*
X156284314Y-84442212D01*
X156267699Y-84380208D01*
X156267699Y-83105529D01*
X156267698Y-83105523D01*
X156265623Y-83086222D01*
X156261291Y-83045917D01*
X156249931Y-83015460D01*
X156210997Y-82911071D01*
X156210993Y-82911064D01*
X156124747Y-82795855D01*
X156124744Y-82795852D01*
X156009535Y-82709606D01*
X156009528Y-82709602D01*
X155874682Y-82659308D01*
X155874683Y-82659308D01*
X155815083Y-82652901D01*
X155815081Y-82652900D01*
X155815073Y-82652900D01*
X155815064Y-82652900D01*
X154979329Y-82652900D01*
X154979323Y-82652901D01*
X154919715Y-82659309D01*
X154805531Y-82701896D01*
X154735839Y-82706880D01*
X154718866Y-82701896D01*
X154617597Y-82664125D01*
X154561663Y-82622254D01*
X154560612Y-82620828D01*
X154482371Y-82513137D01*
X154464878Y-82495644D01*
X154461125Y-82491891D01*
X154461121Y-82491883D01*
X154367271Y-82398032D01*
X154367269Y-82398030D01*
X154273025Y-82329559D01*
X154235583Y-82302356D01*
X154161685Y-82264703D01*
X154090549Y-82228458D01*
X153935744Y-82178160D01*
X153852760Y-82165018D01*
X153774973Y-82152699D01*
X153774972Y-82152699D01*
X153693585Y-82152700D01*
X153085479Y-82152700D01*
X153018440Y-82133015D01*
X152972685Y-82080211D01*
X152962741Y-82011053D01*
X152991766Y-81947497D01*
X153016201Y-81927748D01*
X153015336Y-81926496D01*
X153020543Y-81922895D01*
X153020551Y-81922891D01*
X153048028Y-81899423D01*
X153146756Y-81800693D01*
X153208078Y-81767208D01*
X153218234Y-81765438D01*
X153301557Y-81754469D01*
X153482416Y-81706006D01*
X153604398Y-81655476D01*
X153673863Y-81648007D01*
X153703352Y-81657239D01*
X153766098Y-81685895D01*
X153908555Y-81706376D01*
X154051013Y-81685895D01*
X154181928Y-81626107D01*
X154228611Y-81588488D01*
X154791287Y-81025811D01*
X154828907Y-80979128D01*
X154876813Y-80874229D01*
X154922568Y-80821426D01*
X154989607Y-80801742D01*
X155056647Y-80821427D01*
G37*
%TD.AperFunction*%
%TA.AperFunction,Conductor*%
G36*
X141609810Y-90481477D02*
G01*
X141659717Y-90500091D01*
X141719327Y-90506500D01*
X141860574Y-90506499D01*
X141927612Y-90526183D01*
X141973367Y-90578987D01*
X141983311Y-90648145D01*
X141954287Y-90711701D01*
X141933460Y-90730816D01*
X141892092Y-90760872D01*
X141871556Y-90781401D01*
X141871547Y-90781414D01*
X141813602Y-90839360D01*
X141813597Y-90839362D01*
X141707664Y-90945295D01*
X141707660Y-90945300D01*
X141598418Y-91095660D01*
X141543088Y-91138326D01*
X141473475Y-91144305D01*
X141411680Y-91111699D01*
X141377323Y-91050861D01*
X141374100Y-91022775D01*
X141374100Y-90935717D01*
X141374099Y-90935702D01*
X141373241Y-90924802D01*
X141371243Y-90899407D01*
X141343444Y-90803725D01*
X141326095Y-90744009D01*
X141326094Y-90744006D01*
X141326094Y-90744005D01*
X141296000Y-90693120D01*
X141278818Y-90625397D01*
X141300978Y-90559135D01*
X141355444Y-90515371D01*
X141402733Y-90506000D01*
X141415028Y-90506000D01*
X141415044Y-90505999D01*
X141474572Y-90499598D01*
X141474575Y-90499597D01*
X141523149Y-90481480D01*
X141592840Y-90476494D01*
X141609810Y-90481477D01*
G37*
%TD.AperFunction*%
%TA.AperFunction,Conductor*%
G36*
X144450323Y-76430727D02*
G01*
X145219383Y-76459909D01*
X145225523Y-76460296D01*
X145992126Y-76527872D01*
X145998285Y-76528570D01*
X146760567Y-76634371D01*
X146766674Y-76635376D01*
X147522694Y-76779136D01*
X147528742Y-76780443D01*
X147867593Y-76862614D01*
X148276621Y-76961802D01*
X148282606Y-76963412D01*
X149020527Y-77181929D01*
X149026424Y-77183837D01*
X149752480Y-77438950D01*
X149758220Y-77441129D01*
X150391880Y-77700035D01*
X150470644Y-77732217D01*
X150476322Y-77734704D01*
X151173311Y-78061030D01*
X151178816Y-78063778D01*
X151858643Y-78424537D01*
X151863998Y-78427553D01*
X152147949Y-78596940D01*
X152172102Y-78615749D01*
X152866280Y-79309927D01*
X152899765Y-79371250D01*
X152894781Y-79440942D01*
X152866280Y-79485289D01*
X152688089Y-79663480D01*
X152626766Y-79696965D01*
X152557074Y-79691981D01*
X152512727Y-79663480D01*
X151787235Y-78937988D01*
X151682705Y-79042518D01*
X151645124Y-79089153D01*
X151645123Y-79089155D01*
X151585397Y-79219934D01*
X151585396Y-79219939D01*
X151564936Y-79362253D01*
X151585396Y-79504566D01*
X151585398Y-79504574D01*
X151623782Y-79588622D01*
X151633726Y-79657780D01*
X151604701Y-79721336D01*
X151591541Y-79734405D01*
X151589534Y-79736119D01*
X151589508Y-79736143D01*
X151331107Y-79994545D01*
X151269784Y-80028030D01*
X151200092Y-80023046D01*
X151173569Y-80006000D01*
X150726367Y-80006000D01*
X150718388Y-80005572D01*
X150718383Y-80005678D01*
X150715079Y-80005500D01*
X150715073Y-80005500D01*
X150715066Y-80005500D01*
X149819329Y-80005500D01*
X149816005Y-80005679D01*
X149815999Y-80005573D01*
X149808037Y-80006000D01*
X149367200Y-80006000D01*
X149367200Y-80446826D01*
X149366772Y-80454797D01*
X149366878Y-80454803D01*
X149366700Y-80458128D01*
X149366700Y-80953870D01*
X149366701Y-80953876D01*
X149373108Y-81013482D01*
X149386204Y-81048593D01*
X149391452Y-81062665D01*
X149391453Y-81062666D01*
X149396437Y-81132358D01*
X149391453Y-81149331D01*
X149373110Y-81198511D01*
X149373109Y-81198515D01*
X149373109Y-81198517D01*
X149366700Y-81258127D01*
X149366700Y-81258134D01*
X149366700Y-81258135D01*
X149366700Y-81753870D01*
X149366701Y-81753876D01*
X149373108Y-81813482D01*
X149373928Y-81815680D01*
X149391185Y-81861949D01*
X149391453Y-81862666D01*
X149396437Y-81932358D01*
X149391453Y-81949331D01*
X149373110Y-81998511D01*
X149373110Y-81998514D01*
X149373109Y-81998517D01*
X149366700Y-82058127D01*
X149366700Y-82058134D01*
X149366700Y-82058135D01*
X149366700Y-82553870D01*
X149366701Y-82553876D01*
X149373108Y-82613482D01*
X149375848Y-82620828D01*
X149391452Y-82662665D01*
X149391453Y-82662666D01*
X149396437Y-82732358D01*
X149391453Y-82749331D01*
X149373110Y-82798511D01*
X149373110Y-82798514D01*
X149373109Y-82798517D01*
X149366700Y-82858127D01*
X149366700Y-82858134D01*
X149366700Y-82858135D01*
X149366700Y-83353870D01*
X149366701Y-83353876D01*
X149373108Y-83413482D01*
X149382693Y-83439179D01*
X149391452Y-83462665D01*
X149391453Y-83462666D01*
X149396437Y-83532358D01*
X149391453Y-83549331D01*
X149373110Y-83598511D01*
X149373109Y-83598515D01*
X149373109Y-83598517D01*
X149366700Y-83658127D01*
X149366700Y-83658134D01*
X149366700Y-83658135D01*
X149366700Y-84153870D01*
X149366701Y-84153876D01*
X149373108Y-84213482D01*
X149391453Y-84262666D01*
X149396437Y-84332358D01*
X149391453Y-84349331D01*
X149373110Y-84398511D01*
X149373109Y-84398515D01*
X149373109Y-84398517D01*
X149366700Y-84458127D01*
X149366700Y-84458134D01*
X149366700Y-84458135D01*
X149366700Y-84953870D01*
X149366701Y-84953876D01*
X149373108Y-85013482D01*
X149391453Y-85062666D01*
X149396437Y-85132358D01*
X149391453Y-85149331D01*
X149373110Y-85198511D01*
X149373109Y-85198515D01*
X149373109Y-85198517D01*
X149366700Y-85258127D01*
X149366700Y-85258134D01*
X149366700Y-85258135D01*
X149366700Y-85753870D01*
X149366701Y-85753876D01*
X149373108Y-85813482D01*
X149384822Y-85844888D01*
X149391452Y-85862665D01*
X149391453Y-85862666D01*
X149396437Y-85932358D01*
X149391453Y-85949331D01*
X149373110Y-85998511D01*
X149373110Y-85998514D01*
X149373109Y-85998517D01*
X149366700Y-86058127D01*
X149366700Y-86058134D01*
X149366700Y-86058135D01*
X149366700Y-86553870D01*
X149366701Y-86553876D01*
X149373108Y-86613482D01*
X149379353Y-86630224D01*
X149391452Y-86662665D01*
X149391453Y-86662666D01*
X149396437Y-86732358D01*
X149391453Y-86749331D01*
X149373110Y-86798511D01*
X149373110Y-86798514D01*
X149373109Y-86798517D01*
X149366700Y-86858127D01*
X149366700Y-86858134D01*
X149366700Y-86858135D01*
X149366700Y-87353870D01*
X149366701Y-87353872D01*
X149373108Y-87413482D01*
X149373593Y-87414781D01*
X149391452Y-87462665D01*
X149391453Y-87462666D01*
X149396437Y-87532358D01*
X149391453Y-87549331D01*
X149373110Y-87598511D01*
X149373110Y-87598514D01*
X149373109Y-87598517D01*
X149366700Y-87658127D01*
X149366700Y-87658134D01*
X149366700Y-87658135D01*
X149366700Y-88153870D01*
X149366701Y-88153876D01*
X149373108Y-88213482D01*
X149386204Y-88248593D01*
X149391452Y-88262665D01*
X149391453Y-88262666D01*
X149396437Y-88332358D01*
X149391453Y-88349331D01*
X149373109Y-88398514D01*
X149373108Y-88398516D01*
X149366701Y-88458116D01*
X149366701Y-88458123D01*
X149366700Y-88458135D01*
X149366700Y-88581500D01*
X149347015Y-88648539D01*
X149294211Y-88694294D01*
X149242700Y-88705500D01*
X148919330Y-88705500D01*
X148919323Y-88705501D01*
X148859716Y-88711908D01*
X148810532Y-88730253D01*
X148740840Y-88735237D01*
X148723867Y-88730253D01*
X148674686Y-88711910D01*
X148674685Y-88711909D01*
X148674683Y-88711909D01*
X148615073Y-88705500D01*
X148615063Y-88705500D01*
X148119329Y-88705500D01*
X148119323Y-88705501D01*
X148059716Y-88711908D01*
X148010532Y-88730253D01*
X147940840Y-88735237D01*
X147923867Y-88730253D01*
X147874686Y-88711910D01*
X147874685Y-88711909D01*
X147874683Y-88711909D01*
X147815073Y-88705500D01*
X147815063Y-88705500D01*
X147319329Y-88705500D01*
X147319323Y-88705501D01*
X147259716Y-88711908D01*
X147210532Y-88730253D01*
X147140840Y-88735237D01*
X147123867Y-88730253D01*
X147074686Y-88711910D01*
X147074685Y-88711909D01*
X147074683Y-88711909D01*
X147015073Y-88705500D01*
X147015063Y-88705500D01*
X146519329Y-88705500D01*
X146519323Y-88705501D01*
X146459716Y-88711908D01*
X146410532Y-88730253D01*
X146340840Y-88735237D01*
X146323867Y-88730253D01*
X146274686Y-88711910D01*
X146274685Y-88711909D01*
X146274683Y-88711909D01*
X146215073Y-88705500D01*
X146215063Y-88705500D01*
X145719329Y-88705500D01*
X145719323Y-88705501D01*
X145659716Y-88711908D01*
X145610532Y-88730253D01*
X145540840Y-88735237D01*
X145523867Y-88730253D01*
X145474682Y-88711908D01*
X145474683Y-88711908D01*
X145415083Y-88705501D01*
X145415081Y-88705500D01*
X145415073Y-88705500D01*
X145415065Y-88705500D01*
X145052127Y-88705500D01*
X144985088Y-88685815D01*
X144939333Y-88633011D01*
X144934046Y-88619354D01*
X144898385Y-88508116D01*
X144898384Y-88508115D01*
X144898384Y-88508113D01*
X144883142Y-88477762D01*
X144870736Y-88436000D01*
X144854169Y-88288950D01*
X144854168Y-88288945D01*
X144827762Y-88213482D01*
X144794589Y-88118678D01*
X144786992Y-88106588D01*
X144698615Y-87965937D01*
X144571062Y-87838384D01*
X144418323Y-87742411D01*
X144248054Y-87682831D01*
X144248049Y-87682830D01*
X144068804Y-87662635D01*
X144068796Y-87662635D01*
X143889550Y-87682830D01*
X143889545Y-87682831D01*
X143719276Y-87742411D01*
X143566537Y-87838384D01*
X143438984Y-87965937D01*
X143343011Y-88118676D01*
X143283431Y-88288945D01*
X143283430Y-88288950D01*
X143263235Y-88468196D01*
X143263235Y-88468204D01*
X143277565Y-88595393D01*
X143265510Y-88664215D01*
X143218161Y-88715594D01*
X143150550Y-88733218D01*
X143111013Y-88725458D01*
X143074688Y-88711910D01*
X143074684Y-88711909D01*
X143074683Y-88711909D01*
X143015073Y-88705500D01*
X143015063Y-88705500D01*
X142519329Y-88705500D01*
X142519323Y-88705501D01*
X142459716Y-88711908D01*
X142410532Y-88730253D01*
X142340840Y-88735237D01*
X142323867Y-88730253D01*
X142274686Y-88711910D01*
X142274685Y-88711909D01*
X142274683Y-88711909D01*
X142215073Y-88705500D01*
X142215064Y-88705500D01*
X141811384Y-88705500D01*
X141744345Y-88685815D01*
X141698590Y-88633011D01*
X141688164Y-88567617D01*
X141699365Y-88468203D01*
X141699365Y-88468196D01*
X141679169Y-88288950D01*
X141679168Y-88288945D01*
X141652762Y-88213482D01*
X141619589Y-88118678D01*
X141611992Y-88106588D01*
X141523615Y-87965937D01*
X141396062Y-87838384D01*
X141243323Y-87742411D01*
X141073054Y-87682831D01*
X141073049Y-87682830D01*
X140893804Y-87662635D01*
X140893796Y-87662635D01*
X140714550Y-87682830D01*
X140714545Y-87682831D01*
X140544276Y-87742411D01*
X140466795Y-87791096D01*
X140399558Y-87810096D01*
X140334851Y-87791096D01*
X140176523Y-87691611D01*
X140006254Y-87632031D01*
X140006249Y-87632030D01*
X139827004Y-87611835D01*
X139826996Y-87611835D01*
X139647750Y-87632030D01*
X139647742Y-87632032D01*
X139520095Y-87676698D01*
X139450317Y-87680259D01*
X139389689Y-87645530D01*
X139362959Y-87602990D01*
X139361290Y-87598514D01*
X139342945Y-87549331D01*
X139337962Y-87479643D01*
X139342947Y-87462665D01*
X139353128Y-87435369D01*
X139361291Y-87413483D01*
X139367700Y-87353873D01*
X139367699Y-87012903D01*
X139387383Y-86945865D01*
X139440187Y-86900110D01*
X139472296Y-86890431D01*
X139557714Y-86876901D01*
X139737662Y-86818429D01*
X139829707Y-86771527D01*
X139898374Y-86758630D01*
X139899726Y-86758773D01*
X139903200Y-86759165D01*
X140006103Y-86747570D01*
X140082449Y-86738969D01*
X140082452Y-86738968D01*
X140082455Y-86738968D01*
X140252722Y-86679389D01*
X140405462Y-86583416D01*
X140533016Y-86455862D01*
X140628989Y-86303122D01*
X140688568Y-86132855D01*
X140694068Y-86084042D01*
X140708765Y-85953603D01*
X140708765Y-85953596D01*
X140688569Y-85774350D01*
X140688568Y-85774345D01*
X140663525Y-85702777D01*
X140628989Y-85604078D01*
X140627228Y-85601276D01*
X140533015Y-85451337D01*
X140405462Y-85323784D01*
X140252721Y-85227810D01*
X140175181Y-85200678D01*
X140118404Y-85159956D01*
X140092657Y-85095003D01*
X140106113Y-85026442D01*
X140111129Y-85017684D01*
X140197189Y-84880722D01*
X140256768Y-84710455D01*
X140256769Y-84710449D01*
X140276965Y-84531203D01*
X140276965Y-84531196D01*
X140256769Y-84351950D01*
X140256768Y-84351945D01*
X140208318Y-84213483D01*
X140197189Y-84181678D01*
X140101216Y-84028938D01*
X139973662Y-83901384D01*
X139923468Y-83869845D01*
X139820923Y-83805411D01*
X139650654Y-83745831D01*
X139650650Y-83745830D01*
X139472554Y-83725764D01*
X139408140Y-83698697D01*
X139368585Y-83641102D01*
X139363148Y-83615794D01*
X139361291Y-83598515D01*
X139342947Y-83549334D01*
X139337962Y-83479643D01*
X139342947Y-83462665D01*
X139361289Y-83413488D01*
X139361288Y-83413488D01*
X139361291Y-83413483D01*
X139367700Y-83353873D01*
X139367699Y-82858128D01*
X139361291Y-82798517D01*
X139358182Y-82790181D01*
X139342947Y-82749334D01*
X139337962Y-82679643D01*
X139342947Y-82662665D01*
X139356175Y-82627200D01*
X139361291Y-82613483D01*
X139367700Y-82553873D01*
X139367699Y-82058128D01*
X139361291Y-81998517D01*
X139342680Y-81948618D01*
X139337695Y-81878927D01*
X139342680Y-81861949D01*
X139360797Y-81813375D01*
X139360798Y-81813372D01*
X139367199Y-81753844D01*
X139367200Y-81753827D01*
X139367200Y-81706000D01*
X139209307Y-81706000D01*
X139142268Y-81686315D01*
X139134996Y-81681267D01*
X139109531Y-81662204D01*
X139109528Y-81662202D01*
X138974682Y-81611908D01*
X138974683Y-81611908D01*
X138915083Y-81605501D01*
X138915081Y-81605500D01*
X138915073Y-81605500D01*
X138536196Y-81605500D01*
X138536194Y-81605500D01*
X138398206Y-81605500D01*
X138398203Y-81605500D01*
X138019330Y-81605500D01*
X138019323Y-81605501D01*
X137959716Y-81611908D01*
X137888471Y-81638482D01*
X137845138Y-81646300D01*
X137364234Y-81646300D01*
X137297195Y-81626615D01*
X137251440Y-81573811D01*
X137241760Y-81541692D01*
X137225002Y-81435852D01*
X137224999Y-81435840D01*
X137173846Y-81278389D01*
X137173845Y-81278388D01*
X137173844Y-81278383D01*
X137138612Y-81209232D01*
X137125100Y-81152942D01*
X137125100Y-81096117D01*
X137125099Y-81096102D01*
X137122243Y-81059808D01*
X137122242Y-81059802D01*
X137091458Y-80953844D01*
X137567200Y-80953844D01*
X137573601Y-81013372D01*
X137573603Y-81013380D01*
X137591986Y-81062667D01*
X137596970Y-81132359D01*
X137591986Y-81149333D01*
X137573603Y-81198619D01*
X137573601Y-81198627D01*
X137567200Y-81258155D01*
X137567200Y-81306000D01*
X138267200Y-81306000D01*
X138667200Y-81306000D01*
X139367200Y-81306000D01*
X139367200Y-81258172D01*
X139367199Y-81258155D01*
X139360797Y-81198622D01*
X139360797Y-81198621D01*
X139342414Y-81149335D01*
X139337428Y-81079644D01*
X139342414Y-81062665D01*
X139360797Y-81013378D01*
X139360797Y-81013377D01*
X139367199Y-80953844D01*
X139367200Y-80953827D01*
X139367200Y-80706000D01*
X139767200Y-80706000D01*
X139815028Y-80706000D01*
X139815044Y-80705999D01*
X139874577Y-80699597D01*
X139874578Y-80699597D01*
X139923865Y-80681214D01*
X139993556Y-80676228D01*
X140010535Y-80681214D01*
X140059821Y-80699597D01*
X140119355Y-80705999D01*
X140119372Y-80706000D01*
X140167200Y-80706000D01*
X140567200Y-80706000D01*
X140615028Y-80706000D01*
X140615044Y-80705999D01*
X140674577Y-80699597D01*
X140674578Y-80699597D01*
X140723865Y-80681214D01*
X140793556Y-80676228D01*
X140810535Y-80681214D01*
X140859821Y-80699597D01*
X140919355Y-80705999D01*
X140919372Y-80706000D01*
X140967200Y-80706000D01*
X141367200Y-80706000D01*
X141415028Y-80706000D01*
X141415044Y-80705999D01*
X141474577Y-80699597D01*
X141474578Y-80699597D01*
X141523865Y-80681214D01*
X141593556Y-80676228D01*
X141610535Y-80681214D01*
X141659821Y-80699597D01*
X141719355Y-80705999D01*
X141719372Y-80706000D01*
X141767200Y-80706000D01*
X142167200Y-80706000D01*
X142215028Y-80706000D01*
X142215044Y-80705999D01*
X142274577Y-80699597D01*
X142274578Y-80699597D01*
X142323865Y-80681214D01*
X142393556Y-80676228D01*
X142410535Y-80681214D01*
X142459821Y-80699597D01*
X142519355Y-80705999D01*
X142519372Y-80706000D01*
X142567200Y-80706000D01*
X142967200Y-80706000D01*
X143015028Y-80706000D01*
X143015044Y-80705999D01*
X143074577Y-80699597D01*
X143074578Y-80699597D01*
X143123865Y-80681214D01*
X143193556Y-80676228D01*
X143210535Y-80681214D01*
X143259821Y-80699597D01*
X143319355Y-80705999D01*
X143319372Y-80706000D01*
X143367200Y-80706000D01*
X143767200Y-80706000D01*
X143815028Y-80706000D01*
X143815044Y-80705999D01*
X143874577Y-80699597D01*
X143874578Y-80699597D01*
X143923865Y-80681214D01*
X143993556Y-80676228D01*
X144010535Y-80681214D01*
X144059821Y-80699597D01*
X144119355Y-80705999D01*
X144119372Y-80706000D01*
X144167200Y-80706000D01*
X144567200Y-80706000D01*
X144615028Y-80706000D01*
X144615044Y-80705999D01*
X144674577Y-80699597D01*
X144674578Y-80699597D01*
X144723865Y-80681214D01*
X144793556Y-80676228D01*
X144810535Y-80681214D01*
X144859821Y-80699597D01*
X144919355Y-80705999D01*
X144919372Y-80706000D01*
X144967200Y-80706000D01*
X145367200Y-80706000D01*
X145415028Y-80706000D01*
X145415044Y-80705999D01*
X145474577Y-80699597D01*
X145474578Y-80699597D01*
X145523865Y-80681214D01*
X145593556Y-80676228D01*
X145610535Y-80681214D01*
X145659821Y-80699597D01*
X145719355Y-80705999D01*
X145719372Y-80706000D01*
X145767200Y-80706000D01*
X146167200Y-80706000D01*
X146215028Y-80706000D01*
X146215044Y-80705999D01*
X146274577Y-80699597D01*
X146274578Y-80699597D01*
X146323865Y-80681214D01*
X146393556Y-80676228D01*
X146410535Y-80681214D01*
X146459821Y-80699597D01*
X146519355Y-80705999D01*
X146519372Y-80706000D01*
X146567200Y-80706000D01*
X146967200Y-80706000D01*
X147015028Y-80706000D01*
X147015044Y-80705999D01*
X147074577Y-80699597D01*
X147074578Y-80699597D01*
X147123865Y-80681214D01*
X147193556Y-80676228D01*
X147210535Y-80681214D01*
X147259821Y-80699597D01*
X147319355Y-80705999D01*
X147319372Y-80706000D01*
X147367200Y-80706000D01*
X147767200Y-80706000D01*
X147815028Y-80706000D01*
X147815044Y-80705999D01*
X147874577Y-80699597D01*
X147874578Y-80699597D01*
X147923865Y-80681214D01*
X147993556Y-80676228D01*
X148010535Y-80681214D01*
X148059821Y-80699597D01*
X148119355Y-80705999D01*
X148119372Y-80706000D01*
X148167200Y-80706000D01*
X148567200Y-80706000D01*
X148615028Y-80706000D01*
X148615044Y-80705999D01*
X148674577Y-80699597D01*
X148674578Y-80699597D01*
X148723865Y-80681214D01*
X148793556Y-80676228D01*
X148810535Y-80681214D01*
X148859821Y-80699597D01*
X148919355Y-80705999D01*
X148919372Y-80706000D01*
X148967200Y-80706000D01*
X148967200Y-80006000D01*
X148567200Y-80006000D01*
X148567200Y-80706000D01*
X148167200Y-80706000D01*
X148167200Y-80006000D01*
X147767200Y-80006000D01*
X147767200Y-80706000D01*
X147367200Y-80706000D01*
X147367200Y-80006000D01*
X146967200Y-80006000D01*
X146967200Y-80706000D01*
X146567200Y-80706000D01*
X146567200Y-80006000D01*
X146167200Y-80006000D01*
X146167200Y-80706000D01*
X145767200Y-80706000D01*
X145767200Y-80006000D01*
X145367200Y-80006000D01*
X145367200Y-80706000D01*
X144967200Y-80706000D01*
X144967200Y-80006000D01*
X144567200Y-80006000D01*
X144567200Y-80706000D01*
X144167200Y-80706000D01*
X144167200Y-80006000D01*
X143767200Y-80006000D01*
X143767200Y-80706000D01*
X143367200Y-80706000D01*
X143367200Y-80006000D01*
X142967200Y-80006000D01*
X142967200Y-80706000D01*
X142567200Y-80706000D01*
X142567200Y-80006000D01*
X142167200Y-80006000D01*
X142167200Y-80706000D01*
X141767200Y-80706000D01*
X141767200Y-80006000D01*
X141367200Y-80006000D01*
X141367200Y-80706000D01*
X140967200Y-80706000D01*
X140967200Y-80006000D01*
X140567200Y-80006000D01*
X140567200Y-80706000D01*
X140167200Y-80706000D01*
X140167200Y-80006000D01*
X139767200Y-80006000D01*
X139767200Y-80706000D01*
X139367200Y-80706000D01*
X139367200Y-80006000D01*
X138667200Y-80006000D01*
X138667200Y-81306000D01*
X138267200Y-81306000D01*
X138267200Y-80906000D01*
X137567200Y-80906000D01*
X137567200Y-80953844D01*
X137091458Y-80953844D01*
X137077095Y-80904409D01*
X137077094Y-80904406D01*
X137077094Y-80904405D01*
X136994717Y-80765113D01*
X136994715Y-80765111D01*
X136994712Y-80765107D01*
X136880292Y-80650687D01*
X136880284Y-80650681D01*
X136761971Y-80580711D01*
X136740995Y-80568306D01*
X136740994Y-80568305D01*
X136740993Y-80568305D01*
X136740990Y-80568304D01*
X136585597Y-80523157D01*
X136585591Y-80523156D01*
X136549297Y-80520300D01*
X136549290Y-80520300D01*
X136139910Y-80520300D01*
X136139902Y-80520300D01*
X136103608Y-80523156D01*
X136103602Y-80523157D01*
X135948209Y-80568304D01*
X135948204Y-80568306D01*
X135927228Y-80580711D01*
X135859503Y-80597892D01*
X135800989Y-80580711D01*
X135780791Y-80568766D01*
X135780790Y-80568765D01*
X135634601Y-80526293D01*
X135634600Y-80526294D01*
X135634600Y-80832445D01*
X135617334Y-80895563D01*
X135612107Y-80904400D01*
X135612104Y-80904408D01*
X135566957Y-81059802D01*
X135566956Y-81059808D01*
X135564100Y-81096102D01*
X135564100Y-81456800D01*
X135544415Y-81523839D01*
X135491611Y-81569594D01*
X135440100Y-81580800D01*
X134605810Y-81580800D01*
X134607454Y-81601710D01*
X134625371Y-81663380D01*
X134625171Y-81733249D01*
X134587228Y-81791919D01*
X134545298Y-81815680D01*
X134466918Y-81841652D01*
X134466907Y-81841657D01*
X134322671Y-81930624D01*
X134322667Y-81930627D01*
X134202827Y-82050467D01*
X134202824Y-82050471D01*
X134113857Y-82194707D01*
X134113852Y-82194718D01*
X134060544Y-82355593D01*
X134050400Y-82454877D01*
X134050400Y-82503200D01*
X135126400Y-82503200D01*
X135193439Y-82522885D01*
X135239194Y-82575689D01*
X135250400Y-82627200D01*
X135250400Y-82879200D01*
X135230715Y-82946239D01*
X135177911Y-82991994D01*
X135126400Y-83003200D01*
X134050401Y-83003200D01*
X134050401Y-83051522D01*
X134060544Y-83150807D01*
X134113852Y-83311681D01*
X134113857Y-83311692D01*
X134202824Y-83455928D01*
X134202827Y-83455932D01*
X134322667Y-83575772D01*
X134322671Y-83575775D01*
X134466907Y-83664742D01*
X134466918Y-83664747D01*
X134627793Y-83718055D01*
X134727083Y-83728199D01*
X134866780Y-83728199D01*
X134933820Y-83747883D01*
X134979575Y-83800687D01*
X134989519Y-83869845D01*
X134985857Y-83886794D01*
X134940535Y-84042791D01*
X134940534Y-84042797D01*
X134937700Y-84078811D01*
X134937700Y-84577169D01*
X134937701Y-84577191D01*
X134940535Y-84613205D01*
X134985329Y-84767388D01*
X134985331Y-84767393D01*
X135052353Y-84880722D01*
X135060859Y-84895104D01*
X135078127Y-84958225D01*
X135078127Y-85297859D01*
X135073204Y-85332449D01*
X135071535Y-85338196D01*
X135071534Y-85338202D01*
X135068700Y-85374211D01*
X135068700Y-85872569D01*
X135068701Y-85872593D01*
X135071534Y-85908602D01*
X135073203Y-85914344D01*
X135078127Y-85948941D01*
X135078127Y-86079012D01*
X135058442Y-86146051D01*
X135041821Y-86166680D01*
X135038489Y-86170012D01*
X135038482Y-86170020D01*
X134966348Y-86269323D01*
X134911022Y-86311993D01*
X134841409Y-86317978D01*
X134779611Y-86285378D01*
X134745249Y-86224542D01*
X134742496Y-86185638D01*
X134751720Y-86080212D01*
X134751720Y-86080210D01*
X134731132Y-85844896D01*
X134731131Y-85844888D01*
X134673926Y-85631398D01*
X133946575Y-86051335D01*
X133946575Y-86007802D01*
X133909093Y-85867915D01*
X133836682Y-85742497D01*
X133734278Y-85640093D01*
X133696574Y-85618324D01*
X134423926Y-85198387D01*
X134267645Y-85042106D01*
X134074141Y-84906611D01*
X133860055Y-84806782D01*
X133860046Y-84806778D01*
X133631889Y-84745644D01*
X133631878Y-84745642D01*
X133396565Y-84725055D01*
X133396561Y-84725055D01*
X133161247Y-84745642D01*
X133161236Y-84745644D01*
X132947750Y-84802847D01*
X133367688Y-85530200D01*
X133324153Y-85530200D01*
X133184266Y-85567682D01*
X133058848Y-85640093D01*
X132956444Y-85742497D01*
X132934676Y-85780199D01*
X132514738Y-85052846D01*
X132358453Y-85209131D01*
X132222963Y-85402632D01*
X132222962Y-85402634D01*
X132123133Y-85616719D01*
X132123130Y-85616725D01*
X132070187Y-85814313D01*
X132033822Y-85873973D01*
X131970975Y-85904502D01*
X131901599Y-85896207D01*
X131879289Y-85883795D01*
X131850653Y-85863744D01*
X131636568Y-85763915D01*
X131636559Y-85763911D01*
X131408402Y-85702777D01*
X131408391Y-85702775D01*
X131173078Y-85682188D01*
X131173074Y-85682188D01*
X130937760Y-85702775D01*
X130937749Y-85702777D01*
X130724263Y-85759980D01*
X131144201Y-86487333D01*
X131100666Y-86487333D01*
X130960779Y-86524815D01*
X130835361Y-86597226D01*
X130732957Y-86699630D01*
X130711189Y-86737332D01*
X130291251Y-86009979D01*
X130134969Y-86166262D01*
X130074145Y-86253128D01*
X130019567Y-86296753D01*
X129950069Y-86303945D01*
X129887714Y-86272423D01*
X129852301Y-86212193D01*
X129855072Y-86142378D01*
X129858786Y-86132716D01*
X130164466Y-85427206D01*
X130167065Y-85421597D01*
X130507947Y-84731582D01*
X130510795Y-84726163D01*
X130885725Y-84054061D01*
X130888873Y-84048736D01*
X130892591Y-84042791D01*
X131296912Y-83396226D01*
X131300306Y-83391089D01*
X131740463Y-82759758D01*
X131744085Y-82754830D01*
X132215265Y-82146253D01*
X132219118Y-82141526D01*
X132720120Y-81557257D01*
X132724235Y-81552695D01*
X133171690Y-81080799D01*
X134605809Y-81080799D01*
X134605810Y-81080800D01*
X135134600Y-81080800D01*
X135134600Y-80526294D01*
X135134598Y-80526293D01*
X134988409Y-80568765D01*
X134988406Y-80568767D01*
X134849225Y-80651078D01*
X134849216Y-80651085D01*
X134734885Y-80765416D01*
X134734878Y-80765425D01*
X134652568Y-80904604D01*
X134652566Y-80904609D01*
X134607455Y-81059881D01*
X134607454Y-81059887D01*
X134605809Y-81080799D01*
X133171690Y-81080799D01*
X133253767Y-80994239D01*
X133258119Y-80989873D01*
X133814911Y-80458564D01*
X133819450Y-80454445D01*
X134167774Y-80153844D01*
X137567200Y-80153844D01*
X137573601Y-80213372D01*
X137573603Y-80213380D01*
X137591986Y-80262667D01*
X137596970Y-80332359D01*
X137591986Y-80349333D01*
X137573603Y-80398619D01*
X137573601Y-80398627D01*
X137567200Y-80458155D01*
X137567200Y-80506000D01*
X138167200Y-80506000D01*
X138167200Y-80006000D01*
X137567200Y-80006000D01*
X137567200Y-80153844D01*
X134167774Y-80153844D01*
X134402091Y-79951630D01*
X134406880Y-79947703D01*
X135013906Y-79474644D01*
X135018853Y-79470984D01*
X135179601Y-79358155D01*
X137567200Y-79358155D01*
X137567200Y-79506000D01*
X138167200Y-79506000D01*
X138667200Y-79506000D01*
X139186200Y-79506000D01*
X139253239Y-79525685D01*
X139298994Y-79578489D01*
X139303527Y-79599327D01*
X139310200Y-79606000D01*
X139367200Y-79606000D01*
X139767200Y-79606000D01*
X140167200Y-79606000D01*
X140567200Y-79606000D01*
X140967200Y-79606000D01*
X141367200Y-79606000D01*
X141767200Y-79606000D01*
X142167200Y-79606000D01*
X142567200Y-79606000D01*
X142967200Y-79606000D01*
X143367200Y-79606000D01*
X143767200Y-79606000D01*
X144167200Y-79606000D01*
X144567200Y-79606000D01*
X144967200Y-79606000D01*
X145367200Y-79606000D01*
X145767200Y-79606000D01*
X146167200Y-79606000D01*
X146567200Y-79606000D01*
X146967200Y-79606000D01*
X147367200Y-79606000D01*
X147767200Y-79606000D01*
X148167200Y-79606000D01*
X148567200Y-79606000D01*
X148967200Y-79606000D01*
X149367200Y-79606000D01*
X149424200Y-79606000D01*
X149434176Y-79596023D01*
X149443885Y-79562961D01*
X149496689Y-79517206D01*
X149548200Y-79506000D01*
X150067200Y-79506000D01*
X150567200Y-79506000D01*
X151167200Y-79506000D01*
X151167200Y-79358172D01*
X151167199Y-79358155D01*
X151160798Y-79298627D01*
X151160796Y-79298620D01*
X151110554Y-79163913D01*
X151110550Y-79163906D01*
X151024390Y-79048812D01*
X151024387Y-79048809D01*
X150909293Y-78962649D01*
X150909286Y-78962645D01*
X150774579Y-78912403D01*
X150774572Y-78912401D01*
X150715044Y-78906000D01*
X150567200Y-78906000D01*
X150567200Y-79506000D01*
X150067200Y-79506000D01*
X150067200Y-78906000D01*
X149919355Y-78906000D01*
X149859827Y-78912401D01*
X149859820Y-78912403D01*
X149716801Y-78965746D01*
X149716183Y-78964091D01*
X149658345Y-78976669D01*
X149617948Y-78964807D01*
X149617599Y-78965746D01*
X149474579Y-78912403D01*
X149474572Y-78912401D01*
X149415044Y-78906000D01*
X149367200Y-78906000D01*
X149367200Y-79606000D01*
X148967200Y-79606000D01*
X148967200Y-78906000D01*
X148919355Y-78906000D01*
X148859827Y-78912401D01*
X148859819Y-78912403D01*
X148810533Y-78930786D01*
X148740841Y-78935770D01*
X148723867Y-78930786D01*
X148674580Y-78912403D01*
X148674572Y-78912401D01*
X148615044Y-78906000D01*
X148567200Y-78906000D01*
X148567200Y-79606000D01*
X148167200Y-79606000D01*
X148167200Y-78906000D01*
X148119355Y-78906000D01*
X148059827Y-78912401D01*
X148059819Y-78912403D01*
X148010533Y-78930786D01*
X147940841Y-78935770D01*
X147923867Y-78930786D01*
X147874580Y-78912403D01*
X147874572Y-78912401D01*
X147815044Y-78906000D01*
X147767200Y-78906000D01*
X147767200Y-79606000D01*
X147367200Y-79606000D01*
X147367200Y-78906000D01*
X147319355Y-78906000D01*
X147259827Y-78912401D01*
X147259819Y-78912403D01*
X147210533Y-78930786D01*
X147140841Y-78935770D01*
X147123867Y-78930786D01*
X147074580Y-78912403D01*
X147074572Y-78912401D01*
X147015044Y-78906000D01*
X146967200Y-78906000D01*
X146967200Y-79606000D01*
X146567200Y-79606000D01*
X146567200Y-78906000D01*
X146519355Y-78906000D01*
X146459827Y-78912401D01*
X146459819Y-78912403D01*
X146410533Y-78930786D01*
X146340841Y-78935770D01*
X146323867Y-78930786D01*
X146274580Y-78912403D01*
X146274572Y-78912401D01*
X146215044Y-78906000D01*
X146167200Y-78906000D01*
X146167200Y-79606000D01*
X145767200Y-79606000D01*
X145767200Y-78906000D01*
X145719355Y-78906000D01*
X145659827Y-78912401D01*
X145659819Y-78912403D01*
X145610533Y-78930786D01*
X145540841Y-78935770D01*
X145523867Y-78930786D01*
X145474580Y-78912403D01*
X145474572Y-78912401D01*
X145415044Y-78906000D01*
X145367200Y-78906000D01*
X145367200Y-79606000D01*
X144967200Y-79606000D01*
X144967200Y-78906000D01*
X144919355Y-78906000D01*
X144859827Y-78912401D01*
X144859819Y-78912403D01*
X144810533Y-78930786D01*
X144740841Y-78935770D01*
X144723867Y-78930786D01*
X144674580Y-78912403D01*
X144674572Y-78912401D01*
X144615044Y-78906000D01*
X144567200Y-78906000D01*
X144567200Y-79606000D01*
X144167200Y-79606000D01*
X144167200Y-78906000D01*
X144119355Y-78906000D01*
X144059827Y-78912401D01*
X144059819Y-78912403D01*
X144010533Y-78930786D01*
X143940841Y-78935770D01*
X143923867Y-78930786D01*
X143874580Y-78912403D01*
X143874572Y-78912401D01*
X143815044Y-78906000D01*
X143767200Y-78906000D01*
X143767200Y-79606000D01*
X143367200Y-79606000D01*
X143367200Y-78906000D01*
X143319355Y-78906000D01*
X143259827Y-78912401D01*
X143259819Y-78912403D01*
X143210533Y-78930786D01*
X143140841Y-78935770D01*
X143123867Y-78930786D01*
X143074580Y-78912403D01*
X143074572Y-78912401D01*
X143015044Y-78906000D01*
X142967200Y-78906000D01*
X142967200Y-79606000D01*
X142567200Y-79606000D01*
X142567200Y-78906000D01*
X142519355Y-78906000D01*
X142459827Y-78912401D01*
X142459819Y-78912403D01*
X142410533Y-78930786D01*
X142340841Y-78935770D01*
X142323867Y-78930786D01*
X142274580Y-78912403D01*
X142274572Y-78912401D01*
X142215044Y-78906000D01*
X142167200Y-78906000D01*
X142167200Y-79606000D01*
X141767200Y-79606000D01*
X141767200Y-78906000D01*
X141719355Y-78906000D01*
X141659827Y-78912401D01*
X141659819Y-78912403D01*
X141610533Y-78930786D01*
X141540841Y-78935770D01*
X141523867Y-78930786D01*
X141474580Y-78912403D01*
X141474572Y-78912401D01*
X141415044Y-78906000D01*
X141367200Y-78906000D01*
X141367200Y-79606000D01*
X140967200Y-79606000D01*
X140967200Y-78906000D01*
X140919355Y-78906000D01*
X140859827Y-78912401D01*
X140859819Y-78912403D01*
X140810533Y-78930786D01*
X140740841Y-78935770D01*
X140723867Y-78930786D01*
X140674580Y-78912403D01*
X140674572Y-78912401D01*
X140615044Y-78906000D01*
X140567200Y-78906000D01*
X140567200Y-79606000D01*
X140167200Y-79606000D01*
X140167200Y-78906000D01*
X140119355Y-78906000D01*
X140059827Y-78912401D01*
X140059819Y-78912403D01*
X140010533Y-78930786D01*
X139940841Y-78935770D01*
X139923867Y-78930786D01*
X139874580Y-78912403D01*
X139874572Y-78912401D01*
X139815044Y-78906000D01*
X139767200Y-78906000D01*
X139767200Y-79606000D01*
X139367200Y-79606000D01*
X139367200Y-78906000D01*
X139319355Y-78906000D01*
X139259827Y-78912401D01*
X139259820Y-78912403D01*
X139116801Y-78965746D01*
X139116183Y-78964091D01*
X139058345Y-78976669D01*
X139017948Y-78964807D01*
X139017599Y-78965746D01*
X138874579Y-78912403D01*
X138874572Y-78912401D01*
X138815044Y-78906000D01*
X138667200Y-78906000D01*
X138667200Y-79506000D01*
X138167200Y-79506000D01*
X138167200Y-78906000D01*
X138019355Y-78906000D01*
X137959827Y-78912401D01*
X137959820Y-78912403D01*
X137825113Y-78962645D01*
X137825106Y-78962649D01*
X137710012Y-79048809D01*
X137710009Y-79048812D01*
X137623849Y-79163906D01*
X137623845Y-79163913D01*
X137573603Y-79298620D01*
X137573601Y-79298627D01*
X137567200Y-79358155D01*
X135179601Y-79358155D01*
X135648774Y-79028842D01*
X135653927Y-79025415D01*
X135753596Y-78962649D01*
X136305151Y-78615309D01*
X136310432Y-78612165D01*
X136981335Y-78235116D01*
X136986787Y-78232229D01*
X137675684Y-77889185D01*
X137681264Y-77886577D01*
X138386507Y-77578359D01*
X138392186Y-77576045D01*
X139111894Y-77303477D01*
X139117716Y-77301437D01*
X139850155Y-77065174D01*
X139856060Y-77063430D01*
X140599385Y-76864066D01*
X140605378Y-76862617D01*
X141357764Y-76700643D01*
X141363818Y-76699498D01*
X142123335Y-76575330D01*
X142129406Y-76574492D01*
X142894215Y-76488430D01*
X142900326Y-76487896D01*
X143668464Y-76440162D01*
X143674604Y-76439934D01*
X144444160Y-76430648D01*
X144450323Y-76430727D01*
G37*
%TD.AperFunction*%
%TD*%
M02*
