M48
; DRILL file {KiCad 8.0.3} date 2025-07-02T10:15:56+0300
; FORMAT={-:-/ absolute / inch / decimal}
; #@! TF.CreationDate,2025-07-02T10:15:56+03:00
; #@! TF.GenerationSoftware,Kicad,Pcbnew,8.0.3
; #@! TF.FileFunction,Plated,1,4,PTH
FMAT,2
INCH
; #@! TA.AperFunction,Plated,PTH,ViaDrill
T1C0.0118
; #@! TA.AperFunction,Plated,PTH,ComponentDrill
T2C0.0276
; #@! TA.AperFunction,Plated,PTH,ComponentDrill
T3C0.0433
%
G90
G05
T1
X5.18Y-3.357
X5.249Y-3.735
X5.27Y-3.258
X5.277Y-3.337
X5.302Y-3.203
X5.378Y-3.614
X5.409Y-3.462
X5.427Y-3.139
X5.449Y-3.556
X5.461Y-3.628
X5.48Y-3.1774
X5.48Y-3.2089
X5.491Y-3.328
X5.505Y-3.481
X5.508Y-3.384
X5.512Y-3.141
X5.542Y-3.141
X5.547Y-3.483
X5.556Y-3.66
X5.562Y-3.556
X5.563Y-3.627
X5.574Y-3.142
X5.58Y-4.028
X5.581Y-3.759
X5.589Y-3.999
X5.598Y-3.861
X5.604Y-4.063
X5.605Y-3.143
X5.613Y-4.028
X5.6165Y-3.8025
X5.639Y-3.144
X5.646Y-3.294
X5.646Y-3.375
X5.669Y-3.144
X5.67Y-4.056
X5.672Y-3.483
X5.688Y-3.672
X5.698Y-3.952
X5.7Y-3.142
X5.702Y-4.029
X5.724Y-3.297
X5.724Y-3.373
X5.732Y-3.142
X5.741Y-3.915
X5.764Y-3.143
X5.778Y-3.673
X5.78Y-3.792
X5.796Y-3.142
X5.828Y-3.142
X5.858Y-3.142
X5.871Y-3.675
X5.891Y-3.142
X5.949Y-3.529
X5.966Y-3.674
X5.968Y-3.208
X5.989Y-3.11
X6.024Y-3.795
X6.066Y-3.541
X6.1381Y-3.3891
T2
X5.6853Y-3.7495
T3
X5.1643Y-3.4267
X5.2213Y-3.5031
X5.2518Y-3.389
M30
